<svg id="Layer_1" xmlns="http://www.w3.org/2000/svg" width="163.7" height="40.3" viewBox="0 0 163.7 40.3"><style>.st0{opacity:.6}.st1,.st2{fill:#fff}.st2{fill-rule:evenodd;clip-rule:evenodd}</style><g class="st0"><path class="st1" d="M30.2 20.1c0-3.3 2.7-4.9 2.8-4.9-1.5-2.2-3.9-2.5-4.8-2.6-2-.2-3.9 1.2-5 1.2-1 0-2.6-1.2-4.3-1.1-2.2 0-4.2 1.3-5.3 3.2-2.3 4-.6 9.8 1.6 13 1.1 1.6 2.4 3.3 4.1 3.3 1.7-.1 2.3-1 4.3-1s2.6 1 4.3 1c1.8 0 2.9-1.6 4-3.2 1.3-1.8 1.8-3.6 1.8-3.7-.1 0-3.5-1.3-3.5-5.2m-3.3-9.7c.9-1.1 1.5-2.6 1.3-4.1-1.3.1-2.9.9-3.8 2-.8 1-1.6 2.5-1.4 4 1.5.1 3-.8 3.9-1.9M55.2 32h-2l-.2-5.4c-.1-2.4-.2-4.2-.2-5.4h-.1c-.4 1.5-.9 3.1-1.5 4.8l-2 5.8h-1.5L46 26.2c-.5-1.7-1-3.4-1.3-4.9-.1 1.9-.1 3.7-.2 5.5l-.3 5.2h-1.9l.8-12.8h2.6l1.8 5.5c.4 1.4.8 2.8 1.2 4.4h.1c.4-1.6.8-3.1 1.3-4.4l1.9-5.5h2.6l.6 12.8zm8.8 0h-1.8l-.1-1.1H62c-.6.8-1.5 1.3-2.6 1.3-.9 0-1.5-.3-2.1-.8-.5-.5-.7-1.1-.7-1.9 0-1.1.5-2 1.4-2.6.9-.6 2.2-.9 3.9-.9v-.2c0-1.2-.6-1.8-1.9-1.8-.9 0-1.7.2-2.4.7l-.4-1.3c.8-.5 1.9-.8 3.1-.8 2.4 0 3.6 1.3 3.6 3.8v3.4c0 .9 0 1.6.1 2.2m-2.1-3.2v-1.4c-2.2 0-3.3.6-3.3 1.9 0 .5.1.8.4 1.1.3.2.6.4 1 .4s.9-.1 1.2-.4c.4-.3.6-.6.7-1.1v-.5M72.5 23l-.4 1.6c-.5-.3-1.1-.4-1.7-.4-.9 0-1.6.3-2.1.9-.5.6-.8 1.4-.8 2.3 0 1 .3 1.7.8 2.3.5.6 1.2.9 2.1.9.6 0 1.2-.1 1.8-.4l.3 1.5c-.7.3-1.5.5-2.5.5-1.4 0-2.5-.4-3.3-1.3-.8-.9-1.2-2-1.2-3.4s.4-2.6 1.3-3.5c.9-.9 2.1-1.4 3.6-1.4.7 0 1.5.1 2.1.4m14.8 9h-2.1L84 28.2h-4.1L78.8 32h-2.1l4-12.8h2.5L87.3 32zm-3.6-5.4l-1.1-3.3c-.1-.3-.3-1.1-.6-2.4-.1.5-.3 1.3-.6 2.4l-1 3.3h3.3zm14 .6c0 1.6-.4 2.8-1.3 3.7-.7.8-1.7 1.2-2.8 1.2-1.2 0-2.1-.4-2.6-1.3v4.8h-2v-9.9c0-1 0-2-.1-3h1.8l.1 1.5c.7-1.1 1.7-1.6 3.1-1.6 1.1 0 2 .4 2.7 1.3.7.8 1.1 1.9 1.1 3.3m-2.1.1c0-.9-.2-1.6-.6-2.2-.4-.6-1-.9-1.7-.9-.5 0-.9.2-1.3.5s-.7.8-.8 1.3c-.1.3-.1.5-.1.6v1.5c0 .7.2 1.2.6 1.7.4.5.9.7 1.6.7.8 0 1.3-.3 1.8-.9.3-.5.5-1.3.5-2.3m12.5-.1c0 1.6-.4 2.8-1.3 3.7-.7.8-1.7 1.2-2.8 1.2-1.2 0-2.1-.4-2.6-1.3v4.8h-2v-9.9c0-1 0-2-.1-3h1.8l.1 1.5c.7-1.1 1.7-1.6 3.1-1.6 1.1 0 2 .4 2.7 1.3.7.8 1.1 1.9 1.1 3.3m-2.1.1c0-.9-.2-1.6-.6-2.2-.4-.6-1-.9-1.7-.9-.5 0-.9.2-1.3.5s-.7.8-.8 1.3c-.1.3-.1.5-.1.6v1.5c0 .7.2 1.2.6 1.7.4.5.9.7 1.6.7.8 0 1.3-.3 1.8-.9.3-.5.5-1.3.5-2.3m13.7 1.1c0 1.1-.4 2-1.1 2.7-.8.7-2 1.1-3.4 1.1-1.3 0-2.4-.3-3.2-.8l.5-1.7c.9.5 1.8.8 2.9.8.8 0 1.3-.2 1.8-.5.4-.3.6-.8.6-1.4 0-.5-.2-1-.5-1.3-.3-.4-.9-.7-1.7-1-2.2-.8-3.3-2.1-3.3-3.7 0-1 .4-1.9 1.2-2.6.8-.7 1.8-1 3.1-1 1.1 0 2.1.2 2.8.6l-.5 1.7c-.7-.4-1.5-.6-2.4-.6-.7 0-1.3.2-1.7.5-.3.3-.5.7-.5 1.2s.2.9.6 1.2c.3.3.9.6 1.8 1 1.1.4 1.9 1 2.4 1.6.3.6.6 1.3.6 2.2m6.6-4.1h-2.2v4.5c0 1.1.4 1.7 1.2 1.7.4 0 .7 0 .9-.1l.1 1.6c-.4.2-.9.2-1.6.2-.8 0-1.4-.2-1.9-.7-.4-.5-.7-1.3-.7-2.5v-4.6h-1.3v-1.5h1.3v-1.7l2-.6v2.3h2.2v1.4zm10 3c0 1.4-.4 2.6-1.2 3.5-.8.9-1.9 1.4-3.3 1.4-1.3 0-2.4-.4-3.2-1.3-.8-.9-1.2-2-1.2-3.4s.4-2.6 1.2-3.5c.8-.9 1.9-1.4 3.3-1.4 1.3 0 2.4.4 3.2 1.3.8.9 1.2 2 1.2 3.4m-2.1 0c0-.8-.2-1.6-.5-2.2-.4-.7-1-1.1-1.8-1.1s-1.4.4-1.8 1.1c-.4.6-.5 1.3-.5 2.2 0 .8.2 1.6.5 2.2.4.7 1 1.1 1.8 1.1s1.4-.4 1.8-1.1c.3-.6.5-1.3.5-2.2m8.6-2.7c-.2 0-.4-.1-.6-.1-.7 0-1.3.3-1.6.8-.3.5-.5 1.1-.5 1.8V32h-2v-6.3c0-1.1 0-2-.1-2.9h1.7l.1 1.8h.1c.2-.6.5-1.1 1-1.5.4-.3.9-.5 1.5-.5h.5l-.1 2zm9 2.3c0 .4 0 .7-.1.9h-6c0 .9.3 1.6.9 2.1.5.4 1.2.6 2 .6.9 0 1.7-.1 2.4-.4l.3 1.4c-.9.4-1.9.6-3 .6-1.4 0-2.5-.4-3.3-1.3-.8-.8-1.2-2-1.2-3.4s.4-2.5 1.1-3.5c.8-1 1.8-1.5 3.2-1.5 1.3 0 2.3.5 3 1.5.5.9.7 1.9.7 3m-1.9-.5c0-.6-.1-1.1-.4-1.6-.3-.6-.9-.9-1.6-.9-.7 0-1.2.3-1.6.8-.3.4-.5 1-.6 1.6l4.2.1zM42.7 8.4c.4-.3 1-.5 1.7-.5 1.2 0 1.9.6 1.9 1.5 0 .7-.5 1.2-1.2 1.4.8.1 1.4.6 1.4 1.4 0 1.3-1.2 1.7-2.3 1.7-.6 0-1.2-.1-1.6-.4l.2-.8c.3.2.9.4 1.4.4.8 0 1.2-.4 1.2-.9 0-.7-.8-.9-1.4-.9h-.5v-.8h.5c.7 0 1.2-.4 1.2-.9s-.4-.8-1-.8c-.4 0-.9.2-1.2.4l-.3-.8zm8 4.5c0 .4 0 .8.1 1h-1l-.1-.5c-.2.3-.7.6-1.2.6-.8 0-1.3-.6-1.3-1.3 0-1.1.9-1.6 2.5-1.6V11c0-.3-.1-.7-.9-.7-.4 0-.8.1-1.1.3l-.2-.7c.3-.2.9-.4 1.5-.4 1.3 0 1.7.9 1.7 1.8v1.6zm-1-1.1c-.8 0-1.5.1-1.5.8 0 .4.3.6.6.6.4 0 .7-.3.8-.6v-.8zm4.9-2.1v.8h-1.7v3.4h-1.1V9.7h2.8zm.6 1.4V9.7h.9l.1.6c.3-.5.8-.7 1.4-.7 1 0 1.8.8 1.8 2.1 0 1.5-1 2.3-1.9 2.3-.5 0-1-.2-1.2-.6v2.2h-1.1v-4.5zm1.1 1v.3c.1.4.5.7.9.7.7 0 1.1-.6 1.1-1.4 0-.7-.4-1.3-1-1.3-.4 0-.8.3-1 .8v.9zm4.5-2.4l.8 2.3c.1.3.2.6.2.8.1-.2.1-.6.2-.8l.7-2.2h1.1l-1.1 2.9c-.6 1.6-1 2.3-1.5 2.7-.4.4-.9.5-1.1.5l-.1-1c.2 0 .4-.1.6-.3.2-.1.4-.4.6-.7 0-.1.1-.1.1-.2 0 0 0-.1-.1-.2l-1.5-3.9h1.1zm4.1 1.7h.5c.6 0 .9-.2.9-.5s-.3-.5-.8-.5c-.4 0-.7.1-1 .3l-.2-.7c.5-.3 1-.4 1.6-.4.7 0 1.6.3 1.6 1.1 0 .5-.5.8-.9.9.6.1 1.1.4 1.1 1 0 1-1.1 1.3-2 1.3-.5 0-1.1-.1-1.5-.4l.2-.7c.3.2.7.3 1.2.3.6 0 .9-.3.9-.6 0-.4-.5-.6-1.1-.6h-.5v-.5zm4.6-1.7v1.5c0 .7 0 1.1-.1 1.7.2-.5.3-.8.6-1.2l1-2h1.3v4.2h-1v-1.5c0-.7 0-1 .1-1.8-.2.5-.3.8-.6 1.2-.3.6-.7 1.4-1.1 2.1h-1.3V9.7h1.1zm7.1 0v.8h-1.3v3.4h-1.1v-3.4H73v-.8h3.6zm1.3 2.4c0 .8.6 1.1 1.3 1.1.5 0 .8-.1 1.2-.2l.2.7c-.4.2-.9.3-1.5.3-1.4 0-2.2-.8-2.2-2.1 0-1.2.7-2.3 2.1-2.3 1.4 0 1.8 1.1 1.8 2v.4h-2.9zm1.8-.8c0-.4-.2-1-.9-1s-.9.6-1 1h1.9zm3.6-1.6c.3-.1 1-.1 1.5-.1.7 0 2 .1 2 1.1 0 .5-.4.8-.9.9.6.1 1.1.4 1.1 1 0 1.1-1.5 1.3-2.4 1.3-.5 0-1.1 0-1.3-.1V9.7zm1.1 3.5h.5c.5 0 1.1-.1 1.1-.6s-.5-.6-1.1-.6h-.4v1.2zm0-1.8h.4c.5 0 1-.1 1-.6 0-.3-.3-.5-.9-.5h-.5v1.1z"/><path class="st2" d="M158.6.8c2.4 0 4.3 1.9 4.3 4.2v30.2c0 2.3-1.9 4.2-4.3 4.2H5.1c-2.4 0-4.3-1.9-4.3-4.2V5C.8 2.7 2.7.8 5.1.8h153.5zm0-.8H5.1C2.3 0 0 2.3 0 5v30.2c0 2.8 2.3 5 5.1 5h153.5c2.8 0 5.1-2.3 5.1-5V5c0-2.7-2.3-5-5.1-5z"/></g></svg>