<svg id="Layer_1" xmlns="http://www.w3.org/2000/svg" xmlns:xlink="http://www.w3.org/1999/xlink" width="137.7" height="40.3" viewBox="0 0 137.7 40.3"><style>.st0{opacity:.6}.st1{fill-rule:evenodd;clip-rule:evenodd;fill:#fff}.st2{clip-path:url(#SVGID_2_)}.st3{fill:#00a8ff}.st3,.st4,.st5,.st6,.st7{fill-rule:evenodd;clip-rule:evenodd}.st4{fill:#00a9ff}.st5{fill:#0af}.st6{fill:#00abff}.st7{fill:#00acff}.st10,.st11,.st12,.st13,.st14,.st8,.st9{fill-rule:evenodd;clip-rule:evenodd}.st8{fill:#00adff}.st9{fill:#00aeff}.st10{fill:#00afff}.st11{fill:#00b0ff}.st12{fill:#00b1ff}.st13{fill:#00b2ff}.st14{fill:#00b3ff}.st15{fill:#00b4ff}.st15,.st16,.st17,.st18,.st19,.st20{fill-rule:evenodd;clip-rule:evenodd}.st16{fill:#00b5ff}.st17{fill:#00b6ff}.st18{fill:#00b7ff}.st19{fill:#00b8ff}.st20{fill:#00b9ff}.st21{fill:#00baff}.st21,.st22,.st23,.st24,.st25,.st26{fill-rule:evenodd;clip-rule:evenodd}.st22{fill:#0bf}.st23{fill:#00bcff}.st24{fill:#00bdff}.st25{fill:#00beff}.st26{fill:#00bfff}.st27{fill:#00c0ff}.st27,.st28,.st29,.st30,.st31,.st32{fill-rule:evenodd;clip-rule:evenodd}.st28{fill:#00c1ff}.st29{fill:#00c2ff}.st30{fill:#00c3ff}.st31{fill:#00c4ff}.st32{fill:#00c5ff}.st33{fill:#00c6ff}.st33,.st34,.st35,.st36,.st37,.st38{fill-rule:evenodd;clip-rule:evenodd}.st34{fill:#00c7ff}.st35{fill:#00c8ff}.st36{fill:#00c9ff}.st37{fill:#00caff}.st38{fill:#00cbff}.st39{fill:#0cf}.st39,.st40,.st41,.st42,.st43,.st44{fill-rule:evenodd;clip-rule:evenodd}.st40{fill:#00cdff}.st41{fill:#00ceff}.st42{fill:#00cfff}.st43{fill:#00d0ff}.st44{fill:#00d1ff}.st45{fill:#00d2ff}.st45,.st46,.st47,.st48,.st49,.st50{fill-rule:evenodd;clip-rule:evenodd}.st46{fill:#00d3ff}.st47{fill:#00d4ff}.st48{fill:#00d5ff}.st49{fill:#00d6ff}.st50{fill:#00d7ff}.st51{fill:#00d8ff}.st51,.st52,.st53,.st54,.st55,.st56{fill-rule:evenodd;clip-rule:evenodd}.st52{fill:#00d9ff}.st53{fill:#00daff}.st54{fill:#00dbff}.st55{fill:#00dcff}.st56{fill:#0df}.st57{fill:#00deff}.st57,.st58,.st59,.st60,.st61,.st62{fill-rule:evenodd;clip-rule:evenodd}.st58{fill:#00dfff}.st59{fill:#00e0ff}.st60{fill:#00e1ff}.st61{fill:#00e2ff}.st62{fill:#00e3ff}.st63{clip-path:url(#SVGID_4_)}.st64,.st65{fill-rule:evenodd;clip-rule:evenodd;fill:#ffc300}.st65{fill:#ffc200}.st66{fill:#ffc100}.st66,.st67,.st68,.st69,.st70,.st71{fill-rule:evenodd;clip-rule:evenodd}.st67{fill:#ffc000}.st68{fill:#ffbf00}.st69{fill:#ffbe00}.st70{fill:#ffbd00}.st71{fill:#ffbc00}.st72{fill:#fb0}.st72,.st73,.st74,.st75,.st76,.st77{fill-rule:evenodd;clip-rule:evenodd}.st73{fill:#ffba00}.st74{fill:#ffb900}.st75{fill:#ffb800}.st76{fill:#ffb700}.st77{fill:#ffb600}.st78{fill:#ffb500}.st78,.st79,.st80,.st81,.st82,.st83{fill-rule:evenodd;clip-rule:evenodd}.st79{fill:#ffb400}.st80{fill:#ffb300}.st81{fill:#ffb200}.st82{fill:#ffb100}.st83{fill:#ffb000}.st84{fill:#ffaf00}.st84,.st85,.st86,.st87,.st88,.st89{fill-rule:evenodd;clip-rule:evenodd}.st85{fill:#ffae00}.st86{fill:#ffad00}.st87{fill:#ffac00}.st88{fill:#ffab00}.st89{fill:#fa0}.st90{clip-path:url(#SVGID_6_)}.st91{fill:#ff3a44}.st91,.st92,.st93,.st94{fill-rule:evenodd;clip-rule:evenodd}.st92{fill:#fe3a44}.st93{fill:#fe3944}.st94{fill:#fe3945}.st100{fill-rule:evenodd;clip-rule:evenodd}.st95{fill:#fd3945}.st95,.st96,.st97,.st98,.st99{fill-rule:evenodd;clip-rule:evenodd}.st96{fill:#fd3845}.st97{fill:#fc3845}.st98{fill:#fc3846}.st99{fill:#fb3846}.st100{fill:#fb3746}.st101{fill:#fa3746}.st101,.st102,.st103,.st104,.st105,.st106{fill-rule:evenodd;clip-rule:evenodd}.st102{fill:#fa3647}.st103{fill:#f93647}.st104{fill:#f83547}.st105{fill:#f83548}.st106{fill:#f73548}.st107{fill:#f73448}.st107,.st108,.st109,.st110,.st111,.st112{fill-rule:evenodd;clip-rule:evenodd}.st108{fill:#f63448}.st109{fill:#f63449}.st110{fill:#f53349}.st111{fill:#f43349}.st112{fill:#f4324a}.st113{fill:#f3324a}.st113,.st114,.st115,.st116,.st117,.st118{fill-rule:evenodd;clip-rule:evenodd}.st114{fill:#f3314a}.st115{fill:#f2314a}.st116{fill:#f2314b}.st117{fill:#f1314b}.st118{fill:#f1304b}.st119{fill:#f0304b}.st119,.st120,.st121,.st122,.st123,.st124{fill-rule:evenodd;clip-rule:evenodd}.st120{fill:#f0304c}.st121{fill:#ef2f4c}.st122{fill:#ee2f4c}.st123{fill:#ee2e4c}.st124{fill:#ee2e4d}.st125{fill:#ed2e4d}.st125,.st126,.st127,.st128,.st129,.st130{fill-rule:evenodd;clip-rule:evenodd}.st126{fill:#ed2d4d}.st127{fill:#ec2d4d}.st128{fill:#ec2d4e}.st129{fill:#eb2d4e}.st130{fill:#eb2c4e}.st131{fill:#ea2c4e}.st131,.st132,.st133,.st134,.st135,.st136{fill-rule:evenodd;clip-rule:evenodd}.st132{fill:#ea2c4f}.st133{fill:#ea2b4f}.st134{fill:#e92b4f}.st135{fill:#e82b4f}.st136{fill:#e82a4f}.st137{fill:#e82a50}.st137,.st138,.st139,.st140,.st141,.st142{fill-rule:evenodd;clip-rule:evenodd}.st138{fill:#e72a50}.st139{fill:#e72950}.st140{fill:#e62950}.st141{fill:#e62951}.st142{fill:#e52851}.st143{fill:#e42851}.st143,.st144,.st145,.st146,.st147,.st148{fill-rule:evenodd;clip-rule:evenodd}.st144{fill:#e42852}.st145{fill:#e42752}.st146{fill:#e32752}.st147{fill:#e22652}.st148{fill:#e22653}.st149{fill:#e12653}.st149,.st150,.st151,.st152,.st153,.st154{fill-rule:evenodd;clip-rule:evenodd}.st150{fill:#e12553}.st151{fill:#e02553}.st152{fill:#e02554}.st153{fill:#df2454}.st154{fill:#de2454}.st155{fill:#de2354}.st155,.st156,.st157,.st158,.st159,.st160{fill-rule:evenodd;clip-rule:evenodd}.st156{fill:#de2355}.st157{fill:#dd2355}.st158{fill:#dc2255}.st159{fill:#dc2256}.st160{fill:#db2256}.st161{fill:#db2156}.st161,.st162,.st163,.st164,.st165,.st166{fill-rule:evenodd;clip-rule:evenodd}.st162{fill:#da2156}.st163{fill:#da2157}.st164{fill:#da2057}.st165{fill:#d92057}.st166{fill:#d82057}.st167{fill:#d81f57}.st167,.st168,.st169,.st170,.st171,.st172{fill-rule:evenodd;clip-rule:evenodd}.st168{fill:#d81f58}.st169{fill:#d71f58}.st170{fill:#d71e58}.st171{fill:#d61e58}.st172{fill:#d61e59}.st173{fill:#d51e59}.st173,.st174,.st175,.st176,.st177,.st178{fill-rule:evenodd;clip-rule:evenodd}.st174{fill:#d51d59}.st175{fill:#d41d59}.st176{fill:#d41d5a}.st177{fill:#d41c5a}.st178{fill:#d31c5a}.st179{fill:#d21b5a}.st179,.st180,.st181,.st182,.st183,.st184{fill-rule:evenodd;clip-rule:evenodd}.st180{fill:#d21b5b}.st181{fill:#d11b5b}.st182{fill:#d11a5b}.st183{fill:#d01a5b}.st184{fill:#d01a5c}.st185{fill:#cf1a5c}.st185,.st186,.st187,.st188,.st189,.st190{fill-rule:evenodd;clip-rule:evenodd}.st186{fill:#cf195c}.st187{fill:#ce195c}.st188{fill:#ce185d}.st189{fill:#cd185d}.st190{fill:#cc175d}.st191{fill:#cc175e}.st191,.st192,.st193,.st194,.st195,.st196{fill-rule:evenodd;clip-rule:evenodd}.st192{fill:#cb175e}.st193{fill:#cb165e}.st194{fill:#ca165e}.st195{fill:#ca165f}.st196{fill:#c9155f}.st197{fill:#c8155f}.st197,.st198,.st199,.st200,.st201,.st202{fill-rule:evenodd;clip-rule:evenodd}.st198{fill:#c81460}.st199{fill:#c71460}.st200{fill:#c71360}.st201{fill:#c61360}.st202{fill:#c61361}.st203{fill:#c51361}.st203,.st204,.st205,.st206,.st207,.st208{fill-rule:evenodd;clip-rule:evenodd}.st204{fill:#c51261}.st205{fill:#c41261}.st206{fill:#c41262}.st207{fill:#c41162}.st208{fill:#c31162}.st209{clip-path:url(#SVGID_8_)}.st210{fill:#32a071}.st210,.st211,.st212,.st213,.st214,.st215{fill-rule:evenodd;clip-rule:evenodd}.st211{fill:#31a171}.st212{fill:#31a271}.st213{fill:#30a271}.st214{fill:#30a371}.st215{fill:#2fa471}.st216{fill:#2fa571}.st216,.st217,.st218,.st219,.st220,.st221{fill-rule:evenodd;clip-rule:evenodd}.st217{fill:#2ea571}.st218{fill:#2ea671}.st219{fill:#2da771}.st220{fill:#2ca871}.st221{fill:#2ca971}.st222{fill:#2baa71}.st222,.st223,.st224,.st225,.st226,.st227{fill-rule:evenodd;clip-rule:evenodd}.st223{fill:#2bab71}.st224{fill:#2aab71}.st225{fill:#2aac71}.st226{fill:#2aad71}.st227{fill:#29ad71}.st228{fill:#29ae72}.st228,.st229,.st230,.st231,.st232,.st233{fill-rule:evenodd;clip-rule:evenodd}.st229{fill:#28af72}.st230{fill:#28b072}.st231{fill:#27b072}.st232{fill:#27b172}.st233{fill:#27b272}.st234{fill:#26b272}.st234,.st235,.st236,.st237,.st238,.st239{fill-rule:evenodd;clip-rule:evenodd}.st235{fill:#26b372}.st236{fill:#25b472}.st237{fill:#25b572}.st238{fill:#24b572}.st239{fill:#24b672}.st240{fill:#24b772}.st240,.st241,.st242,.st243,.st244,.st245{fill-rule:evenodd;clip-rule:evenodd}.st241{fill:#23b772}.st242{fill:#23b872}.st243{fill:#22b972}.st244{fill:#22ba72}.st245{fill:#21ba72}.st246{fill:#21bb72}.st246,.st247,.st248,.st249,.st250,.st251{fill-rule:evenodd;clip-rule:evenodd}.st247{fill:#21bb73}.st248{fill:#20bc73}.st249{fill:#20bd73}.st250{fill:#1fbe73}.st251{fill:#1fbf73}.st252{fill:#1ebf73}.st252,.st253,.st254,.st255,.st256,.st257{fill-rule:evenodd;clip-rule:evenodd}.st253{fill:#1ec073}.st254{fill:#1ec173}.st255{fill:#1dc173}.st256{fill:#1dc273}.st257{fill:#1cc373}.st258{fill:#1cc473}.st258,.st259,.st260,.st261,.st262,.st263{fill-rule:evenodd;clip-rule:evenodd}.st259{fill:#1bc473}.st260{fill:#1bc573}.st261{fill:#1bc673}.st262{fill:#1ac673}.st263{fill:#1ac773}.st264{fill:#19c873}.st264,.st265,.st266,.st267,.st268,.st269{fill-rule:evenodd;clip-rule:evenodd}.st265{fill:#19c874}.st266{fill:#19c974}.st267{fill:#18c974}.st268{fill:#18ca74}.st269{fill:#18cb74}.st270{fill:#17cb74}.st270,.st271,.st272,.st273,.st274,.st275{fill-rule:evenodd;clip-rule:evenodd}.st271{fill:#17cc74}.st272{fill:#16cd74}.st273{fill:#16ce74}.st274{fill:#15ce74}.st275{fill:#15cf74}.st276{fill:#15d074}.st276,.st277,.st278,.st279,.st280,.st281{fill-rule:evenodd;clip-rule:evenodd}.st277{fill:#14d074}.st278{fill:#14d174}.st279{fill:#13d274}.st280{fill:#13d374}.st281{fill:#12d374}.st282{fill:#12d474}.st282,.st283,.st284,.st285,.st286,.st287{fill-rule:evenodd;clip-rule:evenodd}.st283{fill:#11d574}.st284{fill:#11d674}.st285{fill:#10d674}.st286{fill:#10d774}.st287{fill:#10d874}.st288{fill:#0fd874}.st288,.st289,.st290,.st291,.st292,.st293{fill-rule:evenodd;clip-rule:evenodd}.st289{fill:#0fd974}.st290{fill:#0eda74}.st291{fill:#0edb74}.st292{fill:#0ddb75}.st293{fill:#0ddc75}.st294{fill:#0cdd75}.st294,.st295,.st296,.st297,.st298,.st299{fill-rule:evenodd;clip-rule:evenodd}.st295{fill:#0cde75}.st296{fill:#0bde75}.st297{fill:#0bdf75}.st298{fill:#0be075}.st299{fill:#0ae075}.st300{fill:#0ae175}.st300,.st301,.st302,.st303,.st304,.st305{fill-rule:evenodd;clip-rule:evenodd}.st301{fill:#09e275}.st302{fill:#09e375}.st303{fill:#08e375}.st304{fill:#08e475}.st305{fill:#07e575}.st306{fill:#07e675}.st306,.st307,.st308,.st309,.st310,.st311{fill-rule:evenodd;clip-rule:evenodd}.st307{fill:#06e675}.st308{fill:#06e775}.st309{fill:#06e875}.st310{fill:#05e875}.st311{fill:#05e975}.st312{fill:#04e975}.st312,.st313,.st314,.st315,.st316,.st317{fill-rule:evenodd;clip-rule:evenodd}.st313{fill:#04ea75}.st314{fill:#04eb75}.st315{fill:#03eb75}.st316{fill:#03ec76}.st317{fill:#02ec76}.st318{fill:#02ed76}.st318,.st319,.st320,.st321,.st322,.st323{fill-rule:evenodd;clip-rule:evenodd}.st319{fill:#02ee76}.st320{fill:#01ee76}.st321{fill:#01ef76}.st322{fill:#00ef76}.st323{fill:#00f076}.st324{fill:#fff}</style><g class="st0"><path class="st1" d="M132.6.8c2.4 0 4.3 1.9 4.3 4.2v30.2c0 2.3-1.9 4.2-4.3 4.2H5.1c-2.4 0-4.3-1.9-4.3-4.2V5C.8 2.7 2.7.8 5.1.8h127.5zm0-.8H5.1C2.3 0 0 2.3 0 5v30.2c0 2.8 2.3 5 5.1 5h127.5c2.8 0 5.1-2.3 5.1-5V5c0-2.7-2.3-5-5.1-5z"/><path class="st1" d="M69.5 21.9c-2.4 0-4.4 1.8-4.4 4.3s2 4.3 4.4 4.3c2.4 0 4.4-1.8 4.4-4.3s-2-4.3-4.4-4.3zm0 6.9c-1.3 0-2.4-1.1-2.4-2.6s1.1-2.6 2.4-2.6c1.3 0 2.5 1.1 2.5 2.6-.1 1.5-1.2 2.6-2.5 2.6zM60 21.9c-2.4 0-4.4 1.8-4.4 4.3s2 4.3 4.4 4.3c2.4 0 4.4-1.8 4.4-4.3-.1-2.5-2-4.3-4.4-4.3zm0 6.9c-1.3 0-2.5-1.1-2.5-2.6s1.1-2.6 2.5-2.6c1.3 0 2.4 1.1 2.4 2.6s-1.1 2.6-2.4 2.6zm-11.3-5.6V25h4.4c-.1 1-.5 1.8-1 2.3-.6.6-1.6 1.3-3.4 1.3-2.7 0-4.8-2.2-4.8-4.8 0-2.7 2.1-4.8 4.8-4.8 1.5 0 2.5.6 3.3 1.3l1.3-1.3c-1.1-1-2.6-1.8-4.6-1.8-3.7 0-6.8 3-6.8 6.7s3.1 6.7 6.8 6.7c2 0 3.5-.7 4.7-1.9 1.2-1.2 1.6-2.9 1.6-4.3 0-.4 0-.8-.1-1.1l-6.2-.1zm46.2 1.5c-.4-1-1.5-2.7-3.7-2.7s-4.1 1.7-4.1 4.3c0 2.4 1.8 4.3 4.3 4.3 2 0 3.1-1.2 3.6-1.9l-1.5-1c-.5.7-1.2 1.2-2.1 1.2-1 0-1.7-.4-2.1-1.3l5.8-2.4-.2-.5zM89 26.1c0-1.7 1.3-2.5 2.3-2.5.8 0 1.4.4 1.6.9L89 26.1zm-4.7 4.1h1.9V17.6h-1.9v12.6zm-3.1-7.3c-.5-.5-1.3-1-2.3-1-2.2 0-4.2 1.9-4.2 4.3s2 4.3 4.2 4.3c1 0 1.9-.5 2.3-1h.1v.6c0 1.6-.9 2.5-2.3 2.5-1.2 0-1.9-.8-2.2-1.5l-1.8.7c.5 1.1 1.7 2.5 3.8 2.5 2.2 0 4.1-1.3 4.1-4.5v-7.7h-1.8v.8h.1zM79 28.8c-1.3 0-2.4-1.1-2.4-2.6s1.1-2.6 2.4-2.6c1.3 0 2.3 1.1 2.3 2.6s-1 2.6-2.3 2.6zm24.8-11.2h-4.6v12.6h1.9v-4.8h2.7c2.1 0 4.2-1.5 4.2-3.9 0-2.3-2.1-3.9-4.2-3.9zm.1 6.1h-2.7v-4.3h2.7c1.4 0 2.2 1.2 2.2 2.2 0 .9-.8 2.1-2.2 2.1zm11.7-1.8c-1.4 0-2.8.6-3.4 1.9l1.7.7c.4-.7 1-.9 1.7-.9 1 0 2 .6 2 1.6v.1c-.3-.2-1.1-.5-2-.5-1.8 0-3.7 1-3.7 2.8 0 1.7 1.5 2.8 3.2 2.8 1.3 0 2-.6 2.4-1.2h.1v1h1.8v-4.8c.1-2.2-1.6-3.5-3.8-3.5zm-.2 6.9c-.6 0-1.5-.3-1.5-1.1 0-1 1.1-1.3 2-1.3.8 0 1.2.2 1.7.4-.1 1.2-1.1 2-2.2 2zm10.8-6.6l-2.2 5.5-2.3-5.5h-2.1l3.4 7.6-1.9 4.2h2l5.2-11.9h-2.1v.1zm-17.1 8h1.9V17.6h-1.9v12.6z"/><defs><path id="SVGID_1_" d="M10.6 7.6c-.3.3-.5.8-.5 1.4v22.3c0 .6.2 1.1.5 1.4l.1.1 12.6-12.5V20L10.6 7.6z"/></defs><clipPath id="SVGID_2_"><use xlink:href="#SVGID_1_" overflow="visible"/></clipPath><path transform="rotate(-63.435 18.267 11.26)" class="st2 st4" d="M18.2 2.7h.1v17.2h-.1z"/><path transform="rotate(-63.653 18.23 11.332)" class="st2 st4" d="M18.2 2.7h.1v17.2h-.1z"/><path transform="rotate(-63.628 18.195 11.403)" class="st2 st5" d="M18.1 2.8h.1V20h-.1z"/><path transform="rotate(-63.455 18.16 11.474)" class="st2 st5" d="M18.1 2.9h.1v17.2h-.1z"/><path transform="rotate(-63.609 18.123 11.545)" class="st2 st6" d="M18.1 3h.1v17.2h-.1z"/><path transform="rotate(-63.435 18.089 11.618)" class="st2 st6" d="M18 3h.1v17.2H18z"/><path transform="rotate(-63.173 18.053 11.688)" class="st2 st7" d="M18 3.1h.1v17.2H18z"/><path transform="rotate(-63.653 18.017 11.76)" class="st2 st7" d="M18 3.2h.1v17.2H18z"/><path transform="rotate(-63.442 17.98 11.83)" class="st2 st8" d="M17.9 3.2h.1v17.2h-.1z"/><path transform="rotate(-63.666 17.946 11.903)" class="st2 st8" d="M17.9 3.3h.1v17.2h-.1z"/><path transform="rotate(-63.673 17.91 11.974)" class="st2 st8" d="M17.9 3.4h.1v17.2h-.1z"/><path transform="rotate(-63.435 17.876 12.046)" class="st2 st9" d="M17.8 3.5h.1v17.2h-.1z"/><path transform="rotate(-63.863 17.84 12.118)" class="st2 st9" d="M17.8 3.5h.1v17.2h-.1z"/><path transform="rotate(-63.647 17.805 12.189)" class="st2 st10" d="M17.7 3.6h.1v17.2h-.1z"/><path transform="rotate(-63.435 17.77 12.26)" class="st2 st10" d="M17.7 3.7h.1v17.2h-.1z"/><path transform="rotate(-63.863 17.734 12.332)" class="st2 st11" d="M17.7 3.7h.1v17.2h-.1z"/><path transform="rotate(-63.435 17.698 12.404)" class="st2 st11" d="M17.6 3.8h.1V21h-.1z"/><path transform="rotate(-63.647 17.663 12.475)" class="st2 st12" d="M17.6 3.9h.1v17.2h-.1z"/><path transform="rotate(-63.653 17.627 12.547)" class="st2 st12" d="M17.6 4h.1v17.2h-.1z"/><path transform="rotate(-63.609 17.59 12.617)" class="st2 st13" d="M17.5 4h.1v17.2h-.1z"/><path transform="rotate(-63.863 17.556 12.69)" class="st2 st13" d="M17.5 4.1h.1v17.2h-.1z"/><path transform="rotate(-63.417 17.519 12.76)" class="st2 st13" d="M17.5 4.2h.1v17.2h-.1z"/><path transform="rotate(-63.455 17.485 12.832)" class="st2 st14" d="M17.4 4.2h.1v17.2h-.1z"/><path transform="rotate(-63.609 17.448 12.903)" class="st2 st14" d="M17.4 4.3h.1v17.2h-.1z"/><path transform="rotate(-63.435 17.414 12.975)" class="st2 st15" d="M17.4 4.4h.1v17.2h-.1z"/><path transform="rotate(-63.609 17.377 13.046)" class="st2 st15" d="M17.3 4.5h.1v17.2h-.1z"/><path transform="rotate(-63.647 17.341 13.118)" class="st2 st16" d="M17.3 4.5h.1v17.2h-.1z"/><path transform="rotate(-63.673 17.306 13.19)" class="st2 st16" d="M17.2 4.6h.1v17.2h-.1z"/><path transform="rotate(-63.673 17.272 13.26)" class="st2 st17" d="M17.2 4.7h.1v17.2h-.1z"/><path transform="rotate(-63.647 17.236 13.332)" class="st2 st17" d="M17.2 4.7h.1v17.2h-.1z"/><path transform="rotate(-63.435 17.2 13.405)" class="st2 st18" d="M17.1 4.8h.1V22h-.1z"/><path transform="rotate(-63.647 17.165 13.475)" class="st2 st18" d="M17.1 4.9h.1v17.2h-.1z"/><path transform="rotate(-63.435 17.13 13.547)" class="st2 st18" d="M17.1 5h.1v17.2h-.1z"/><path transform="rotate(-63.647 17.094 13.618)" class="st2 st19" d="M17 5h.1v17.2H17z"/><path transform="rotate(-63.673 17.057 13.69)" class="st2 st19" d="M17 5.1h.1v17.2H17z"/><path transform="rotate(-63.461 17.024 13.762)" class="st2 st20" d="M17 5.2h.1v17.2H17z"/><path transform="rotate(-63.647 16.986 13.832)" class="st2 st20" d="M16.9 5.2h.1v17.2h-.1z"/><path transform="rotate(-63.647 16.952 13.904)" class="st2 st21" d="M16.9 5.3h.1v17.2h-.1z"/><path transform="rotate(-63.609 16.915 13.976)" class="st2 st21" d="M16.9 5.4h.1v17.2h-.1z"/><path transform="rotate(-63.863 16.881 14.048)" class="st2 st22" d="M16.8 5.5h.1v17.2h-.1z"/><path transform="rotate(-63.647 16.846 14.118)" class="st2 st22" d="M16.8 5.5h.1v17.2h-.1z"/><path transform="rotate(-63.455 16.81 14.19)" class="st2 st23" d="M16.8 5.6h.1v17.2h-.1z"/><path transform="rotate(-63.609 16.773 14.261)" class="st2 st23" d="M16.7 5.7h.1v17.2h-.1z"/><path transform="rotate(-63.435 16.74 14.334)" class="st2 st23" d="M16.7 5.7h.1v17.2h-.1z"/><path transform="rotate(-63.391 16.704 14.405)" class="st2 st24" d="M16.6 5.8h.1V23h-.1z"/><path transform="rotate(-63.653 16.668 14.477)" class="st2 st24" d="M16.6 5.9h.1v17.2h-.1z"/><path transform="rotate(-63.417 16.63 14.547)" class="st2 st25" d="M16.6 6h.1v17.2h-.1z"/><path transform="rotate(-63.647 16.597 14.619)" class="st2 st25" d="M16.5 6h.1v17.2h-.1z"/><path transform="rotate(-63.609 16.56 14.69)" class="st2 st26" d="M16.5 6.1h.1v17.2h-.1z"/><path transform="rotate(-63.647 16.526 14.762)" class="st2 st26" d="M16.5 6.2h.1v17.2h-.1z"/><path transform="rotate(-63.647 16.49 14.833)" class="st2 st26" d="M16.4 6.2h.1v17.2h-.1z"/><path transform="rotate(-63.647 16.455 14.905)" class="st2 st26" d="M16.4 6.3h.1v17.2h-.1z"/><path transform="rotate(-63.442 16.418 14.977)" class="st2 st27" d="M16.4 6.4h.1v17.2h-.1z"/><path transform="rotate(-63.666 16.383 15.049)" class="st2 st27" d="M16.3 6.5h.1v17.2h-.1z"/><path transform="rotate(-63.673 16.347 15.119)" class="st2 st27" d="M16.3 6.5h.1v17.2h-.1z"/><path transform="rotate(-63.435 16.313 15.191)" class="st2 st28" d="M16.3 6.6h.1v17.2h-.1z"/><path transform="rotate(-63.653 16.276 15.263)" class="st2 st28" d="M16.2 6.7h.1v17.2h-.1z"/><path transform="rotate(-63.435 16.242 15.334)" class="st2 st28" d="M16.2 6.7h.1v17.2h-.1z"/><path transform="rotate(-63.647 16.206 15.405)" class="st2 st29" d="M16.1 6.8h.1V24h-.1z"/><path transform="rotate(-63.609 16.169 15.476)" class="st2 st29" d="M16.1 6.9h.1v17.2h-.1z"/><path transform="rotate(-63.455 16.135 15.548)" class="st2 st29" d="M16.1 7h.1v17.2h-.1z"/><path transform="rotate(-63.609 16.098 15.62)" class="st2 st30" d="M16 7h.1v17.2H16z"/><path transform="rotate(-63.442 16.063 15.691)" class="st2 st30" d="M16 7.1h.1v17.2H16z"/><path transform="rotate(-63.391 16.029 15.763)" class="st2 st30" d="M16 7.2h.1v17.2H16z"/><path transform="rotate(-63.647 15.993 15.834)" class="st2 st31" d="M15.9 7.2h.1v17.2h-.1z"/><path transform="rotate(-63.609 15.956 15.905)" class="st2 st31" d="M15.9 7.3h.1v17.2h-.1z"/><path transform="rotate(-63.455 15.922 15.977)" class="st2 st31" d="M15.9 7.4h.1v17.2h-.1z"/><path transform="rotate(-63.647 15.886 16.049)" class="st2 st31" d="M15.8 7.5h.1v17.2h-.1z"/><path transform="rotate(-63.647 15.85 16.12)" class="st2 st32" d="M15.8 7.5h.1v17.2h-.1z"/><path transform="rotate(-63.647 15.815 16.192)" class="st2 st32" d="M15.8 7.6h.1v17.2h-.1z"/><path transform="rotate(-63.647 15.778 16.262)" class="st2 st32" d="M15.7 7.7h.1v17.2h-.1z"/><path transform="rotate(-63.218 15.745 16.336)" class="st2 st33" d="M15.7 7.7h.1v17.2h-.1z"/><path transform="rotate(-63.461 15.71 16.407)" class="st2 st33" d="M15.6 7.8h.1V25h-.1z"/><path transform="rotate(-63.673 15.672 16.477)" class="st2 st33" d="M15.6 7.9h.1v17.2h-.1z"/><path transform="rotate(-63.647 15.638 16.549)" class="st2 st34" d="M15.6 8h.1v17.2h-.1z"/><path transform="rotate(-63.863 15.603 16.621)" class="st2 st34" d="M15.5 8h.1v17.2h-.1z"/><path transform="rotate(-63.647 15.567 16.692)" class="st2 st34" d="M15.5 8.1h.1v17.2h-.1z"/><path transform="rotate(-63.647 15.531 16.764)" class="st2 st35" d="M15.5 8.2h.1v17.2h-.1z"/><path transform="rotate(-63.391 15.496 16.835)" class="st2 st35" d="M15.4 8.3h.1v17.2h-.1z"/><path transform="rotate(-63.461 15.46 16.907)" class="st2 st35" d="M15.4 8.3h.1v17.2h-.1z"/><path transform="rotate(-63.84 15.424 16.978)" class="st2 st36" d="M15.4 8.4h.1v17.2h-.1z"/><path transform="rotate(-63.218 15.39 17.05)" class="st2 st36" d="M15.3 8.5h.1v17.2h-.1z"/><path transform="rotate(-63.609 15.352 17.12)" class="st2 st36" d="M15.3 8.5h.1v17.2h-.1z"/><path transform="rotate(-63.863 15.318 17.194)" class="st2 st37" d="M15.3 8.6h.1v17.2h-.1z"/><path transform="rotate(-63.429 15.283 17.264)" class="st2 st37" d="M15.2 8.7h.1v17.2h-.1z"/><path transform="rotate(-63.647 15.247 17.335)" class="st2 st37" d="M15.2 8.7h.1v17.2h-.1z"/><path transform="rotate(-63.609 15.21 17.406)" class="st2 st37" d="M15.2 8.8h.1V26h-.1z"/><path transform="rotate(-63.243 15.175 17.48)" class="st2 st38" d="M15.1 8.9h.1v17.2h-.1z"/><path transform="rotate(-63.82 15.14 17.55)" class="st2 st38" d="M15.1 9h.1v17.2h-.1z"/><path transform="rotate(-63.435 15.105 17.622)" class="st2 st38" d="M15 9h.1v17.2H15z"/><path transform="rotate(-63.435 15.07 17.693)" class="st2 st39" d="M15 9.1h.1v17.2H15z"/><path transform="rotate(-63.883 15.034 17.765)" class="st2 st39" d="M15 9.2h.1v17.2H15z"/><path transform="rotate(-63.455 14.998 17.836)" class="st2 st39" d="M14.9 9.3h.1v17.2h-.1z"/><path transform="rotate(-63.647 14.963 17.907)" class="st2 st40" d="M14.9 9.3h.1v17.2h-.1z"/><path transform="rotate(-63.647 14.927 17.979)" class="st2 st40" d="M14.9 9.4h.1v17.2h-.1z"/><path transform="rotate(-63.435 14.892 18.05)" class="st2 st40" d="M14.8 9.5h.1v17.2h-.1z"/><path transform="rotate(-63.653 14.855 18.122)" class="st2 st41" d="M14.8 9.5h.1v17.2h-.1z"/><path transform="rotate(-63.429 14.82 18.193)" class="st2 st41" d="M14.8 9.6h.1v17.2h-.1z"/><path transform="rotate(-63.455 14.785 18.264)" class="st2 st41" d="M14.7 9.7h.1v17.2h-.1z"/><path transform="rotate(-63.845 14.75 18.337)" class="st2 st42" d="M14.7 9.8h.1V27h-.1z"/><path transform="rotate(-63.435 14.714 18.408)" class="st2 st42" d="M14.7 9.8h.1V27h-.1z"/><path transform="rotate(-63.602 14.679 18.48)" class="st2 st42" d="M14.6 9.9h.1v17.2h-.1z"/><path transform="rotate(-63.647 14.643 18.551)" class="st2 st42" d="M14.6 10h.1v17.2h-.1z"/><path transform="rotate(-63.391 14.608 18.622)" class="st2 st43" d="M14.5 10h.1v17.2h-.1z"/><path transform="rotate(-63.647 14.572 18.694)" class="st2 st43" d="M14.5 10.1h.1v17.2h-.1z"/><path transform="rotate(-63.455 14.537 18.765)" class="st2 st43" d="M14.5 10.2h.1v17.2h-.1z"/><path transform="rotate(-63.243 14.502 18.838)" class="st2 st44" d="M14.4 10.3h.1v17.2h-.1z"/><path transform="rotate(-63.609 14.465 18.908)" class="st2 st44" d="M14.4 10.3h.1v17.2h-.1z"/><path transform="rotate(-63.435 14.43 18.98)" class="st2 st44" d="M14.4 10.4h.1v17.2h-.1z"/><path transform="rotate(-63.647 14.395 19.051)" class="st2 st45" d="M14.3 10.5h.1v17.2h-.1z"/><path transform="rotate(-63.647 14.359 19.122)" class="st2 st45" d="M14.3 10.5h.1v17.2h-.1z"/><path transform="rotate(-63.673 14.322 19.193)" class="st2 st45" d="M14.3 10.6h.1v17.2h-.1z"/><path transform="rotate(-63.673 14.287 19.265)" class="st2 st45" d="M14.2 10.7h.1v17.2h-.1z"/><path transform="rotate(-63.442 14.25 19.337)" class="st2 st46" d="M14.2 10.8h.1V28h-.1z"/><path transform="rotate(-63.647 14.215 19.408)" class="st2 st46" d="M14.2 10.8h.1V28h-.1z"/><path transform="rotate(-63.647 14.182 19.48)" class="st2 st46" d="M14.1 10.9h.1v17.2h-.1z"/><path transform="rotate(-63.218 14.146 19.553)" class="st2 st46" d="M14.1 11h.1v17.2h-.1z"/><path transform="rotate(-63.673 14.11 19.622)" class="st2 st46" d="M14.1 11h.1v17.2h-.1z"/><path transform="rotate(-63.621 14.075 19.694)" class="st2 st47" d="M14 11.1h.1v17.2H14z"/><path transform="rotate(-63.435 14.04 19.767)" class="st2 st47" d="M14 11.2h.1v17.2H14z"/><path transform="rotate(-63.82 14.004 19.838)" class="st2 st47" d="M13.9 11.3h.1v17.2h-.1z"/><path transform="rotate(-63.218 13.969 19.91)" class="st2 st47" d="M13.9 11.3h.1v17.2h-.1z"/><path transform="rotate(-63.609 13.931 19.98)" class="st2 st47" d="M13.9 11.4h.1v17.2h-.1z"/><path transform="rotate(-63.863 13.897 20.053)" class="st2 st48" d="M13.8 11.5h.1v17.2h-.1z"/><path transform="rotate(-63.455 13.862 20.123)" class="st2 st48" d="M13.8 11.5h.1v17.2h-.1z"/><path transform="rotate(-63.673 13.825 20.194)" class="st2 st48" d="M13.8 11.6h.1v17.2h-.1z"/><path transform="rotate(-63.647 13.79 20.266)" class="st2 st48" d="M13.7 11.7h.1v17.2h-.1z"/><path transform="rotate(-63.435 13.755 20.339)" class="st2 st48" d="M13.7 11.8h.1V29h-.1z"/><path transform="rotate(-63.863 13.72 20.41)" class="st2 st49" d="M13.7 11.8h.1V29h-.1z"/><path transform="rotate(-63.243 13.683 20.482)" class="st2 st49" d="M13.6 11.9h.1v17.2h-.1z"/><path transform="rotate(-63.647 13.649 20.552)" class="st2 st49" d="M13.6 12h.1v17.2h-.1z"/><path transform="rotate(-63.878 13.613 20.623)" class="st2 st49" d="M13.6 12h.1v17.2h-.1z"/><path transform="rotate(-63.243 13.576 20.696)" class="st2 st49" d="M13.5 12.1h.1v17.2h-.1z"/><path transform="rotate(-63.653 13.541 20.767)" class="st2 st50" d="M13.5 12.2h.1v17.2h-.1z"/><path transform="rotate(-63.647 13.506 20.838)" class="st2 st50" d="M13.4 12.3h.1v17.2h-.1z"/><path transform="rotate(-63.435 13.47 20.91)" class="st2 st50" d="M13.4 12.3h.1v17.2h-.1z"/><path transform="rotate(-63.673 13.434 20.98)" class="st2 st50" d="M13.4 12.4h.1v17.2h-.1z"/><path transform="rotate(-63.455 13.4 21.053)" class="st2 st50" d="M13.3 12.5h.1v17.2h-.1z"/><path transform="rotate(-63.647 13.364 21.124)" class="st2 st51" d="M13.3 12.5h.1v17.2h-.1z"/><path transform="rotate(-63.609 13.327 21.195)" class="st2 st51" d="M13.3 12.6h.1v17.2h-.1z"/><path transform="rotate(-63.442 13.292 21.266)" class="st2 st51" d="M13.2 12.7h.1v17.2h-.1z"/><path transform="rotate(-63.609 13.256 21.338)" class="st2 st51" d="M13.2 12.8h.1V30h-.1z"/><path transform="rotate(-63.435 13.222 21.411)" class="st2 st52" d="M13.2 12.8h.1V30h-.1z"/><path transform="rotate(-63.417 13.185 21.481)" class="st2 st52" d="M13.1 12.9h.1v17.2h-.1z"/><path transform="rotate(-63.673 13.15 21.552)" class="st2 st52" d="M13.1 13h.1v17.2h-.1z"/><path transform="rotate(-63.602 13.116 21.625)" class="st2 st52" d="M13.1 13h.1v17.2h-.1z"/><path transform="rotate(-63.647 13.08 21.696)" class="st2 st52" d="M13 13.1h.1v17.2H13z"/><path transform="rotate(-63.647 13.045 21.767)" class="st2 st53" d="M13 13.2h.1v17.2H13z"/><path transform="rotate(-63.435 13.01 21.84)" class="st2 st53" d="M12.9 13.3h.1v17.2h-.1z"/><path transform="rotate(-63.647 12.974 21.91)" class="st2 st53" d="M12.9 13.3h.1v17.2h-.1z"/><path transform="rotate(-63.673 12.938 21.982)" class="st2 st53" d="M12.9 13.4h.1v17.2h-.1z"/><path transform="rotate(-63.455 12.902 22.054)" class="st2 st53" d="M12.8 13.5h.1v17.2h-.1z"/><path transform="rotate(-63.647 12.867 22.125)" class="st2 st54" d="M12.8 13.5h.1v17.2h-.1z"/><path transform="rotate(-63.647 12.832 22.197)" class="st2 st54" d="M12.8 13.6h.1v17.2h-.1z"/><path transform="rotate(-63.647 12.796 22.268)" class="st2 st54" d="M12.7 13.7h.1v17.2h-.1z"/><path transform="rotate(-63.647 12.76 22.34)" class="st2 st54" d="M12.7 13.8h.1V31h-.1z"/><path transform="rotate(-63.435 12.725 22.411)" class="st2 st54" d="M12.7 13.8h.1V31h-.1z"/><path transform="rotate(-63.673 12.688 22.48)" class="st2 st55" d="M12.6 13.9h.1v17.2h-.1z"/><path transform="rotate(-63.609 12.652 22.553)" class="st2 st55" d="M12.6 14h.1v17.2h-.1z"/><path transform="rotate(-63.435 12.619 22.626)" class="st2 st55" d="M12.6 14h.1v17.2h-.1z"/><path transform="rotate(-63.609 12.583 22.697)" class="st2 st55" d="M12.5 14.1h.1v17.2h-.1z"/><path transform="rotate(-63.435 12.547 22.77)" class="st2 st55" d="M12.5 14.2h.1v17.2h-.1z"/><path transform="rotate(-63.409 12.511 22.84)" class="st2 st56" d="M12.5 14.3h.1v17.2h-.1z"/><path transform="rotate(-63.673 12.475 22.91)" class="st2 st56" d="M12.4 14.3h.1v17.2h-.1z"/><path transform="rotate(-63.647 12.44 22.983)" class="st2 st56" d="M12.4 14.4h.1v17.2h-.1z"/><path transform="rotate(-63.647 12.405 23.054)" class="st2 st56" d="M12.3 14.5h.1v17.2h-.1z"/><path transform="rotate(-63.435 12.37 23.127)" class="st2 st56" d="M12.3 14.5h.1v17.2h-.1z"/><path transform="rotate(-63.442 12.333 23.196)" class="st2 st57" d="M12.3 14.6h.1v17.2h-.1z"/><path transform="rotate(-63.435 12.299 23.27)" class="st2 st57" d="M12.2 14.7h.1v17.2h-.1z"/><path transform="rotate(-63.673 12.262 23.34)" class="st2 st57" d="M12.2 14.8h.1V32h-.1z"/><path transform="rotate(-63.673 12.226 23.41)" class="st2 st57" d="M12.2 14.8h.1V32h-.1z"/><path transform="rotate(-63.647 12.192 23.483)" class="st2 st57" d="M12.1 14.9h.1v17.2h-.1z"/><path transform="rotate(-63.863 12.157 23.556)" class="st2 st58" d="M12.1 15h.1v17.2h-.1z"/><path transform="rotate(-63.435 12.121 23.627)" class="st2 st58" d="M12.1 15h.1v17.2h-.1z"/><path transform="rotate(-63.647 12.086 23.698)" class="st2 st58" d="M12 15.1h.1v17.2H12z"/><path transform="rotate(-63.609 12.049 23.768)" class="st2 st58" d="M12 15.2h.1v17.2H12z"/><path transform="rotate(-63.243 12.013 23.841)" class="st2 st58" d="M12 15.3h.1v17.2H12z"/><path transform="rotate(-63.417 11.98 23.913)" class="st2 st58" d="M11.9 15.3h.1v17.2h-.1z"/><path transform="rotate(-63.647 11.944 23.984)" class="st2 st58" d="M11.9 15.4h.1v17.2h-.1z"/><path transform="rotate(-63.602 11.908 24.056)" class="st2 st58" d="M11.8 15.5h.1v17.2h-.1z"/><path transform="rotate(-63.863 11.873 24.128)" class="st2 st58" d="M11.8 15.5h.1v17.2h-.1z"/><path transform="rotate(-63.417 11.835 24.197)" class="st2 st58" d="M11.8 15.6h.1v17.2h-.1z"/><path transform="rotate(-63.455 11.801 24.27)" class="st2 st59" d="M11.7 15.7h.1v17.2h-.1z"/><path transform="rotate(-63.609 11.764 24.34)" class="st2 st59" d="M11.7 15.8h.1V33h-.1z"/><path transform="rotate(-63.442 11.729 24.412)" class="st2 st59" d="M11.7 15.8h.1V33h-.1z"/><path transform="rotate(-63.609 11.693 24.483)" class="st2 st59" d="M11.6 15.9h.1v17.2h-.1z"/><path transform="rotate(-63.435 11.659 24.556)" class="st2 st59" d="M11.6 16h.1v17.2h-.1z"/><path transform="rotate(-63.243 11.622 24.628)" class="st2 st59" d="M11.6 16h.1v17.2h-.1z"/><path transform="rotate(-63.673 11.587 24.697)" class="st2 st59" d="M11.5 16.1h.1v17.2h-.1z"/><path transform="rotate(-63.429 11.553 24.77)" class="st2 st59" d="M11.5 16.2h.1v17.2h-.1z"/><path transform="rotate(-63.647 11.517 24.841)" class="st2 st59" d="M11.5 16.3h.1v17.2h-.1z"/><path transform="rotate(-63.647 11.482 24.913)" class="st2 st59" d="M11.4 16.3h.1v17.2h-.1z"/><path transform="rotate(-63.435 11.446 24.985)" class="st2 st59" d="M11.4 16.4h.1v17.2h-.1z"/><path transform="rotate(-63.647 11.41 25.056)" class="st2 st59" d="M11.4 16.5h.1v17.2h-.1z"/><path transform="rotate(-63.461 11.375 25.128)" class="st2 st59" d="M11.3 16.5h.1v17.2h-.1z"/><path transform="rotate(-63.455 11.34 25.199)" class="st2 st59" d="M11.3 16.6h.1v17.2h-.1z"/><path transform="rotate(-63.435 11.304 25.271)" class="st2 st59" d="M11.2 16.7h.1v17.2h-.1z"/><path transform="rotate(-63.435 11.268 25.342)" class="st2 st60" d="M11.2 16.8h.1V34h-.1z"/><path transform="rotate(-63.609 11.231 25.412)" class="st2 st60" d="M11.2 16.8h.1V34h-.1z"/><path transform="rotate(-63.647 11.198 25.485)" class="st2 st60" d="M11.1 16.9h.1v17.2h-.1z"/><path transform="rotate(-63.391 11.162 25.556)" class="st2 st60" d="M11.1 17h.1v17.2h-.1z"/><path transform="rotate(-63.647 11.127 25.628)" class="st2 st60" d="M11.1 17h.1v17.2h-.1z"/><path transform="rotate(-63.609 11.09 25.698)" class="st2 st60" d="M11 17.1h.1v17.2H11z"/><path transform="rotate(-63.435 11.055 25.772)" class="st2 st60" d="M11 17.2h.1v17.2H11z"/><path transform="rotate(-63.609 11.02 25.842)" class="st2 st60" d="M11 17.3h.1v17.2H11z"/><path transform="rotate(-63.435 10.984 25.914)" class="st2 st60" d="M10.9 17.3h.1v17.2h-.1z"/><path transform="rotate(-63.647 10.947 25.983)" class="st2 st60" d="M10.9 17.4h.1v17.2h-.1z"/><path transform="rotate(-63.863 10.913 26.058)" class="st2 st60" d="M10.9 17.5h.1v17.2h-.1z"/><path transform="rotate(-63.435 10.877 26.129)" class="st2 st60" d="M10.8 17.5h.1v17.2h-.1z"/><path transform="rotate(-63.858 10.842 26.2)" class="st2 st60" d="M10.8 17.6h.1v17.2h-.1z"/><path transform="rotate(-63.647 10.807 26.27)" class="st2 st60" d="M10.7 17.7h.1v17.2h-.1z"/><path transform="rotate(-63.442 10.77 26.342)" class="st2 st60" d="M10.7 17.8h.1V35h-.1z"/><path transform="rotate(-63.653 10.734 26.415)" class="st2 st60" d="M10.7 17.8h.1V35h-.1z"/><path transform="rotate(-63.455 10.7 26.486)" class="st2 st61" d="M10.6 17.9h.1v17.2h-.1z"/><path transform="rotate(-63.673 10.663 26.556)" class="st2 st61" d="M10.6 18h.1v17.2h-.1z"/><path transform="rotate(-63.82 10.629 26.629)" class="st2 st61" d="M10.6 18h.1v17.2h-.1z"/><path transform="rotate(-63.218 10.592 26.7)" class="st2 st61" d="M10.5 18.1h.1v17.2h-.1z"/><path transform="rotate(-63.609 10.557 26.771)" class="st2 st61" d="M10.5 18.2h.1v17.2h-.1z"/><path transform="rotate(-63.647 10.523 26.843)" class="st2 st61" d="M10.5 18.3h.1v17.2h-.1z"/><path transform="rotate(-63.609 10.485 26.913)" class="st2 st61" d="M10.4 18.3h.1v17.2h-.1z"/><path transform="rotate(-63.883 10.451 26.986)" class="st2 st61" d="M10.4 18.4h.1v17.2h-.1z"/><path transform="rotate(-63.634 10.415 27.056)" class="st2 st61" d="M10.4 18.5h.1v17.2h-.1z"/><path transform="rotate(-63.647 10.38 27.128)" class="st2 st61" d="M10.3 18.5h.1v17.2h-.1z"/><path transform="rotate(-63.814 10.345 27.2)" class="st2 st61" d="M10.3 18.6h.1v17.2h-.1z"/><path transform="rotate(-63.435 10.31 27.273)" class="st2 st61" d="M10.2 18.7h.1v17.2h-.1z"/><path transform="rotate(-63.82 10.273 27.344)" class="st2 st61" d="M10.2 18.8h.1V36h-.1z"/><path transform="rotate(-63.673 10.237 27.414)" class="st2 st61" d="M10.2 18.8h.1V36h-.1z"/><path transform="rotate(-63.455 10.203 27.486)" class="st2 st61" d="M10.1 18.9h.1v17.2h-.1z"/><path transform="rotate(-63.653 10.166 27.558)" class="st2 st62" d="M10.1 19h.1v17.2h-.1z"/><path transform="rotate(-63.435 10.132 27.63)" class="st2 st62" d="M10.1 19h.1v17.2h-.1z"/><path transform="rotate(-63.647 10.097 27.7)" class="st2 st62" d="M10 19.1h.1v17.2H10z"/><path transform="rotate(-63.435 10.06 27.773)" class="st2 st62" d="M10 19.2h.1v17.2H10z"/><path transform="rotate(-63.435 10.025 27.844)" class="st2 st62" d="M10 19.3h.1v17.2H10z"/><path transform="rotate(-63.883 9.99 27.915)" class="st2 st62" d="M9.9 19.3h.1v17.2h-.1z"/><path transform="rotate(-63.647 9.954 27.987)" class="st2 st62" d="M9.9 19.4h.1v17.2h-.1z"/><path transform="rotate(-63.576 9.066 29.773)" class="st2 st62" d="M7.1 21.2H11v17.2H7.1z"/><defs><path id="SVGID_3_" d="M27.6 24.5l-4.2-4.2V20l4.2-4.2.1.1 5 2.8c1.4.8 1.4 2.1 0 2.9l-5.1 2.9z"/></defs><clipPath id="SVGID_4_"><use xlink:href="#SVGID_3_" overflow="visible"/></clipPath><path class="st63 st65" d="M33.9 15.8h.2v8.6h-.2z"/><path class="st63 st65" d="M33.8 15.8h.2v8.6h-.2z"/><path class="st63 st65" d="M33.7 15.8h.2v8.6h-.2z"/><path class="st63 st66" d="M33.6 15.8h.2v8.6h-.2zm-.2 0h.2v8.6h-.2z"/><path class="st63 st66" d="M33.3 15.8h.2v8.6h-.2z"/><path class="st63 st67" d="M33.2 15.8h.2v8.6h-.2z"/><path class="st63 st67" d="M33.1 15.8h.2v8.6h-.2z"/><path class="st63 st67" d="M33 15.8h.2v8.6H33z"/><path class="st63 st68" d="M32.8 15.8h.2v8.6h-.2z"/><path class="st63 st68" d="M32.7 15.8h.2v8.6h-.2z"/><path class="st63 st68" d="M32.6 15.8h.2v8.6h-.2z"/><path class="st63 st69" d="M32.5 15.8h.2v8.6h-.2z"/><path class="st63 st69" d="M32.4 15.8h.2v8.6h-.2z"/><path class="st63 st69" d="M32.3 15.8h.2v8.6h-.2z"/><path class="st63 st70" d="M32.1 15.8h.2v8.6h-.2z"/><path class="st63 st70" d="M32 15.8h.2v8.6H32z"/><path class="st63 st70" d="M31.9 15.8h.2v8.6h-.2z"/><path class="st63 st71" d="M31.8 15.8h.2v8.6h-.2z"/><path class="st63 st71" d="M31.7 15.8h.2v8.6h-.2zm-.2 0h.2v8.6h-.2z"/><path class="st63 st71" d="M31.4 15.8h.2v8.6h-.2z"/><path class="st63 st72" d="M31.3 15.8h.2v8.6h-.2z"/><path class="st63 st72" d="M31.2 15.8h.2v8.6h-.2z"/><path class="st63 st72" d="M31.1 15.8h.2v8.6h-.2zm-.2 0h.2v8.6h-.2z"/><path class="st63 st73" d="M30.8 15.8h.2v8.6h-.2z"/><path class="st63 st73" d="M30.7 15.8h.2v8.6h-.2z"/><path class="st63 st73" d="M30.6 15.8h.2v8.6h-.2z"/><path class="st63 st73" d="M30.5 15.8h.2v8.6h-.2z"/><path class="st63 st74" d="M30.3 15.8h.2v8.6h-.2z"/><path class="st63 st74" d="M30.2 15.8h.2v8.6h-.2z"/><path class="st63 st74" d="M30.1 15.8h.2v8.6h-.2z"/><path class="st63 st74" d="M30 15.8h.2v8.6H30z"/><path class="st63 st75" d="M29.9 15.8h.2v8.6h-.2zm-.2 0h.2v8.6h-.2z"/><path class="st63 st75" d="M29.6 15.8h.2v8.6h-.2z"/><path class="st63 st75" d="M29.5 15.8h.2v8.6h-.2z"/><path class="st63 st76" d="M29.4 15.8h.2v8.6h-.2z"/><path class="st63 st76" d="M29.3 15.8h.2v8.6h-.2zm-.2 0h.2v8.6h-.2z"/><path class="st63 st76" d="M29 15.8h.2v8.6H29z"/><path class="st63 st77" d="M28.9 15.8h.2v8.6h-.2z"/><path class="st63 st77" d="M28.8 15.8h.2v8.6h-.2z"/><path class="st63 st77" d="M28.7 15.8h.2v8.6h-.2zm-.2 0h.2v8.6h-.2z"/><path class="st63 st78" d="M28.4 15.8h.2v8.6h-.2z"/><path class="st63 st78" d="M28.3 15.8h.2v8.6h-.2z"/><path class="st63 st78" d="M28.2 15.8h.2v8.6h-.2z"/><path class="st63 st79" d="M28.1 15.8h.2v8.6h-.2zm-.2 0h.2v8.6h-.2z"/><path class="st63 st79" d="M27.8 15.8h.2v8.6h-.2z"/><path class="st63 st79" d="M27.7 15.8h.2v8.6h-.2z"/><path class="st63 st80" d="M27.6 15.8h.2v8.6h-.2z"/><path class="st63 st80" d="M27.5 15.8h.2v8.6h-.2z"/><path class="st63 st80" d="M27.4 15.8h.2v8.6h-.2zm-.2 0h.2v8.6h-.2z"/><path class="st63 st81" d="M27.1 15.8h.2v8.6h-.2z"/><path class="st63 st81" d="M27 15.8h.2v8.6H27z"/><path class="st63 st81" d="M26.9 15.8h.2v8.6h-.2z"/><path class="st63 st81" d="M26.8 15.8h.2v8.6h-.2z"/><path class="st63 st82" d="M26.6 15.8h.2v8.6h-.2z"/><path class="st63 st82" d="M26.5 15.8h.2v8.6h-.2z"/><path class="st63 st82" d="M26.4 15.8h.2v8.6h-.2z"/><path class="st63 st82" d="M26.3 15.8h.2v8.6h-.2z"/><path class="st63 st83" d="M26.2 15.8h.2v8.6h-.2zm-.2 0h.2v8.6H26z"/><path class="st63 st83" d="M25.9 15.8h.2v8.6h-.2z"/><path class="st63 st83" d="M25.8 15.8h.2v8.6h-.2z"/><path class="st63 st84" d="M25.7 15.8h.2v8.6h-.2z"/><path class="st63 st84" d="M25.6 15.8h.2v8.6h-.2zm-.2 0h.2v8.6h-.2z"/><path class="st63 st84" d="M25.3 15.8h.2v8.6h-.2z"/><path class="st63 st85" d="M25.2 15.8h.2v8.6h-.2z"/><path class="st63 st85" d="M25.1 15.8h.2v8.6h-.2z"/><path class="st63 st85" d="M25 15.8h.2v8.6H25zm-.2 0h.2v8.6h-.2z"/><path class="st63 st86" d="M24.7 15.8h.2v8.6h-.2z"/><path class="st63 st86" d="M24.6 15.8h.2v8.6h-.2z"/><path class="st63 st86" d="M24.5 15.8h.2v8.6h-.2z"/><path class="st63 st86" d="M24.4 15.8h.2v8.6h-.2z"/><path class="st63 st87" d="M24.2 15.8h.2v8.6h-.2z"/><path class="st63 st87" d="M24.1 15.8h.2v8.6h-.2z"/><path class="st63 st87" d="M24 15.8h.2v8.6H24z"/><path class="st63 st87" d="M23.9 15.8h.2v8.6h-.2z"/><path class="st63 st88" d="M23.8 15.8h.2v8.6h-.2zm-.2 0h.2v8.6h-.2z"/><path class="st63 st88" d="M23.5 15.8h.2v8.6h-.2z"/><path class="st63 st88" d="M23.4 15.8h.2v8.6h-.2z"/><path class="st63 st89" d="M23.4 15.8h.1v8.6h-.1z"/><defs><path id="SVGID_5_" d="M27.7 24.4l-4.3-4.3-12.8 12.6c.5.5 1.2.6 2.1.1l15-8.4z"/></defs><clipPath id="SVGID_6_"><use xlink:href="#SVGID_5_" overflow="visible"/></clipPath><path transform="rotate(-38.242 25.587 22.232)" class="st90 st91" d="M25.3 19.2h.6v6h-.6z"/><path transform="rotate(-38.445 25.353 22.414)" class="st90 st91" d="M25.3 19.4h.1v6h-.1z"/><path transform="rotate(-38.794 25.305 22.45)" class="st90 st91" d="M25.3 19.4h.1v6h-.1z"/><path transform="rotate(-38.289 25.258 22.487)" class="st90 st92" d="M25.2 19.5h.1v6h-.1z"/><path transform="rotate(-38.085 25.215 22.525)" class="st90 st93" d="M25.2 19.5h.1v6h-.1z"/><path transform="rotate(-38.482 25.171 22.56)" class="st90 st94" d="M25.1 19.6h.1v6h-.1z"/><path transform="rotate(-38.289 25.12 22.596)" class="st90 st94" d="M25.1 19.6h.1v6h-.1z"/><path transform="rotate(-38.445 25.075 22.632)" class="st90 st95" d="M25 19.6h.1v6H25z"/><path transform="rotate(-38.048 25.027 22.669)" class="st90 st95" d="M25 19.7h.1v6H25z"/><path transform="rotate(-37.932 24.984 22.707)" class="st90 st95" d="M24.9 19.7h.1v6h-.1z"/><path transform="rotate(-37.733 24.935 22.741)" class="st90 st96" d="M24.9 19.7h.1v6h-.1z"/><path transform="rotate(-38.242 24.893 22.779)" class="st90 st97" d="M24.8 19.8h.1v6h-.1z"/><path transform="rotate(-38.233 24.844 22.813)" class="st90 st97" d="M24.8 19.8h.1v6h-.1z"/><path transform="rotate(-37.768 24.8 22.851)" class="st90 st98" d="M24.8 19.8h.1v6h-.1z"/><path transform="rotate(-38.289 24.75 22.887)" class="st90 st98" d="M24.7 19.9h.1v6h-.1z"/><path transform="rotate(-38.289 24.703 22.923)" class="st90 st99" d="M24.7 19.9h.1v6h-.1z"/><path transform="rotate(-38.289 24.657 22.96)" class="st90 st100" d="M24.6 20h.1v6h-.1z"/><path transform="rotate(-38.242 24.615 22.997)" class="st90 st100" d="M24.6 20h.1v6h-.1z"/><path transform="rotate(-38.445 24.567 23.032)" class="st90 st100" d="M24.5 20h.1v6h-.1z"/><path transform="rotate(-38.242 24.522 23.07)" class="st90 st100" d="M24.5 20.1h.1v6h-.1z"/><path transform="rotate(-37.786 24.473 23.106)" class="st90 st101" d="M24.4 20.1h.1v6h-.1z"/><path transform="rotate(-37.733 24.427 23.141)" class="st90 st101" d="M24.4 20.1h.1v6h-.1z"/><path transform="rotate(-38.289 24.38 23.178)" class="st90 st102" d="M24.3 20.2h.1v6h-.1z"/><path transform="rotate(-38.289 24.333 23.214)" class="st90 st102" d="M24.3 20.2h.1v6h-.1z"/><path transform="rotate(-38.279 24.29 23.251)" class="st90 st103" d="M24.2 20.2h.1v6h-.1z"/><path transform="rotate(-38.085 24.244 23.29)" class="st90 st103" d="M24.2 20.3h.1v6h-.1z"/><path transform="rotate(-38.289 24.195 23.324)" class="st90 st103" d="M24.2 20.3h.1v6h-.1z"/><path transform="rotate(-38.434 24.153 23.362)" class="st90 st103" d="M24.1 20.4h.1v6h-.1z"/><path transform="rotate(-38.289 24.102 23.397)" class="st90 st104" d="M24.1 20.4h.1v6h-.1z"/><path transform="rotate(-38.242 24.06 23.434)" class="st90 st104" d="M24 20.4h.1v6H24z"/><path transform="rotate(-38.242 24.014 23.47)" class="st90 st105" d="M24 20.5h.1v6H24z"/><path transform="rotate(-38.289 23.967 23.508)" class="st90 st105" d="M23.9 20.5h.1v6h-.1z"/><path transform="rotate(-37.768 23.922 23.543)" class="st90 st106" d="M23.9 20.5h.1v6h-.1z"/><path transform="rotate(-38.279 23.874 23.58)" class="st90 st106" d="M23.8 20.6h.1v6h-.1z"/><path transform="rotate(-38.289 23.824 23.615)" class="st90 st106" d="M23.8 20.6h.1v6h-.1z"/><path transform="rotate(-38.289 23.779 23.651)" class="st90 st107" d="M23.7 20.6h.1v6h-.1z"/><path transform="rotate(-38.289 23.736 23.69)" class="st90 st107" d="M23.7 20.7h.1v6h-.1z"/><path transform="rotate(-38.289 23.686 23.724)" class="st90 st108" d="M23.6 20.7h.1v6h-.1z"/><path transform="rotate(-38.445 23.642 23.76)" class="st90 st108" d="M23.6 20.8h.1v6h-.1z"/><path transform="rotate(-38.194 23.597 23.799)" class="st90 st109" d="M23.6 20.8h.1v6h-.1z"/><path transform="rotate(-38.242 23.551 23.834)" class="st90 st109" d="M23.5 20.8h.1v6h-.1z"/><path transform="rotate(-38.085 23.504 23.871)" class="st90 st110" d="M23.5 20.9h.1v6h-.1z"/><path transform="rotate(-38.279 23.458 23.907)" class="st90 st110" d="M23.4 20.9h.1v6h-.1z"/><path transform="rotate(-38.289 23.408 23.942)" class="st90 st110" d="M23.4 20.9h.1v6h-.1z"/><path transform="rotate(-38.482 23.368 23.98)" class="st90 st110" d="M23.3 21h.1v6h-.1z"/><path transform="rotate(-38.085 23.32 24.017)" class="st90 st111" d="M23.3 21h.1v6h-.1z"/><path transform="rotate(-38.233 23.272 24.05)" class="st90 st111" d="M23.2 21h.1v6h-.1z"/><path transform="rotate(-38.289 23.223 24.088)" class="st90 st112" d="M23.2 21.1h.1v6h-.1z"/><path transform="rotate(-38.289 23.177 24.125)" class="st90 st112" d="M23.1 21.1h.1v6h-.1z"/><path transform="rotate(-38.242 23.135 24.162)" class="st90 st113" d="M23.1 21.2h.1v6h-.1z"/><path transform="rotate(-38.242 23.089 24.199)" class="st90 st113" d="M23 21.2h.1v6H23z"/><path transform="rotate(-38.749 23.042 24.235)" class="st90 st113" d="M23 21.2h.1v6H23z"/><path transform="rotate(-38.289 22.992 24.27)" class="st90 st113" d="M23 21.3h.1v6H23z"/><path transform="rotate(-38.289 22.946 24.307)" class="st90 st114" d="M22.9 21.3h.1v6h-.1z"/><path transform="rotate(-38.085 22.903 24.344)" class="st90 st115" d="M22.9 21.3h.1v6h-.1z"/><path transform="rotate(-38.482 22.859 24.38)" class="st90 st115" d="M22.8 21.4h.1v6h-.1z"/><path transform="rotate(-37.768 22.812 24.416)" class="st90 st116" d="M22.8 21.4h.1v6h-.1z"/><path transform="rotate(-38.434 22.765 24.453)" class="st90 st116" d="M22.7 21.4h.1v6h-.1z"/><path transform="rotate(-38.034 22.718 24.49)" class="st90 st117" d="M22.7 21.5h.1v6h-.1z"/><path transform="rotate(-38.445 22.67 24.524)" class="st90 st117" d="M22.6 21.5h.1v6h-.1z"/><path transform="rotate(-38.242 22.626 24.562)" class="st90 st118" d="M22.6 21.6h.1v6h-.1z"/><path transform="rotate(-38.445 22.579 24.598)" class="st90 st118" d="M22.5 21.6h.1v6h-.1z"/><path transform="rotate(-38.085 22.533 24.636)" class="st90 st119" d="M22.5 21.6h.1v6h-.1z"/><path transform="rotate(-38.085 22.487 24.672)" class="st90 st119" d="M22.4 21.7h.1v6h-.1z"/><path transform="rotate(-38.289 22.437 24.707)" class="st90 st120" d="M22.4 21.7h.1v6h-.1z"/><path transform="rotate(-38.289 22.391 24.743)" class="st90 st120" d="M22.3 21.7h.1v6h-.1z"/><path transform="rotate(-38.289 22.345 24.78)" class="st90 st121" d="M22.3 21.8h.1v6h-.1z"/><path transform="rotate(-38.085 22.302 24.818)" class="st90 st121" d="M22.3 21.8h.1v6h-.1z"/><path transform="rotate(-38.445 22.255 24.851)" class="st90 st121" d="M22.2 21.8h.1v6h-.1z"/><path transform="rotate(-38.194 22.21 24.89)" class="st90 st121" d="M22.2 21.9h.1v6h-.1z"/><path transform="rotate(-38.242 22.164 24.926)" class="st90 st121" d="M22.1 21.9h.1v6h-.1z"/><path transform="rotate(-38.048 22.114 24.961)" class="st90 st122" d="M22.1 22h.1v6h-.1z"/><path transform="rotate(-38.242 22.072 25)" class="st90 st123" d="M22 22h.1v6H22z"/><path transform="rotate(-38.739 22.024 25.034)" class="st90 st124" d="M22 22h.1v6H22z"/><path transform="rotate(-38.482 21.977 25.07)" class="st90 st124" d="M21.9 22.1h.1v6h-.1z"/><path transform="rotate(-38.085 21.932 25.11)" class="st90 st125" d="M21.9 22.1h.1v6h-.1z"/><path transform="rotate(-38.434 21.886 25.145)" class="st90 st125" d="M21.8 22.1h.1v6h-.1z"/><path transform="rotate(-38.289 21.84 25.182)" class="st90 st125" d="M21.8 22.2h.1v6h-.1z"/><path transform="rotate(-38.289 21.79 25.216)" class="st90 st126" d="M21.7 22.2h.1v6h-.1z"/><path transform="rotate(-38.242 21.748 25.253)" class="st90 st127" d="M21.7 22.2h.1v6h-.1z"/><path transform="rotate(-38.242 21.702 25.29)" class="st90 st127" d="M21.7 22.3h.1v6h-.1z"/><path transform="rotate(-38.445 21.654 25.325)" class="st90 st128" d="M21.6 22.3h.1v6h-.1z"/><path transform="rotate(-38.252 21.606 25.362)" class="st90 st128" d="M21.6 22.4h.1v6h-.1z"/><path transform="rotate(-38.279 21.562 25.4)" class="st90 st129" d="M21.5 22.4h.1v6h-.1z"/><path transform="rotate(-37.627 21.513 25.435)" class="st90 st130" d="M21.5 22.4h.1v6h-.1z"/><path transform="rotate(-38.482 21.472 25.472)" class="st90 st130" d="M21.4 22.5h.1v6h-.1z"/><path transform="rotate(-38.289 21.423 25.51)" class="st90 st130" d="M21.4 22.5h.1v6h-.1z"/><path transform="rotate(-38.085 21.377 25.545)" class="st90 st130" d="M21.3 22.5h.1v6h-.1z"/><path transform="rotate(-38.23 21.33 25.582)" class="st90 st131" d="M21.3 22.6h.1v6h-.1z"/><path transform="rotate(-38.289 21.281 25.617)" class="st90 st131" d="M21.2 22.6h.1v6h-.1z"/><path transform="rotate(-38.242 21.24 25.654)" class="st90 st132" d="M21.2 22.6h.1v6h-.1z"/><path transform="rotate(-38.242 21.193 25.691)" class="st90 st133" d="M21.1 22.7h.1v6h-.1z"/><path transform="rotate(-38.242 21.144 25.725)" class="st90 st134" d="M21.1 22.7h.1v6h-.1z"/><path transform="rotate(-38.289 21.096 25.762)" class="st90 st134" d="M21.1 22.8h.1v6h-.1z"/><path transform="rotate(-38.482 21.056 25.8)" class="st90 st134" d="M21 22.8h.1v6H21z"/><path transform="rotate(-38.289 21.007 25.837)" class="st90 st134" d="M21 22.8h.1v6H21z"/><path transform="rotate(-38.289 20.958 25.871)" class="st90 st135" d="M20.9 22.9h.1v6h-.1z"/><path transform="rotate(-38.289 20.911 25.908)" class="st90 st136" d="M20.9 22.9h.1v6h-.1z"/><path transform="rotate(-38.289 20.865 25.944)" class="st90 st137" d="M20.8 22.9h.1v6h-.1z"/><path transform="rotate(-38.289 20.819 25.98)" class="st90 st137" d="M20.8 23h.1v6h-.1z"/><path transform="rotate(-38.242 20.777 26.018)" class="st90 st138" d="M20.7 23h.1v6h-.1z"/><path transform="rotate(-38.242 20.73 26.054)" class="st90 st138" d="M20.7 23h.1v6h-.1z"/><path transform="rotate(-38.242 20.684 26.091)" class="st90 st138" d="M20.6 23.1h.1v6h-.1z"/><path transform="rotate(-38.233 20.636 26.126)" class="st90 st139" d="M20.6 23.1h.1v6h-.1z"/><path transform="rotate(-38.085 20.591 26.164)" class="st90 st139" d="M20.5 23.2h.1v6h-.1z"/><path transform="rotate(-38.289 20.542 26.2)" class="st90 st140" d="M20.5 23.2h.1v6h-.1z"/><path transform="rotate(-38.289 20.495 26.235)" class="st90 st140" d="M20.5 23.2h.1v6h-.1z"/><path transform="rotate(-38.289 20.45 26.272)" class="st90 st141" d="M20.4 23.3h.1v6h-.1z"/><path transform="rotate(-38.085 20.406 26.31)" class="st90 st141" d="M20.4 23.3h.1v6h-.1z"/><path transform="rotate(-38.289 20.357 26.344)" class="st90 st142" d="M20.3 23.3h.1v6h-.1z"/><path transform="rotate(-38.242 20.314 26.382)" class="st90 st142" d="M20.3 23.4h.1v6h-.1z"/><path transform="rotate(-38.445 20.267 26.417)" class="st90 st142" d="M20.2 23.4h.1v6h-.1z"/><path transform="rotate(-38.242 20.222 26.455)" class="st90 st142" d="M20.2 23.4h.1v6h-.1z"/><path transform="rotate(-38.048 20.173 26.49)" class="st90 st143" d="M20.1 23.5h.1v6h-.1z"/><path transform="rotate(-38.289 20.125 26.527)" class="st90 st143" d="M20.1 23.5h.1v6h-.1z"/><path transform="rotate(-38.289 20.08 26.563)" class="st90 st144" d="M20 23.6h.1v6H20z"/><path transform="rotate(-38.289 20.033 26.599)" class="st90 st145" d="M20 23.6h.1v6H20z"/><path transform="rotate(-38.085 19.99 26.637)" class="st90 st146" d="M19.9 23.6h.1v6h-.1z"/><path transform="rotate(-38.434 19.944 26.674)" class="st90 st146" d="M19.9 23.7h.1v6h-.1z"/><path transform="rotate(-38.289 19.894 26.708)" class="st90 st146" d="M19.9 23.7h.1v6h-.1z"/><path transform="rotate(-38.445 19.85 26.744)" class="st90 st146" d="M19.8 23.7h.1v6h-.1z"/><path transform="rotate(-38.048 19.803 26.782)" class="st90 st146" d="M19.8 23.8h.1v6h-.1z"/><path transform="rotate(-38.399 19.755 26.818)" class="st90 st147" d="M19.7 23.8h.1v6h-.1z"/><path transform="rotate(-38.252 19.71 26.854)" class="st90 st147" d="M19.7 23.8h.1v6h-.1z"/><path transform="rotate(-37.733 19.664 26.89)" class="st90 st148" d="M19.6 23.9h.1v6h-.1z"/><path transform="rotate(-38.085 19.62 26.929)" class="st90 st148" d="M19.6 23.9h.1v6h-.1z"/><path transform="rotate(-38.289 19.57 26.963)" class="st90 st149" d="M19.5 24h.1v6h-.1z"/><path transform="rotate(-38.289 19.527 27.002)" class="st90 st149" d="M19.5 24h.1v6h-.1z"/><path transform="rotate(-38.482 19.483 27.038)" class="st90 st150" d="M19.4 24h.1v6h-.1z"/><path transform="rotate(-38.279 19.435 27.074)" class="st90 st150" d="M19.4 24.1h.1v6h-.1z"/><path transform="rotate(-38.085 19.389 27.11)" class="st90 st151" d="M19.3 24.1h.1v6h-.1z"/><path transform="rotate(-38.445 19.342 27.144)" class="st90 st151" d="M19.3 24.1h.1v6h-.1z"/><path transform="rotate(-38.252 19.294 27.182)" class="st90 st152" d="M19.3 24.2h.1v6h-.1z"/><path transform="rotate(-38.19 19.248 27.217)" class="st90 st152" d="M19.2 24.2h.1v6h-.1z"/><path transform="rotate(-38.085 19.203 27.256)" class="st90 st153" d="M19.2 24.2h.1v6h-.1z"/><path transform="rotate(-37.973 19.157 27.291)" class="st90 st153" d="M19.1 24.3h.1v6h-.1z"/><path transform="rotate(-38.289 19.111 27.33)" class="st90 st153" d="M19.1 24.3h.1v6h-.1z"/><path transform="rotate(-38.434 19.066 27.366)" class="st90 st153" d="M19 24.4h.1v6H19z"/><path transform="rotate(-38.085 19.015 27.4)" class="st90 st153" d="M19 24.4h.1v6H19z"/><path transform="rotate(-38.289 18.97 27.436)" class="st90 st154" d="M18.9 24.4h.1v6h-.1z"/><path transform="rotate(-38.445 18.926 27.473)" class="st90 st155" d="M18.9 24.5h.1v6h-.1z"/><path transform="rotate(-38.252 18.878 27.51)" class="st90 st156" d="M18.8 24.5h.1v6h-.1z"/><path transform="rotate(-38.038 18.835 27.547)" class="st90 st156" d="M18.8 24.5h.1v6h-.1z"/><path transform="rotate(-38.242 18.788 27.584)" class="st90 st157" d="M18.7 24.6h.1v6h-.1z"/><path transform="rotate(-38.445 18.74 27.618)" class="st90 st157" d="M18.7 24.6h.1v6h-.1z"/><path transform="rotate(-38.289 18.695 27.657)" class="st90 st157" d="M18.7 24.7h.1v6h-.1z"/><path transform="rotate(-37.768 18.65 27.693)" class="st90 st157" d="M18.6 24.7h.1v6h-.1z"/><path transform="rotate(-37.569 18.602 27.729)" class="st90 st158" d="M18.6 24.7h.1v6h-.1z"/><path transform="rotate(-38.434 18.557 27.766)" class="st90 st158" d="M18.5 24.8h.1v6h-.1z"/><path transform="rotate(-38.289 18.507 27.8)" class="st90 st159" d="M18.5 24.8h.1v6h-.1z"/><path transform="rotate(-38.289 18.46 27.836)" class="st90 st159" d="M18.4 24.8h.1v6h-.1z"/><path transform="rotate(-38.085 18.418 27.875)" class="st90 st160" d="M18.4 24.9h.1v6h-.1z"/><path transform="rotate(-38.399 18.368 27.91)" class="st90 st160" d="M18.3 24.9h.1v6h-.1z"/><path transform="rotate(-38.242 18.326 27.947)" class="st90 st161" d="M18.3 24.9h.1v6h-.1z"/><path transform="rotate(-38.085 18.279 27.985)" class="st90 st161" d="M18.2 25h.1v6h-.1z"/><path transform="rotate(-38.289 18.23 28.019)" class="st90 st161" d="M18.2 25h.1v6h-.1z"/><path transform="rotate(-38.289 18.183 28.055)" class="st90 st162" d="M18.1 25.1h.1v6h-.1z"/><path transform="rotate(-38.289 18.137 28.091)" class="st90 st162" d="M18.1 25.1h.1v6h-.1z"/><path transform="rotate(-37.768 18.096 28.13)" class="st90 st163" d="M18 25.1h.1v6H18z"/><path transform="rotate(-38.289 18.045 28.164)" class="st90 st164" d="M18 25.2h.1v6H18z"/><path transform="rotate(-38.289 17.998 28.2)" class="st90 st165" d="M18 25.2h.1v6H18z"/><path transform="rotate(-38.445 17.955 28.236)" class="st90 st165" d="M17.9 25.2h.1v6h-.1z"/><path transform="rotate(-38.242 17.91 28.275)" class="st90 st165" d="M17.9 25.3h.1v6h-.1z"/><path transform="rotate(-38.242 17.864 28.311)" class="st90 st165" d="M17.8 25.3h.1v6h-.1z"/><path transform="rotate(-38.445 17.816 28.346)" class="st90 st166" d="M17.8 25.3h.1v6h-.1z"/><path transform="rotate(-37.768 17.772 28.384)" class="st90 st167" d="M17.7 25.4h.1v6h-.1z"/><path transform="rotate(-38.289 17.721 28.419)" class="st90 st168" d="M17.7 25.4h.1v6h-.1z"/><path transform="rotate(-38.233 17.677 28.455)" class="st90 st168" d="M17.6 25.5h.1v6h-.1z"/><path transform="rotate(-38.088 17.63 28.491)" class="st90 st169" d="M17.6 25.5h.1v6h-.1z"/><path transform="rotate(-37.768 17.587 28.53)" class="st90 st169" d="M17.5 25.5h.1v6h-.1z"/><path transform="rotate(-38.482 17.538 28.564)" class="st90 st169" d="M17.5 25.6h.1v6h-.1z"/><path transform="rotate(-38.085 17.493 28.603)" class="st90 st169" d="M17.4 25.6h.1v6h-.1z"/><path transform="rotate(-38.242 17.447 28.638)" class="st90 st170" d="M17.4 25.6h.1v6h-.1z"/><path transform="rotate(-38.252 17.398 28.674)" class="st90 st171" d="M17.4 25.7h.1v6h-.1z"/><path transform="rotate(-38.242 17.352 28.71)" class="st90 st171" d="M17.3 25.7h.1v6h-.1z"/><path transform="rotate(-38.085 17.308 28.748)" class="st90 st172" d="M17.3 25.7h.1v6h-.1z"/><path transform="rotate(-38.289 17.259 28.782)" class="st90 st172" d="M17.2 25.8h.1v6h-.1z"/><path transform="rotate(-38.289 17.215 28.822)" class="st90 st173" d="M17.2 25.8h.1v6h-.1z"/><path transform="rotate(-38.289 17.166 28.855)" class="st90 st174" d="M17.1 25.9h.1v6h-.1z"/><path transform="rotate(-38.279 17.123 28.893)" class="st90 st174" d="M17.1 25.9h.1v6h-.1z"/><path transform="rotate(-38.289 17.074 28.928)" class="st90 st174" d="M17 25.9h.1v6H17z"/><path transform="rotate(-38.445 17.03 28.965)" class="st90 st175" d="M17 26h.1v6H17z"/><path transform="rotate(-38.198 16.983 29.001)" class="st90 st175" d="M16.9 26h.1v6h-.1z"/><path transform="rotate(-38.242 16.936 29.037)" class="st90 st176" d="M16.9 26h.1v6h-.1z"/><path transform="rotate(-38.048 16.89 29.074)" class="st90 st177" d="M16.8 26.1h.1v6h-.1z"/><path transform="rotate(-38.445 16.845 29.11)" class="st90 st178" d="M16.8 26.1h.1v6h-.1z"/><path transform="rotate(-38.289 16.799 29.149)" class="st90 st178" d="M16.8 26.1h.1v6h-.1z"/><path transform="rotate(-37.973 16.752 29.184)" class="st90 st178" d="M16.7 26.2h.1v6h-.1z"/><path transform="rotate(-37.569 16.706 29.221)" class="st90 st178" d="M16.7 26.2h.1v6h-.1z"/><path transform="rotate(-38.289 16.658 29.256)" class="st90 st178" d="M16.6 26.3h.1v6h-.1z"/><path transform="rotate(-38.289 16.611 29.292)" class="st90 st179" d="M16.6 26.3h.1v6h-.1z"/><path transform="rotate(-38.289 16.568 29.33)" class="st90 st179" d="M16.5 26.3h.1v6h-.1z"/><path transform="rotate(-38.038 16.523 29.367)" class="st90 st180" d="M16.5 26.4h.1v6h-.1z"/><path transform="rotate(-38.242 16.476 29.403)" class="st90 st180" d="M16.4 26.4h.1v6h-.1z"/><path transform="rotate(-38.242 16.43 29.44)" class="st90 st181" d="M16.4 26.4h.1v6h-.1z"/><path transform="rotate(-38.242 16.384 29.476)" class="st90 st181" d="M16.3 26.5h.1v6h-.1z"/><path transform="rotate(-38.289 16.334 29.51)" class="st90 st182" d="M16.3 26.5h.1v6h-.1z"/><path transform="rotate(-38.031 16.289 29.546)" class="st90 st182" d="M16.2 26.5h.1v6h-.1z"/><path transform="rotate(-38.482 16.246 29.586)" class="st90 st183" d="M16.2 26.6h.1v6h-.1z"/><path transform="rotate(-38.794 16.195 29.62)" class="st90 st183" d="M16.2 26.6h.1v6h-.1z"/><path transform="rotate(-38.492 16.151 29.657)" class="st90 st184" d="M16.1 26.7h.1v6h-.1z"/><path transform="rotate(-38.034 16.106 29.695)" class="st90 st184" d="M16.1 26.7h.1v6h-.1z"/><path transform="rotate(-38.445 16.059 29.728)" class="st90 st185" d="M16 26.7h.1v6H16z"/><path transform="rotate(-38.242 16.014 29.767)" class="st90 st186" d="M16 26.8h.1v6H16z"/><path transform="rotate(-38.242 15.968 29.804)" class="st90 st186" d="M15.9 26.8h.1v6h-.1z"/><path transform="rotate(-38.085 15.92 29.84)" class="st90 st186" d="M15.9 26.8h.1v6h-.1z"/><path transform="rotate(-38.289 15.872 29.875)" class="st90 st186" d="M15.8 26.9h.1v6h-.1z"/><path transform="rotate(-38.482 15.83 29.913)" class="st90 st187" d="M15.8 26.9h.1v6h-.1z"/><path transform="rotate(-38.289 15.78 29.947)" class="st90 st187" d="M15.7 26.9h.1v6h-.1z"/><path transform="rotate(-38.233 15.736 29.983)" class="st90 st188" d="M15.7 27h.1v6h-.1z"/><path transform="rotate(-38.289 15.686 30.02)" class="st90 st188" d="M15.6 27h.1v6h-.1z"/><path transform="rotate(-38.482 15.643 30.056)" class="st90 st189" d="M15.6 27.1h.1v6h-.1z"/><path transform="rotate(-37.768 15.599 30.095)" class="st90 st189" d="M15.6 27.1h.1v6h-.1z"/><path transform="rotate(-38.242 15.552 30.13)" class="st90 st189" d="M15.5 27.1h.1v6h-.1z"/><path transform="rotate(-38.048 15.505 30.169)" class="st90 st189" d="M15.5 27.2h.1v6h-.1z"/><path transform="rotate(-38.242 15.46 30.204)" class="st90 st190" d="M15.4 27.2h.1v6h-.1z"/><path transform="rotate(-38.399 15.409 30.239)" class="st90 st190" d="M15.4 27.2h.1v6h-.1z"/><path transform="rotate(-38.085 15.366 30.278)" class="st90 st191" d="M15.3 27.3h.1v6h-.1z"/><path transform="rotate(-37.577 15.32 30.314)" class="st90 st191" d="M15.3 27.3h.1v6h-.1z"/><path transform="rotate(-38.289 15.27 30.347)" class="st90 st192" d="M15.2 27.3h.1v6h-.1z"/><path transform="rotate(-38.279 15.227 30.386)" class="st90 st192" d="M15.2 27.4h.1v6h-.1z"/><path transform="rotate(-38.289 15.178 30.42)" class="st90 st193" d="M15.1 27.4h.1v6h-.1z"/><path transform="rotate(-38.289 15.132 30.457)" class="st90 st193" d="M15.1 27.5h.1v6h-.1z"/><path transform="rotate(-38.252 15.086 30.493)" class="st90 st193" d="M15 27.5h.1v6H15z"/><path transform="rotate(-38.442 15.042 30.531)" class="st90 st194" d="M15 27.5h.1v6H15z"/><path transform="rotate(-38.242 14.997 30.568)" class="st90 st194" d="M15 27.6h.1v6H15z"/><path transform="rotate(-38.289 14.947 30.602)" class="st90 st195" d="M14.9 27.6h.1v6h-.1z"/><path transform="rotate(-38.238 14.903 30.641)" class="st90 st195" d="M14.9 27.6h.1v6h-.1z"/><path transform="rotate(-38.434 14.858 30.679)" class="st90 st196" d="M14.8 27.7h.1v6h-.1z"/><path transform="rotate(-37.768 14.81 30.71)" class="st90 st196" d="M14.8 27.7h.1v6h-.1z"/><path transform="rotate(-38.085 14.765 30.75)" class="st90 st196" d="M14.7 27.7h.1v6h-.1z"/><path transform="rotate(-37.973 14.718 30.785)" class="st90 st196" d="M14.7 27.8h.1v6h-.1z"/><path transform="rotate(-38.289 14.672 30.823)" class="st90 st197" d="M14.6 27.8h.1v6h-.1z"/><path transform="rotate(-38.242 14.624 30.857)" class="st90 st197" d="M14.6 27.9h.1v6h-.1z"/><path transform="rotate(-38.048 14.578 30.893)" class="st90 st198" d="M14.5 27.9h.1v6h-.1z"/><path transform="rotate(-38.242 14.534 30.932)" class="st90 st198" d="M14.5 27.9h.1v6h-.1z"/><path transform="rotate(-38.242 14.488 30.969)" class="st90 st199" d="M14.4 28h.1v6h-.1z"/><path transform="rotate(-38.482 14.443 31.005)" class="st90 st199" d="M14.4 28h.1v6h-.1z"/><path transform="rotate(-38.085 14.392 31.039)" class="st90 st199" d="M14.3 28h.1v6h-.1z"/><path transform="rotate(-38.233 14.348 31.076)" class="st90 st199" d="M14.3 28.1h.1v6h-.1z"/><path transform="rotate(-38.289 14.3 31.111)" class="st90 st200" d="M14.3 28.1h.1v6h-.1z"/><path transform="rotate(-38.289 14.256 31.15)" class="st90 st201" d="M14.2 28.1h.1v6h-.1z"/><path transform="rotate(-38.289 14.207 31.185)" class="st90 st201" d="M14.2 28.2h.1v6h-.1z"/><path transform="rotate(-38.242 14.164 31.223)" class="st90 st202" d="M14.1 28.2h.1v6h-.1z"/><path transform="rotate(-38.242 14.118 31.26)" class="st90 st202" d="M14.1 28.3h.1v6h-.1z"/><path transform="rotate(-38.242 14.072 31.296)" class="st90 st203" d="M14 28.3h.1v6H14z"/><path transform="rotate(-38.194 14.025 31.332)" class="st90 st204" d="M14 28.3h.1v6H14z"/><path transform="rotate(-38.085 13.976 31.367)" class="st90 st204" d="M13.9 28.4h.1v6h-.1z"/><path transform="rotate(-38.482 13.934 31.406)" class="st90 st204" d="M13.9 28.4h.1v6h-.1z"/><path transform="rotate(-38.289 13.883 31.44)" class="st90 st205" d="M13.8 28.4h.1v6h-.1z"/><path transform="rotate(-38.289 13.837 31.476)" class="st90 st205" d="M13.8 28.5h.1v6h-.1z"/><path transform="rotate(-37.573 13.792 31.512)" class="st90 st206" d="M13.7 28.5h.1v6h-.1z"/><path transform="rotate(-38.289 13.745 31.549)" class="st90 st207" d="M13.7 28.5h.1v6h-.1z"/><path transform="rotate(-38.242 13.702 31.587)" class="st90 st208" d="M13.7 28.6h.1v6h-.1z"/><path transform="rotate(-38.445 13.655 31.621)" class="st90 st208" d="M13.6 28.6h.1v6h-.1z"/><path transform="rotate(-38.198 12.45 32.57)" class="st90 st208" d="M10.9 29.6h3v6h-3z"/><defs><path id="SVGID_7_" d="M27.7 15.9L12.8 7.5c-.9-.5-1.6-.4-2.1.1l12.7 12.6 4.3-4.3z"/></defs><clipPath id="SVGID_8_"><use xlink:href="#SVGID_7_" overflow="visible"/></clipPath><path transform="rotate(-143.016 12.17 7.991)" class="st209 st210" d="M10.7 5h2.9v6h-2.9z"/><path transform="rotate(-142.82 13.344 8.875)" class="st209 st210" d="M13.3 5.9h.1v6h-.1z"/><path transform="rotate(-142.82 13.391 8.911)" class="st209 st211" d="M13.3 5.9h.1v6h-.1z"/><path transform="rotate(-143.339 13.438 8.947)" class="st209 st211" d="M13.4 6h.1v6h-.1z"/><path transform="rotate(-142.769 13.486 8.983)" class="st209 st212" d="M13.4 6h.1v6h-.1z"/><path transform="rotate(-142.627 13.533 9.018)" class="st209 st212" d="M13.5 6h.1v6h-.1z"/><path transform="rotate(-142.82 13.58 9.053)" class="st209 st213" d="M13.5 6.1h.1v6h-.1z"/><path transform="rotate(-142.82 13.628 9.089)" class="st209 st214" d="M13.6 6.1h.1v6h-.1z"/><path transform="rotate(-143.286 13.675 9.125)" class="st209 st214" d="M13.6 6.1h.1v6h-.1z"/><path transform="rotate(-142.823 13.722 9.16)" class="st209 st215" d="M13.7 6.2h.1v6h-.1z"/><path transform="rotate(-143.339 13.77 9.195)" class="st209 st215" d="M13.7 6.2h.1v6h-.1z"/><path transform="rotate(-142.82 13.818 9.232)" class="st209 st215" d="M13.8 6.2h.1v6h-.1z"/><path transform="rotate(-143.143 13.865 9.267)" class="st209 st216" d="M13.8 6.3h.1v6h-.1z"/><path transform="rotate(-142.82 13.912 9.303)" class="st209 st217" d="M13.9 6.3h.1v6h-.1z"/><path transform="rotate(-142.82 13.96 9.338)" class="st209 st217" d="M13.9 6.3h.1v6h-.1z"/><path transform="rotate(-142.968 14.005 9.374)" class="st209 st218" d="M14 6.4h.1v6H14z"/><path transform="rotate(-143.016 14.053 9.409)" class="st209 st218" d="M14 6.4h.1v6H14z"/><path transform="rotate(-143.478 14.101 9.445)" class="st209 st219" d="M14.1 6.4h.1v6h-.1z"/><path transform="rotate(-143.016 14.148 9.48)" class="st209 st219" d="M14.1 6.5h.1v6h-.1z"/><path transform="rotate(-143.478 14.196 9.516)" class="st209 st219" d="M14.2 6.5h.1v6h-.1z"/><path transform="rotate(-142.823 14.242 9.551)" class="st209 st220" d="M14.2 6.6h.1v6h-.1z"/><path transform="rotate(-143.495 14.29 9.588)" class="st209 st220" d="M14.2 6.6h.1v6h-.1z"/><path transform="rotate(-142.82 14.338 9.623)" class="st209 st221" d="M14.3 6.6h.1v6h-.1z"/><path transform="rotate(-143.016 14.384 9.658)" class="st209 st221" d="M14.3 6.7h.1v6h-.1z"/><path transform="rotate(-142.974 14.43 9.694)" class="st209 st221" d="M14.4 6.7h.1v6h-.1z"/><path transform="rotate(-143.016 14.478 9.73)" class="st209 st222" d="M14.4 6.7h.1v6h-.1z"/><path transform="rotate(-142.769 14.526 9.765)" class="st209 st222" d="M14.5 6.8h.1v6h-.1z"/><path transform="rotate(-142.823 14.573 9.8)" class="st209 st223" d="M14.5 6.8h.1v6h-.1z"/><path transform="rotate(-143.286 14.621 9.837)" class="st209 st223" d="M14.6 6.8h.1v6h-.1z"/><path transform="rotate(-142.816 14.668 9.872)" class="st209 st224" d="M14.6 6.9h.1v6h-.1z"/><path transform="rotate(-143.092 14.715 9.908)" class="st209 st225" d="M14.7 6.9h.1v6h-.1z"/><path transform="rotate(-142.823 14.762 9.943)" class="st209 st225" d="M14.7 6.9h.1v6h-.1z"/><path transform="rotate(-142.82 14.81 9.979)" class="st209 st226" d="M14.8 7h.1v6h-.1z"/><path transform="rotate(-142.82 14.858 10.014)" class="st209 st227" d="M14.8 7h.1v6h-.1z"/><path transform="rotate(-142.82 14.905 10.05)" class="st209 st227" d="M14.9 7.1h.1v6h-.1z"/><path transform="rotate(-142.82 14.952 10.086)" class="st209 st228" d="M14.9 7.1h.1v6h-.1z"/><path transform="rotate(-142.816 15 10.12)" class="st209 st228" d="M15 7.1h.1v6H15z"/><path transform="rotate(-142.769 15.046 10.157)" class="st209 st229" d="M15 7.2h.1v6H15z"/><path transform="rotate(-142.627 15.094 10.193)" class="st209 st229" d="M15 7.2h.1v6H15z"/><path transform="rotate(-143.092 15.14 10.228)" class="st209 st229" d="M15.1 7.2h.1v6h-.1z"/><path transform="rotate(-142.816 15.188 10.263)" class="st209 st230" d="M15.1 7.3h.1v6h-.1z"/><path transform="rotate(-142.769 15.236 10.3)" class="st209 st230" d="M15.2 7.3h.1v6h-.1z"/><path transform="rotate(-143.016 15.283 10.335)" class="st209 st231" d="M15.2 7.3h.1v6h-.1z"/><path transform="rotate(-143.016 15.33 10.37)" class="st209 st232" d="M15.3 7.4h.1v6h-.1z"/><path transform="rotate(-143.485 15.378 10.406)" class="st209 st232" d="M15.3 7.4h.1v6h-.1z"/><path transform="rotate(-143.016 15.424 10.442)" class="st209 st233" d="M15.4 7.4h.1v6h-.1z"/><path transform="rotate(-143.016 15.472 10.477)" class="st209 st234" d="M15.4 7.5h.1v6h-.1z"/><path transform="rotate(-142.816 15.52 10.512)" class="st209 st234" d="M15.5 7.5h.1v6h-.1z"/><path transform="rotate(-143.286 15.567 10.549)" class="st209 st235" d="M15.5 7.6h.1v6h-.1z"/><path transform="rotate(-143.016 15.613 10.584)" class="st209 st235" d="M15.6 7.6h.1v6h-.1z"/><path transform="rotate(-143.016 15.66 10.62)" class="st209 st236" d="M15.6 7.6h.1v6h-.1z"/><path transform="rotate(-143.006 15.709 10.655)" class="st209 st236" d="M15.7 7.7h.1v6h-.1z"/><path transform="rotate(-142.968 15.755 10.69)" class="st209 st236" d="M15.7 7.7h.1v6h-.1z"/><path transform="rotate(-142.82 15.803 10.727)" class="st209 st237" d="M15.8 7.7h.1v6h-.1z"/><path transform="rotate(-142.82 15.85 10.762)" class="st209 st238" d="M15.8 7.8h.1v6h-.1z"/><path transform="rotate(-142.82 15.898 10.798)" class="st209 st239" d="M15.9 7.8h.1v6h-.1z"/><path transform="rotate(-143.143 15.945 10.833)" class="st209 st239" d="M15.9 7.8h.1v6h-.1z"/><path transform="rotate(-143.143 15.993 10.87)" class="st209 st239" d="M15.9 7.9h.1v6h-.1z"/><path transform="rotate(-143.286 16.04 10.905)" class="st209 st240" d="M16 7.9h.1v6H16z"/><path transform="rotate(-142.82 16.087 10.94)" class="st209 st241" d="M16 7.9h.1v6H16z"/><path transform="rotate(-142.82 16.134 10.976)" class="st209 st242" d="M16.1 8h.1v6h-.1z"/><path transform="rotate(-142.823 16.181 11.01)" class="st209 st242" d="M16.1 8h.1v6h-.1z"/><path transform="rotate(-142.82 16.23 11.047)" class="st209 st242" d="M16.2 8.1h.1v6h-.1z"/><path transform="rotate(-142.82 16.277 11.082)" class="st209 st243" d="M16.2 8.1h.1v6h-.1z"/><path transform="rotate(-142.823 16.323 11.117)" class="st209 st243" d="M16.3 8.1h.1v6h-.1z"/><path transform="rotate(-143.286 16.37 11.154)" class="st209 st243" d="M16.3 8.2h.1v6h-.1z"/><path transform="rotate(-143.339 16.417 11.189)" class="st209 st244" d="M16.4 8.2h.1v6h-.1z"/><path transform="rotate(-142.82 16.465 11.225)" class="st209 st245" d="M16.4 8.2h.1v6h-.1z"/><path transform="rotate(-143.343 16.513 11.26)" class="st209 st246" d="M16.5 8.3h.1v6h-.1z"/><path transform="rotate(-142.82 16.56 11.296)" class="st209 st247" d="M16.5 8.3h.1v6h-.1z"/><path transform="rotate(-143.533 16.606 11.331)" class="st209 st247" d="M16.6 8.3h.1v6h-.1z"/><path transform="rotate(-142.82 16.655 11.367)" class="st209 st248" d="M16.6 8.4h.1v6h-.1z"/><path transform="rotate(-142.823 16.701 11.402)" class="st209 st248" d="M16.7 8.4h.1v6h-.1z"/><path transform="rotate(-142.82 16.75 11.438)" class="st209 st249" d="M16.7 8.4h.1v6h-.1z"/><path transform="rotate(-143.286 16.797 11.474)" class="st209 st249" d="M16.8 8.5h.1v6h-.1z"/><path transform="rotate(-143.339 16.843 11.509)" class="st209 st249" d="M16.8 8.5h.1v6h-.1z"/><path transform="rotate(-142.968 16.89 11.545)" class="st209 st250" d="M16.8 8.5h.1v6h-.1z"/><path transform="rotate(-143.016 16.938 11.58)" class="st209 st250" d="M16.9 8.6h.1v6h-.1z"/><path transform="rotate(-143.016 16.985 11.616)" class="st209 st251" d="M16.9 8.6h.1v6h-.1z"/><path transform="rotate(-143.343 17.033 11.652)" class="st209 st251" d="M17 8.7h.1v6H17z"/><path transform="rotate(-142.82 17.08 11.688)" class="st209 st252" d="M17 8.7h.1v6H17z"/><path transform="rotate(-142.816 17.127 11.722)" class="st209 st253" d="M17.1 8.7h.1v6h-.1z"/><path transform="rotate(-143.016 17.174 11.758)" class="st209 st253" d="M17.1 8.8h.1v6h-.1z"/><path transform="rotate(-143.289 17.221 11.794)" class="st209 st254" d="M17.2 8.8h.1v6h-.1z"/><path transform="rotate(-143.339 17.268 11.83)" class="st209 st255" d="M17.2 8.8h.1v6h-.1z"/><path transform="rotate(-142.82 17.317 11.866)" class="st209 st255" d="M17.3 8.9h.1v6h-.1z"/><path transform="rotate(-142.307 17.364 11.9)" class="st209 st256" d="M17.3 8.9h.1v6h-.1z"/><path transform="rotate(-142.769 17.41 11.937)" class="st209 st256" d="M17.4 8.9h.1v6h-.1z"/><path transform="rotate(-143.331 17.458 11.972)" class="st209 st257" d="M17.4 9h.1v6h-.1z"/><path transform="rotate(-142.82 17.506 12.008)" class="st209 st257" d="M17.5 9h.1v6h-.1z"/><path transform="rotate(-142.82 17.553 12.043)" class="st209 st257" d="M17.5 9h.1v6h-.1z"/><path transform="rotate(-142.82 17.6 12.079)" class="st209 st258" d="M17.6 9.1h.1v6h-.1z"/><path transform="rotate(-143.331 17.647 12.114)" class="st209 st258" d="M17.6 9.1h.1v6h-.1z"/><path transform="rotate(-143.339 17.694 12.15)" class="st209 st259" d="M17.7 9.2h.1v6h-.1z"/><path transform="rotate(-142.82 17.742 12.186)" class="st209 st260" d="M17.7 9.2h.1v6h-.1z"/><path transform="rotate(-142.82 17.79 12.221)" class="st209 st260" d="M17.7 9.2h.1v6h-.1z"/><path transform="rotate(-142.82 17.837 12.257)" class="st209 st261" d="M17.8 9.3h.1v6h-.1z"/><path transform="rotate(-143.339 17.883 12.292)" class="st209 st262" d="M17.8 9.3h.1v6h-.1z"/><path transform="rotate(-142.769 17.931 12.328)" class="st209 st262" d="M17.9 9.3h.1v6h-.1z"/><path transform="rotate(-142.816 17.978 12.363)" class="st209 st263" d="M17.9 9.4h.1v6h-.1z"/><path transform="rotate(-143.016 18.025 12.399)" class="st209 st263" d="M18 9.4h.1v6H18z"/><path transform="rotate(-143.533 18.072 12.435)" class="st209 st264" d="M18 9.4h.1v6H18z"/><path transform="rotate(-143.478 18.12 12.471)" class="st209 st264" d="M18.1 9.5h.1v6h-.1z"/><path transform="rotate(-143.006 18.168 12.506)" class="st209 st265" d="M18.1 9.5h.1v6h-.1z"/><path transform="rotate(-143.495 18.214 12.542)" class="st209 st266" d="M18.2 9.5h.1v6h-.1z"/><path transform="rotate(-143.016 18.262 12.577)" class="st209 st267" d="M18.2 9.6h.1v6h-.1z"/><path transform="rotate(-143.339 18.308 12.612)" class="st209 st268" d="M18.3 9.6h.1v6h-.1z"/><path transform="rotate(-143.006 18.357 12.648)" class="st209 st268" d="M18.3 9.7h.1v6h-.1z"/><path transform="rotate(-142.82 18.405 12.684)" class="st209 st268" d="M18.4 9.7h.1v6h-.1z"/><path transform="rotate(-142.968 18.45 12.719)" class="st209 st269" d="M18.4 9.7h.1v6h-.1z"/><path transform="rotate(-143.495 18.498 12.756)" class="st209 st270" d="M18.5 9.8h.1v6h-.1z"/><path transform="rotate(-142.82 18.546 12.791)" class="st209 st271" d="M18.5 9.8h.1v6h-.1z"/><path transform="rotate(-142.82 18.594 12.826)" class="st209 st271" d="M18.5 9.8h.1v6h-.1z"/><path transform="rotate(-143.286 18.64 12.862)" class="st209 st271" d="M18.6 9.9h.1v6h-.1z"/><path transform="rotate(-142.82 18.688 12.898)" class="st209 st272" d="M18.6 9.9h.1v6h-.1z"/><path transform="rotate(-143.339 18.734 12.933)" class="st209 st272" d="M18.7 9.9h.1v6h-.1z"/><path transform="rotate(-142.823 18.782 12.968)" class="st209 st272" d="M18.7 10h.1v6h-.1z"/><path transform="rotate(-142.82 18.83 13.004)" class="st209 st273" d="M18.8 10h.1v6h-.1z"/><path transform="rotate(-142.82 18.877 13.04)" class="st209 st274" d="M18.8 10h.1v6h-.1z"/><path transform="rotate(-142.82 18.925 13.075)" class="st209 st275" d="M18.9 10.1h.1v6h-.1z"/><path transform="rotate(-142.769 18.972 13.111)" class="st209 st275" d="M18.9 10.1h.1v6h-.1z"/><path transform="rotate(-142.82 19.02 13.147)" class="st209 st275" d="M19 10.2h.1v6H19z"/><path transform="rotate(-142.82 19.067 13.182)" class="st209 st276" d="M19 10.2h.1v6H19z"/><path transform="rotate(-142.627 19.113 13.218)" class="st209 st277" d="M19.1 10.2h.1v6h-.1z"/><path transform="rotate(-143.289 19.16 13.253)" class="st209 st277" d="M19.1 10.3h.1v6h-.1z"/><path transform="rotate(-142.82 19.209 13.29)" class="st209 st277" d="M19.2 10.3h.1v6h-.1z"/><path transform="rotate(-142.82 19.256 13.325)" class="st209 st278" d="M19.2 10.3h.1v6h-.1z"/><path transform="rotate(-143.016 19.302 13.36)" class="st209 st278" d="M19.3 10.4h.1v6h-.1z"/><path transform="rotate(-143.016 19.35 13.396)" class="st209 st278" d="M19.3 10.4h.1v6h-.1z"/><path transform="rotate(-143.016 19.397 13.432)" class="st209 st279" d="M19.4 10.4h.1v6h-.1z"/><path transform="rotate(-142.974 19.444 13.466)" class="st209 st279" d="M19.4 10.5h.1v6h-.1z"/><path transform="rotate(-142.769 19.492 13.502)" class="st209 st279" d="M19.4 10.5h.1v6h-.1z"/><path transform="rotate(-143.339 19.538 13.538)" class="st209 st279" d="M19.5 10.5h.1v6h-.1z"/><path transform="rotate(-143.437 19.587 13.573)" class="st209 st280" d="M19.5 10.6h.1v6h-.1z"/><path transform="rotate(-143.016 19.633 13.61)" class="st209 st281" d="M19.6 10.6h.1v6h-.1z"/><path transform="rotate(-143.016 19.68 13.645)" class="st209 st281" d="M19.6 10.6h.1v6h-.1z"/><path transform="rotate(-143.016 19.728 13.68)" class="st209 st282" d="M19.7 10.7h.1v6h-.1z"/><path transform="rotate(-142.968 19.774 13.716)" class="st209 st282" d="M19.7 10.7h.1v6h-.1z"/><path transform="rotate(-143.016 19.822 13.752)" class="st209 st282" d="M19.8 10.8h.1v6h-.1z"/><path transform="rotate(-143.016 19.87 13.787)" class="st209 st282" d="M19.8 10.8h.1v6h-.1z"/><path transform="rotate(-142.816 19.917 13.822)" class="st209 st283" d="M19.9 10.8h.1v6h-.1z"/><path transform="rotate(-143.143 19.965 13.86)" class="st209 st283" d="M19.9 10.9h.1v6h-.1z"/><path transform="rotate(-143.343 20.012 13.895)" class="st209 st283" d="M20 10.9h.1v6H20z"/><path transform="rotate(-142.82 20.06 13.93)" class="st209 st284" d="M20 10.9h.1v6H20z"/><path transform="rotate(-142.816 20.106 13.965)" class="st209 st284" d="M20.1 11h.1v6h-.1z"/><path transform="rotate(-142.82 20.154 14.001)" class="st209 st284" d="M20.1 11h.1v6h-.1z"/><path transform="rotate(-142.82 20.201 14.037)" class="st209 st285" d="M20.2 11h.1v6h-.1z"/><path transform="rotate(-142.82 20.249 14.073)" class="st209 st286" d="M20.2 11.1h.1v6h-.1z"/><path transform="rotate(-143.286 20.296 14.108)" class="st209 st286" d="M20.3 11.1h.1v6h-.1z"/><path transform="rotate(-142.82 20.344 14.143)" class="st209 st286" d="M20.3 11.1h.1v6h-.1z"/><path transform="rotate(-143.178 20.39 14.179)" class="st209 st287" d="M20.3 11.2h.1v6h-.1z"/><path transform="rotate(-143.331 20.438 14.214)" class="st209 st288" d="M20.4 11.2h.1v6h-.1z"/><path transform="rotate(-142.82 20.485 14.25)" class="st209 st288" d="M20.4 11.3h.1v6h-.1z"/><path transform="rotate(-142.82 20.532 14.285)" class="st209 st288" d="M20.5 11.3h.1v6h-.1z"/><path transform="rotate(-142.82 20.58 14.321)" class="st209 st289" d="M20.5 11.3h.1v6h-.1z"/><path transform="rotate(-143.475 20.626 14.357)" class="st209 st289" d="M20.6 11.4h.1v6h-.1z"/><path transform="rotate(-143.016 20.673 14.393)" class="st209 st289" d="M20.6 11.4h.1v6h-.1z"/><path transform="rotate(-143.286 20.722 14.429)" class="st209 st290" d="M20.7 11.4h.1v6h-.1z"/><path transform="rotate(-142.82 20.77 14.464)" class="st209 st290" d="M20.7 11.5h.1v6h-.1z"/><path transform="rotate(-143.478 20.817 14.5)" class="st209 st290" d="M20.8 11.5h.1v6h-.1z"/><path transform="rotate(-143.533 20.862 14.535)" class="st209 st290" d="M20.8 11.5h.1v6h-.1z"/><path transform="rotate(-143.016 20.91 14.57)" class="st209 st291" d="M20.9 11.6h.1v6h-.1z"/><path transform="rotate(-143.006 20.958 14.606)" class="st209 st292" d="M20.9 11.6h.1v6h-.1z"/><path transform="rotate(-143.016 21.004 14.642)" class="st209 st292" d="M21 11.6h.1v6H21z"/><path transform="rotate(-143.339 21.051 14.677)" class="st209 st293" d="M21 11.7h.1v6H21z"/><path transform="rotate(-142.82 21.1 14.713)" class="st209 st293" d="M21.1 11.7h.1v6h-.1z"/><path transform="rotate(-143.475 21.146 14.748)" class="st209 st293" d="M21.1 11.8h.1v6h-.1z"/><path transform="rotate(-143.016 21.193 14.784)" class="st209 st293" d="M21.1 11.8h.1v6h-.1z"/><path transform="rotate(-143.286 21.242 14.82)" class="st209 st294" d="M21.2 11.8h.1v6h-.1z"/><path transform="rotate(-143.339 21.287 14.855)" class="st209 st294" d="M21.2 11.9h.1v6h-.1z"/><path transform="rotate(-142.769 21.335 14.891)" class="st209 st294" d="M21.3 11.9h.1v6h-.1z"/><path transform="rotate(-142.307 21.383 14.926)" class="st209 st295" d="M21.3 11.9h.1v6h-.1z"/><path transform="rotate(-142.823 21.43 14.961)" class="st209 st295" d="M21.4 12h.1v6h-.1z"/><path transform="rotate(-143.339 21.476 14.997)" class="st209 st295" d="M21.4 12h.1v6h-.1z"/><path transform="rotate(-142.627 21.525 15.034)" class="st209 st296" d="M21.5 12h.1v6h-.1z"/><path transform="rotate(-143.339 21.571 15.069)" class="st209 st297" d="M21.5 12.1h.1v6h-.1z"/><path transform="rotate(-142.82 21.62 15.104)" class="st209 st297" d="M21.6 12.1h.1v6h-.1z"/><path transform="rotate(-143.286 21.667 15.14)" class="st209 st297" d="M21.6 12.1h.1v6h-.1z"/><path transform="rotate(-143.339 21.713 15.175)" class="st209 st298" d="M21.7 12.2h.1v6h-.1z"/><path transform="rotate(-142.823 21.76 15.21)" class="st209 st299" d="M21.7 12.2h.1v6h-.1z"/><path transform="rotate(-142.307 21.81 15.246)" class="st209 st299" d="M21.8 12.3h.1v6h-.1z"/><path transform="rotate(-142.766 21.855 15.282)" class="st209 st299" d="M21.8 12.3h.1v6h-.1z"/><path transform="rotate(-143.533 21.903 15.318)" class="st209 st300" d="M21.9 12.3h.1v6h-.1z"/><path transform="rotate(-142.627 21.951 15.353)" class="st209 st300" d="M21.9 12.4h.1v6h-.1z"/><path transform="rotate(-143.533 21.997 15.389)" class="st209 st300" d="M22 12.4h.1v6H22z"/><path transform="rotate(-143.016 22.045 15.424)" class="st209 st301" d="M22 12.4h.1v6H22z"/><path transform="rotate(-143.533 22.092 15.46)" class="st209 st301" d="M22 12.5h.1v6H22z"/><path transform="rotate(-143.533 22.14 15.496)" class="st209 st301" d="M22.1 12.5h.1v6h-.1z"/><path transform="rotate(-143.016 22.187 15.531)" class="st209 st301" d="M22.1 12.5h.1v6h-.1z"/><path transform="rotate(-143.533 22.234 15.567)" class="st209 st302" d="M22.2 12.6h.1v6h-.1z"/><path transform="rotate(-142.82 22.283 15.603)" class="st209 st303" d="M22.2 12.6h.1v6h-.1z"/><path transform="rotate(-143.339 22.328 15.638)" class="st209 st303" d="M22.3 12.6h.1v6h-.1z"/><path transform="rotate(-142.766 22.375 15.673)" class="st209 st304" d="M22.3 12.7h.1v6h-.1z"/><path transform="rotate(-143.495 22.423 15.71)" class="st209 st304" d="M22.4 12.7h.1v6h-.1z"/><path transform="rotate(-143.016 22.47 15.745)" class="st209 st304" d="M22.4 12.7h.1v6h-.1z"/><path transform="rotate(-143.533 22.518 15.78)" class="st209 st304" d="M22.5 12.8h.1v6h-.1z"/><path transform="rotate(-143.478 22.566 15.817)" class="st209 st305" d="M22.5 12.8h.1v6h-.1z"/><path transform="rotate(-142.82 22.613 15.852)" class="st209 st305" d="M22.6 12.9h.1v6h-.1z"/><path transform="rotate(-142.82 22.66 15.887)" class="st209 st305" d="M22.6 12.9h.1v6h-.1z"/><path transform="rotate(-143.016 22.707 15.923)" class="st209 st306" d="M22.7 12.9h.1v6h-.1z"/><path transform="rotate(-143.339 22.753 15.958)" class="st209 st306" d="M22.7 13h.1v6h-.1z"/><path transform="rotate(-142.82 22.802 15.994)" class="st209 st306" d="M22.8 13h.1v6h-.1z"/><path transform="rotate(-143.339 22.848 16.03)" class="st209 st307" d="M22.8 13h.1v6h-.1z"/><path transform="rotate(-142.766 22.895 16.064)" class="st209 st308" d="M22.9 13.1h.1v6h-.1z"/><path transform="rotate(-143.339 22.942 16.1)" class="st209 st308" d="M22.9 13.1h.1v6h-.1z"/><path transform="rotate(-143.286 22.992 16.137)" class="st209 st308" d="M22.9 13.1h.1v6h-.1z"/><path transform="rotate(-142.82 23.04 16.172)" class="st209 st308" d="M23 13.2h.1v6H23z"/><path transform="rotate(-142.627 23.085 16.208)" class="st209 st309" d="M23 13.2h.1v6H23z"/><path transform="rotate(-142.82 23.134 16.244)" class="st209 st309" d="M23.1 13.2h.1v6h-.1z"/><path transform="rotate(-143.286 23.18 16.28)" class="st209 st310" d="M23.1 13.3h.1v6h-.1z"/><path transform="rotate(-142.82 23.228 16.315)" class="st209 st310" d="M23.2 13.3h.1v6h-.1z"/><path transform="rotate(-143.339 23.273 16.35)" class="st209 st310" d="M23.2 13.4h.1v6h-.1z"/><path transform="rotate(-143.016 23.321 16.386)" class="st209 st310" d="M23.3 13.4h.1v6h-.1z"/><path transform="rotate(-143.495 23.368 16.422)" class="st209 st311" d="M23.3 13.4h.1v6h-.1z"/><path transform="rotate(-143.006 23.417 16.457)" class="st209 st311" d="M23.4 13.5h.1v6h-.1z"/><path transform="rotate(-143.016 23.463 16.492)" class="st209 st311" d="M23.4 13.5h.1v6h-.1z"/><path transform="rotate(-142.769 23.51 16.528)" class="st209 st311" d="M23.5 13.5h.1v6h-.1z"/><path transform="rotate(-143.339 23.557 16.563)" class="st209 st312" d="M23.5 13.6h.1v6h-.1z"/><path transform="rotate(-143.475 23.606 16.599)" class="st209 st312" d="M23.6 13.6h.1v6h-.1z"/><path transform="rotate(-142.82 23.654 16.635)" class="st209 st313" d="M23.6 13.6h.1v6h-.1z"/><path transform="rotate(-143.482 23.7 16.67)" class="st209 st313" d="M23.7 13.7h.1v6h-.1z"/><path transform="rotate(-143.016 23.747 16.706)" class="st209 st313" d="M23.7 13.7h.1v6h-.1z"/><path transform="rotate(-143.533 23.794 16.742)" class="st209 st313" d="M23.8 13.7h.1v6h-.1z"/><path transform="rotate(-143.016 23.842 16.778)" class="st209 st313" d="M23.8 13.8h.1v6h-.1z"/><path transform="rotate(-142.823 23.889 16.812)" class="st209 st314" d="M23.8 13.8h.1v6h-.1z"/><path transform="rotate(-142.82 23.938 16.848)" class="st209 st314" d="M23.9 13.9h.1v6h-.1z"/><path transform="rotate(-143.339 23.982 16.884)" class="st209 st315" d="M23.9 13.9h.1v6h-.1z"/><path transform="rotate(-143.286 24.032 16.92)" class="st209 st315" d="M24 13.9h.1v6H24z"/><path transform="rotate(-142.82 24.08 16.955)" class="st209 st315" d="M24 14h.1v6H24z"/><path transform="rotate(-143.286 24.126 16.991)" class="st209 st315" d="M24.1 14h.1v6h-.1z"/><path transform="rotate(-142.82 24.174 17.027)" class="st209 st316" d="M24.1 14h.1v6h-.1z"/><path transform="rotate(-143.289 24.22 17.061)" class="st209 st316" d="M24.2 14.1h.1v6h-.1z"/><path transform="rotate(-142.82 24.268 17.098)" class="st209 st316" d="M24.2 14.1h.1v6h-.1z"/><path transform="rotate(-143.339 24.314 17.133)" class="st209 st316" d="M24.3 14.1h.1v6h-.1z"/><path transform="rotate(-142.627 24.362 17.169)" class="st209 st317" d="M24.3 14.2h.1v6h-.1z"/><path transform="rotate(-143.343 24.41 17.206)" class="st209 st317" d="M24.4 14.2h.1v6h-.1z"/><path transform="rotate(-143.339 24.456 17.24)" class="st209 st318" d="M24.4 14.2h.1v6h-.1z"/><path transform="rotate(-142.82 24.505 17.276)" class="st209 st318" d="M24.5 14.3h.1v6h-.1z"/><path transform="rotate(-143.286 24.552 17.312)" class="st209 st318" d="M24.5 14.3h.1v6h-.1z"/><path transform="rotate(-142.82 24.6 17.347)" class="st209 st318" d="M24.6 14.4h.1v6h-.1z"/><path transform="rotate(-143.283 24.646 17.382)" class="st209 st318" d="M24.6 14.4h.1v6h-.1z"/><path transform="rotate(-143.016 24.693 17.418)" class="st209 st319" d="M24.6 14.4h.1v6h-.1z"/><path transform="rotate(-143.289 24.74 17.453)" class="st209 st319" d="M24.7 14.5h.1v6h-.1z"/><path transform="rotate(-142.82 24.789 17.49)" class="st209 st320" d="M24.7 14.5h.1v6h-.1z"/><path transform="rotate(-143.533 24.835 17.525)" class="st209 st320" d="M24.8 14.5h.1v6h-.1z"/><path transform="rotate(-143.533 24.882 17.56)" class="st209 st320" d="M24.8 14.6h.1v6h-.1z"/><path transform="rotate(-143.016 24.93 17.596)" class="st209 st320" d="M24.9 14.6h.1v6h-.1z"/><path transform="rotate(-143.016 24.977 17.632)" class="st209 st321" d="M24.9 14.6h.1v6h-.1z"/><path transform="rotate(-143.016 25.024 17.667)" class="st209 st321" d="M25 14.7h.1v6H25z"/><path transform="rotate(-143.286 25.072 17.704)" class="st209 st321" d="M25 14.7h.1v6H25z"/><path transform="rotate(-142.974 25.118 17.737)" class="st209 st321" d="M25.1 14.7h.1v6h-.1z"/><path transform="rotate(-143.016 25.165 17.774)" class="st209 st322" d="M25.1 14.8h.1v6h-.1z"/><path transform="rotate(-142.82 25.214 17.81)" class="st209 st322" d="M25.2 14.8h.1v6h-.1z"/><path transform="rotate(-143.286 25.262 17.846)" class="st209 st323" d="M25.2 14.8h.1v6h-.1z"/><path transform="rotate(-143.339 25.307 17.88)" class="st209 st323" d="M25.3 14.9h.1v6h-.1z"/><path transform="rotate(-142.971 25.592 18.094)" class="st209 st323" d="M25.3 15.1h.7v6h-.7z"/><path class="st324" d="M42.3 6.9c.4-.2.9-.4 1.6-.4 1.1 0 1.8.6 1.8 1.4 0 .7-.5 1.2-1.1 1.3.7.1 1.3.6 1.3 1.3 0 1.2-1.1 1.6-2.1 1.6-.5 0-1.1-.1-1.6-.4l.2-.8c.3.1.8.3 1.3.3.7 0 1.1-.3 1.1-.9 0-.7-.7-.9-1.3-.9H43v-.6h.4c.6 0 1.1-.3 1.1-.8 0-.4-.3-.7-.9-.7-.4 0-.9.2-1.2.3l-.1-.7zm7.5 4.2c0 .4 0 .7.1 1H49l-.1-.4c-.2.3-.7.5-1.2.5-.8 0-1.2-.6-1.2-1.2 0-1 .9-1.5 2.4-1.5v-.1c0-.3-.1-.7-.8-.7-.4 0-.8.1-1.1.3l-.2-.7c.2-.2.7-.3 1.3-.3 1.3 0 1.6.8 1.6 1.7v1.4zm-1-1c-.7 0-1.4.1-1.4.7 0 .4.3.6.6.6.4 0 .7-.3.8-.5v-.8zm4.6-2v.8h-1.6V12h-1V8h2.6zm.7 1.3V8.1h.9v.6c.3-.5.7-.7 1.3-.7.9 0 1.7.8 1.7 2 0 1.4-.9 2.1-1.8 2.1-.5 0-.9-.2-1.1-.5v2.1h-1V9.4zm1 1v.3c.1.4.5.7.9.7.6 0 1-.5 1-1.3 0-.7-.3-1.3-1-1.3-.4 0-.8.3-.9.7v.9zm4.2-2.3l.7 2.1c.1.2.2.5.2.8.1-.2.1-.5.2-.8l.6-2.1h1.1l-1 2.7c-.5 1.5-.9 2.1-1.4 2.5-.4.3-.8.5-1 .5l-.2-.8c.2 0 .4-.1.6-.3.2-.1.4-.4.6-.6 0-.1.1-.1.1-.2v-.2l-1.5-3.6h1zm3.9 1.6h.5c.6 0 .9-.2.9-.5s-.3-.5-.7-.5c-.3 0-.7.1-1 .3l-.2-.6c.4-.3 1-.4 1.5-.4.7 0 1.5.3 1.5 1 0 .5-.5.8-.9.9.5 0 1 .4 1 1 0 .9-1 1.2-1.8 1.2-.5 0-1-.1-1.4-.3l.2-.6c.3.2.7.3 1.1.3.6 0 .9-.2.9-.5 0-.4-.4-.6-1-.6h-.5v-.7zm4.3-1.6v1.4c0 .6 0 1-.1 1.6.2-.5.3-.8.5-1.2l1-1.9h1.2v4h-1v-1.4c0-.6 0-.9.1-1.7-.2.5-.3.8-.5 1.1-.3.6-.7 1.3-1 2h-1.2V8h1zm6.7 0v.8H73V12h-1V8.8h-1.2v-.7h3.4zm1.2 2.2c0 .7.6 1 1.2 1 .5 0 .8-.1 1.1-.2l.1.7c-.3.1-.8.3-1.4.3-1.3 0-2-.8-2-2 0-1.1.7-2.1 2-2.1s1.7 1.1 1.7 1.9v.4h-2.7zm1.7-.7c0-.4-.2-1-.8-1-.6 0-.9.6-.9 1h1.7zm3.5-1.5c.3 0 .9-.1 1.4-.1.7 0 1.9.1 1.9 1 0 .5-.4.8-.8.9.6.1 1 .4 1 1 0 1.1-1.4 1.2-2.2 1.2h-1.3v-4zm.9 3.3h.5c.5 0 1-.1 1-.6 0-.4-.4-.6-1.1-.6h-.4v1.2zm0-1.7h.5c.5 0 .9-.1.9-.5 0-.3-.3-.5-.9-.5h-.5v1z"/></g></svg>