<svg xmlns="http://www.w3.org/2000/svg" width="163.694" height="40.323" viewBox="0 0 163.694 40.323"><g opacity=".6" fill="#FFF"><path d="M30.151 20.063c-.03-3.27 2.685-4.86 2.808-4.934-1.537-2.235-3.919-2.542-4.755-2.565-2.002-.209-3.942 1.195-4.962 1.195-1.039 0-2.61-1.174-4.3-1.139-2.176.034-4.213 1.289-5.331 3.241-2.305 3.979-.586 9.827 1.622 13.042 1.105 1.577 2.396 3.334 4.085 3.273 1.654-.067 2.27-1.05 4.266-1.05 1.977 0 2.556 1.05 4.279 1.01 1.774-.027 2.892-1.582 3.958-3.171 1.277-1.806 1.789-3.583 1.81-3.675-.043-.016-3.445-1.308-3.48-5.227m-3.255-9.614c.889-1.109 1.496-2.617 1.328-4.147-1.287.056-2.897.887-3.823 1.972-.82.954-1.552 2.521-1.363 3.994 1.445.107 2.929-.728 3.858-1.819m28.312 21.514h-1.953l-.261-5.339c-.125-2.412-.18-4.206-.167-5.377h-.056a74.058 74.058 0 0 1-1.469 4.828l-1.953 5.773h-1.525l-1.785-5.68a56.812 56.812 0 0 1-1.302-4.922h-.038a316.642 316.642 0 0 1-.223 5.472l-.298 5.244H42.3l.839-12.762h2.585l1.804 5.528a42.944 42.944 0 0 1 1.171 4.394h.056a50.335 50.335 0 0 1 1.264-4.394l1.878-5.528h2.585l.726 12.763zm8.814-.001h-1.804l-.149-1.06h-.056c-.621.847-1.5 1.267-2.641 1.267-.855 0-1.543-.276-2.064-.831-.471-.506-.706-1.129-.706-1.875 0-1.122.461-1.982 1.386-2.575.923-.594 2.222-.883 3.896-.871v-.17c0-1.212-.626-1.817-1.877-1.817-.893 0-1.681.227-2.362.682l-.409-1.345c.842-.529 1.877-.793 3.104-.793 2.368 0 3.551 1.268 3.551 3.806v3.39c.002.918.044 1.65.131 2.192m-2.082-3.161v-1.42c-2.219-.037-3.328.58-3.328 1.856 0 .48.129.84.388 1.079s.586.358.98.358c.443 0 .854-.141 1.229-.426.375-.283.607-.646.693-1.087.025-.1.038-.221.038-.36m10.524-5.794l-.391 1.553c-.508-.252-1.09-.379-1.748-.379-.88 0-1.577.3-2.092.9s-.771 1.361-.771 2.281c0 .971.27 1.742.809 2.311.539.566 1.225.852 2.054.852a4.64 4.64 0 0 0 1.823-.379l.279 1.534c-.657.314-1.487.474-2.491.474-1.375 0-2.472-.426-3.291-1.278-.819-.851-1.227-1.991-1.227-3.417 0-1.427.441-2.598 1.321-3.512.879-.916 2.064-1.374 3.551-1.374.841-.001 1.566.145 2.174.434m14.856 8.955h-2.138l-1.172-3.747h-4.072l-1.115 3.747H76.74l4.035-12.761h2.49l4.055 12.761zm-3.663-5.318l-1.059-3.334c-.11-.341-.322-1.141-.631-2.402h-.037c-.125.542-.323 1.343-.596 2.402l-1.04 3.334h3.363zm14.019.604c0 1.567-.417 2.804-1.253 3.712-.747.809-1.675 1.21-2.786 1.21-1.197 0-2.056-.433-2.58-1.306v4.828h-2.009v-9.906c0-.983-.024-1.99-.077-3.025h1.767l.11 1.457h.037c.669-1.097 1.686-1.644 3.051-1.644 1.063 0 1.955.428 2.668 1.288.715.857 1.072 1.985 1.072 3.386m-2.045.077c0-.897-.198-1.635-.598-2.217-.434-.604-1.015-.909-1.748-.909-.496 0-.943.166-1.348.501a2.33 2.33 0 0 0-.79 1.315 2.702 2.702 0 0 0-.094.626v1.535c0 .668.199 1.234.604 1.694.401.461.925.69 1.57.69.757 0 1.344-.297 1.765-.889.429-.594.639-1.375.639-2.346m12.44-.077c0 1.567-.417 2.804-1.253 3.712-.747.809-1.676 1.21-2.786 1.21-1.196 0-2.056-.433-2.58-1.306v4.828h-2.007v-9.906c0-.983-.026-1.99-.077-3.025h1.765l.112 1.457h.037c.669-1.097 1.683-1.644 3.051-1.644 1.064 0 1.955.428 2.669 1.288.712.857 1.069 1.985 1.069 3.386m-2.045.077c0-.897-.198-1.635-.596-2.217-.435-.604-1.017-.909-1.747-.909-.496 0-.945.166-1.349.501a2.33 2.33 0 0 0-.79 1.315 2.757 2.757 0 0 0-.094.626v1.535c0 .668.199 1.234.604 1.694.402.461.927.69 1.569.69.758 0 1.345-.297 1.766-.889.426-.594.637-1.375.637-2.346m13.667 1.06c0 1.085-.371 1.969-1.113 2.65-.815.745-1.954 1.118-3.413 1.118-1.349 0-2.428-.266-3.245-.797l.465-1.703c.88.529 1.847.796 2.901.796.755 0 1.344-.175 1.764-.521.423-.346.633-.812.633-1.393 0-.517-.173-.952-.519-1.306-.349-.352-.924-.682-1.728-.983-2.194-.835-3.293-2.054-3.293-3.656 0-1.047.388-1.905 1.163-2.575.774-.669 1.801-1.004 3.075-1.004 1.142 0 2.092.202 2.847.607l-.504 1.666c-.711-.392-1.512-.588-2.409-.588-.708 0-1.263.179-1.662.531a1.527 1.527 0 0 0-.504 1.154c0 .505.193.92.578 1.249.335.304.942.631 1.821.985 1.08.443 1.872.958 2.382 1.553.506.594.761 1.333.761 2.217m6.655-4.091h-2.211v4.469c0 1.135.391 1.704 1.17 1.704.36 0 .658-.029.893-.095l.057 1.554c-.396.151-.917.227-1.561.227-.794 0-1.414-.245-1.86-.738-.444-.491-.67-1.319-.67-2.481v-4.64h-1.321v-1.533h1.321v-1.684l1.972-.608v2.29h2.212l-.002 1.535zm9.967 2.991c0 1.415-.396 2.575-1.189 3.485-.831.938-1.935 1.402-3.311 1.402-1.327 0-2.383-.448-3.169-1.344-.788-.896-1.181-2.026-1.181-3.39 0-1.426.405-2.595 1.218-3.502.811-.909 1.906-1.362 3.282-1.362 1.327 0 2.391.445 3.199 1.341.768.872 1.151 1.996 1.151 3.37m-2.082.048c0-.842-.18-1.567-.539-2.172-.422-.729-1.023-1.094-1.803-1.094-.81 0-1.422.365-1.845 1.094-.359.604-.538 1.342-.538 2.211 0 .843.179 1.567.538 2.172.437.73 1.043 1.094 1.823 1.094.769 0 1.37-.368 1.804-1.114.374-.616.56-1.347.56-2.191m8.609-2.773a3.435 3.435 0 0 0-.633-.056c-.706 0-1.253.271-1.635.813-.335.481-.502 1.087-.502 1.818v4.828h-2.01v-6.304c0-1.063-.021-2.026-.059-2.898h1.747l.077 1.762h.056c.212-.607.547-1.092 1.004-1.459.447-.326.932-.49 1.451-.49.187 0 .353.012.502.037l.002 1.949zm8.98 2.368c0 .366-.025.675-.074.927h-6.025c.023.908.315 1.603.876 2.083.508.429 1.163.645 1.971.645.891 0 1.704-.147 2.436-.437l.315 1.421c-.854.379-1.866.566-3.031.566-1.402 0-2.503-.418-3.3-1.258-.8-.84-1.2-1.967-1.2-3.38 0-1.389.372-2.543 1.117-3.465.78-.984 1.835-1.478 3.162-1.478 1.302 0 2.286.493 2.955 1.478.532.783.798 1.748.798 2.898m-1.913-.532c.011-.605-.12-1.129-.392-1.57-.347-.568-.879-.852-1.599-.852-.659 0-1.189.278-1.598.833-.335.443-.533.973-.598 1.588l4.187.001zM42.75 8.398c.397-.25.958-.457 1.684-.457 1.157 0 1.882.586 1.882 1.458 0 .725-.502 1.243-1.183 1.397v.018c.769.096 1.381.613 1.39 1.416 0 1.26-1.19 1.726-2.261 1.726-.569 0-1.173-.121-1.648-.398l.242-.819c.293.155.854.354 1.363.354.752 0 1.192-.363 1.192-.924 0-.742-.75-.924-1.39-.924h-.456v-.794h.456c.673 0 1.192-.362 1.192-.889 0-.475-.363-.76-.958-.76-.44 0-.923.182-1.243.354l-.262-.758zm7.95 4.453c0 .379.019.751.07 1.01h-.959l-.077-.466h-.027c-.25.327-.69.561-1.242.561-.846 0-1.32-.612-1.32-1.251 0-1.053.94-1.597 2.493-1.588v-.069c0-.276-.112-.733-.854-.733-.415 0-.846.129-1.13.31l-.208-.69c.311-.189.854-.371 1.519-.371 1.347 0 1.734.854 1.734 1.778l.001 1.509zm-1.034-1.044c-.752-.009-1.467.146-1.467.785 0 .414.267.604.603.604a.87.87 0 0 0 .837-.578c.027-.077.027-.155.027-.232v-.579zm4.928-2.15v.837h-1.717v3.366h-1.062V9.657h2.779zm.65 1.399c0-.553-.017-1.001-.034-1.399h.932l.052.648h.017c.311-.475.802-.742 1.442-.742.965 0 1.768.828 1.768 2.141 0 1.519-.957 2.252-1.916 2.252-.525 0-.967-.224-1.182-.561h-.017v2.175h-1.062v-4.514zm1.062 1.045c0 .102.009.197.025.293a.97.97 0 0 0 .94.741c.673 0 1.071-.561 1.071-1.389 0-.742-.363-1.347-1.044-1.347-.44 0-.846.32-.958.785a1.456 1.456 0 0 0-.034.269v.648zm4.532-2.444l.75 2.252c.087.26.181.578.242.813h.026c.061-.234.138-.553.225-.82l.655-2.244h1.131l-1.054 2.865c-.578 1.571-.966 2.269-1.458 2.701-.423.362-.854.501-1.113.535L60 14.87c.181-.044.396-.139.613-.294.206-.129.44-.38.586-.664a.404.404 0 0 0 .061-.19.519.519 0 0 0-.052-.207l-1.545-3.858h1.175zm4.086 1.7h.501c.586 0 .923-.232.923-.535 0-.302-.285-.5-.76-.5-.353 0-.742.12-1.034.293l-.233-.63c.465-.275 1.036-.405 1.57-.405.717 0 1.58.275 1.58 1.113 0 .534-.492.845-.923.94v.025c.561.053 1.113.389 1.113 1.01 0 .976-1.096 1.277-1.959 1.277-.544 0-1.105-.129-1.518-.371l.24-.682c.294.164.744.285 1.165.293.587 0 .907-.25.907-.569 0-.448-.457-.587-1.053-.587h-.517v-.672h-.002zm4.602-1.7v1.51c0 .665-.027 1.114-.061 1.701h.035c.225-.492.346-.803.569-1.243l1.027-1.968h1.286v4.203h-1.009v-1.502c0-.673.025-.983.069-1.777h-.035c-.207.5-.344.803-.552 1.209-.319.621-.707 1.379-1.069 2.07h-1.269V9.657h1.009zm7.069 0v.82h-1.259v3.383h-1.062v-3.383h-1.259v-.82h3.58zm1.272 2.4c.025.759.613 1.088 1.295 1.088.492 0 .836-.078 1.165-.19l.155.725c-.363.155-.863.268-1.467.268-1.363 0-2.166-.836-2.166-2.123 0-1.164.707-2.261 2.054-2.261 1.364 0 1.813 1.122 1.813 2.046 0 .198-.017.353-.035.448h-2.814v-.001zm1.847-.743c.008-.389-.164-1.026-.872-1.026-.655 0-.932.595-.974 1.026h1.846zM83.35 9.71c.31-.053.958-.104 1.536-.104.709 0 1.976.095 1.976 1.061 0 .535-.413.837-.863.932v.018c.631.096 1.052.44 1.052 1.027 0 1.148-1.518 1.268-2.355 1.268-.536 0-1.096-.044-1.347-.052l.001-4.15zm1.035 3.512c.173.018.302.018.509.018.483 0 1.071-.121 1.071-.622 0-.466-.466-.621-1.131-.621h-.448v1.225h-.001zm.009-1.865h.439c.536 0 .984-.146.984-.553 0-.337-.292-.517-.914-.517-.215 0-.353.017-.509.034v1.036z"/><path d="M158.595.808c2.361 0 4.282 1.899 4.282 4.233v30.242c0 2.334-1.921 4.233-4.282 4.233H5.1c-2.361 0-4.283-1.899-4.283-4.233V5.04C.817 2.707 2.738.807 5.1.807l153.495.001zm0-.808H5.1C2.296 0 0 2.27 0 5.04v30.242c0 2.771 2.296 5.041 5.1 5.041h153.495c2.804 0 5.1-2.27 5.1-5.041V5.04c-.001-2.77-2.297-5.04-5.1-5.04z"/></g></svg>