<svg xmlns="http://www.w3.org/2000/svg" width="26" height="36" viewBox="0 0 26 36"><g fill="#FFF"><path d="M24.498 29.067c-1.563-3.39-3.109-6.79-4.78-10.127-1.144-2.285-1.925-4.595-1.621-7.187.06-.518.009-1.05.009-1.576V5.07h-1.964v1.073c0 2.66-.037 5.32.022 7.978.018.845.146 1.747.478 2.513 1.155 2.659 2.433 5.264 3.642 7.9.926 2.017 1.89 4.022 2.706 6.084.637 1.61-.01 2.445-1.714 2.45-2.257.006-4.514.001-6.772.001-3.309 0-6.618.009-9.927-.004-1.426-.005-2.004-.694-1.668-2.07.189-.771.51-1.52.847-2.244a1433.71 1433.71 0 0 1 5.18-10.965c.652-1.363.973-2.762.928-4.291-.072-2.472-.017-4.948-.02-7.422 0-.329-.03-.658-.049-1.028H7.931c0 2.015-.129 3.968.03 5.897.253 3.1-.54 5.87-1.94 8.608-1.725 3.375-3.289 6.839-4.788 10.323-1.176 2.732.378 5.195 3.574 5.127 4.79-.103 9.586-.024 14.379-.028 1.02-.001 2.044.025 3.059-.054 1.417-.11 2.446-1.064 2.798-2.443.311-1.218-.053-2.338-.545-3.407z"/><path d="M7.527 23.33a259.432 259.432 0 0 0-3.294 7.044c-.502 1.123-.14 1.584 1.126 1.587 2.536.006 5.073.002 7.61.002 2.599 0 5.198.004 7.796-.002 1.208-.003 1.535-.445 1.034-1.56a275.722 275.722 0 0 0-3.3-7.043c-.114-.234-.487-.485-.742-.488a461.2 461.2 0 0 0-9.466-.001c-.263.002-.652.231-.764.461zm8.088.845c.643.052 1.211.697 1.165 1.323a1.245 1.245 0 0 1-1.324 1.137c-.678-.04-1.207-.632-1.157-1.295.05-.652.687-1.216 1.316-1.165zm-5.164.367c1.156.053 2.076 1.077 2.006 2.234-.066 1.12-1.068 2.043-2.16 1.99-1.15-.056-2.08-1.091-2.014-2.238.064-1.11 1.076-2.036 2.168-1.986zM7.707 3.838c1.081.024 2.164.008 3.247.008 2.443 0 4.886.014 7.33-.009 1.114-.01 1.797-.755 1.586-1.67-.202-.873-.83-1.165-1.658-1.163-1.731.003-3.461 0-5.192.001-1.763 0-3.525-.015-5.287.006-.988.012-1.624.588-1.634 1.405-.01.811.629 1.4 1.608 1.422zm6.32 13.858c-.988.023-1.82.886-1.8 1.868.02.99.873 1.81 1.865 1.794a1.842 1.842 0 0 0 1.793-1.858c-.019-.99-.88-1.826-1.858-1.804zm-.22-4.068c-.075-.412-.488-.763-.75-1.14-.146-.002-.292-.002-.439-.003-.263.377-.682.727-.752 1.137-.11.648.37 1.039 1.01 1.022.596-.016 1.038-.427.93-1.016z"/></g></svg>