<svg xmlns="http://www.w3.org/2000/svg" width="47" height="37" viewBox="0 0 47 37"><path fill="#FFF" d="M16.732 1.07c-4.279.598-8.559 1.191-12.827 1.858-.464.073-.858.603-1.284.921-1.575.4-1.869.683-1.88 2.355a83.156 83.156 0 0 0 .058 3.352l-.002-.003-.041 23.125c.022 1.402.354 1.666 1.757 1.667 5.033.003 10.066.006 15.099-.005.651-.001 1.138.016 1.427.815.139.385.875.76 1.356.78 2.125.086 4.258.084 6.385.01.44-.016 1.143-.405 1.24-.756.251-.915.848-.845 1.512-.845 4.84.004 9.679.003 14.518.002 2.002 0 2.301-.287 2.302-2.253.002-8.517.001-17.034 0-25.551 0-2.15-.035-2.19-2.09-2.482-.417-1.082-.418-1.078-1.639-1.286-1.637-.28-3.265-.625-4.91-.84-2.757-.362-5.519-.75-8.292-.923C27.29.88 25.91 1.914 25.77 3.96c-.211 3.1-.055 6.223-.055 9.751 1.593-1.86 3.08-1.679 4.698-.081V2.264c.616.032 1.119.016 1.608.089 3.324.497 6.64 1.047 9.969 1.501.882.12 1.128.426 1.123 1.31-.037 7.472-.02 14.944-.023 22.416 0 .341-.032.683-.047.994-3.451-.51-6.84-1.023-10.231-1.507-2.985-.427-5.808-.2-8.069 2.139-.06.061-.209.272-.39.48v-24.8c0-5.01-7.62-3.814-7.62-3.814zm5.96 4.808c0 7.355.002 14.711 0 22.067 0 .402-.036.804-.061 1.356-1.544-1.31-3.079-2.337-4.973-2.342-2.043-.006-4.102.085-6.127.348-2.479.321-4.929.865-7.495 1.332V13.062l-.01-.01c.001-2.694.005-5.387-.004-8.08-.002-.545.018-.97.726-1.064 4.093-.537 8.18-1.13 12.276-1.64 0 0 5.669-1.04 5.669 3.61zM16.28 32.524c-3.862-.157-7.731-.12-11.597-.167-.303-.004-.605-.036-.955-.058-.15-1.344.48-1.788 1.624-1.961 3.393-.515 6.764-1.169 10.158-1.673 1.71-.254 3.415-.014 4.921.904.67.408 1.213 1.023 1.83 1.559-1.958 1.15-3.884 1.481-5.981 1.396zm27.003-.042H33.058c-.773 0-1.547.006-2.32.01-2.831.014-2.831.015-5.8-1.25.903-1.53 2.313-2.361 3.962-2.44 2.027-.095 4.086.03 6.1.29 2.33.302 4.62.9 6.942 1.28 1.113.184 1.528.734 1.34 2.11z"/></svg>