<svg xmlns="http://www.w3.org/2000/svg" width="37" height="28" viewBox="0 0 37 28"><path fill="#FFF" d="M34.97 23.528H2.03c-.57 0-1.03.46-1.03 1.03v1.817c0 .568.46 1.03 1.03 1.03h32.94c.57 0 1.03-.462 1.03-1.03v-1.818c0-.568-.46-1.029-1.03-1.029zM33.56.598a69348.34 69348.34 0 0 0-30.063 0c-1.376 0-1.86.497-1.861 1.905-.002 6.303-.001 12.606.001 18.91 0 .278.03.557.047.847h2.018V4.007c0-.568.46-1.03 1.029-1.03h27.538c.569 0 1.03.462 1.03 1.03v18.24h1.994c.032-.16.064-.243.064-.327.005-6.536.015-13.071.002-19.607-.002-1.212-.564-1.715-1.798-1.715z"/><path fill="#FFF" d="M26.874 8.043c-.152-.372-.755-.778-1.163-.78-.86-.002-1.723.249-2.679.412-.832-1.016-.69-1.685.717-1.942 1.03-.19 2.145-.246 3.17-.065 1.882.33 2.738 2.291 1.647 3.87-.616.89-1.658 1.478-2.476 2.236a23.028 23.028 0 0 0-1.713 1.774c-.145.167-.122.481-.195.815 1.363 0 2.636.028 3.908-.01.698-.022.883.256.89.922.009.692-.213.9-.9.881-1.74-.045-3.48-.034-5.22-.005-.596.01-.81-.192-.834-.796-.082-2.146.995-3.619 2.66-4.779.593-.413 1.249-.767 1.748-1.274.296-.301.57-.941.44-1.26zM14.613 9.871c.662-.003 1.324 0 2.096 0 0-.764.018-1.452-.005-2.139-.024-.682.395-.71.91-.72.526-.01.837.122.82.716-.019.665-.004 1.33-.004 2.14.676 0 1.301.018 1.924-.005.634-.023.879.25.874.884-.005.632-.239.899-.883.858-.601-.038-1.207-.008-1.915-.008 0 .764-.022 1.452.006 2.139.027.66-.279.838-.899.832-.594-.005-.856-.199-.834-.805.026-.69.006-1.381.006-2.167-.78 0-1.419-.026-2.054.008-.566.03-.702-.264-.688-.745.015-.466-.065-.984.646-.988zM8.947 6.239c.765-.298 1.594-.443 2.406-.603.47-.093.672.152.67.641-.012 3.07-.02 6.14.003 9.21.006.835-.56.613-1.013.657-.595.058-.925-.118-.919-.798.021-2.172.007-4.344.007-6.516V7.778c-.368 0-.623.065-.818-.016-.272-.114-.695-.326-.704-.514-.017-.343.136-.919.368-1.01zM4.772 22.26v-2.103h6.357c1.746 0 1.746 0 1.819 1.773.003.086.028.17.052.316"/><path fill="#FFF" d="M13 22.246c-.024-.145-.049-.23-.052-.316-.073-1.774-.073-1.774-1.819-1.773H4.772v2.103"/></svg>