<svg id="Layer_1" xmlns="http://www.w3.org/2000/svg" width="95.1" height="72.2" viewBox="0 0 95.1 72.2"><style>.st0{opacity:.4;fill:#fff}</style><path class="st0" d="M4.3 6.7c5.8.4 9.9-1.4 13.8-3.2C25.8 0 32.8-3.2 47.6 6 62.3-3.2 69.3 0 77 3.5c4 1.8 8.2 3.7 14.1 3.2 2-.2 3.8 1.3 3.9 3.3v58.4c0 2-1.6 3.7-3.7 3.7-7.7.6-12.7-1.6-17.4-3.8-6.1-2.8-11.7-5.3-24.5 3.2-1.3.8-2.8.8-4 0-12.8-8.5-18.3-6-24.4-3.2-4.8 2.2-9.9 4.5-17.8 3.8-1.8-.2-3.2-1.8-3.2-3.7V10.3c0-2 1.6-3.7 3.7-3.7.2 0 .4.1.6.1zm79.1 24.6c-2.6-.6-4.8-1.7-7-2.7-6-2.7-11.5-5.2-21.1-1.2-1.1.5-1.7 1.7-1.2 2.8.5 1.1 1.7 1.7 2.8 1.2 7.9-3.2 12.6-1.1 17.7 1.2 2.4 1.1 4.8 2.2 7.7 2.9 1.2.3 2.4-.4 2.7-1.6.3-1.1-.4-2.3-1.6-2.6zm0 10.7c-2.6-.6-4.8-1.7-7-2.7-6-2.7-11.5-5.2-21.1-1.2-1.1.5-1.7 1.7-1.2 2.8.5 1.1 1.7 1.7 2.8 1.2 7.9-3.2 12.6-1.1 17.7 1.2 2.4 1.1 4.8 2.2 7.7 2.9 1.2.3 2.4-.4 2.7-1.6.3-1.1-.4-2.3-1.6-2.6zm0 10.8c-2.6-.6-4.8-1.7-7-2.7-6-2.7-11.5-5.2-21.1-1.2-1.1.5-1.7 1.7-1.2 2.8.5 1.1 1.7 1.7 2.8 1.2 7.9-3.2 12.6-1.1 17.7 1.2 2.4 1.1 4.8 2.2 7.7 2.9 1.2.3 2.4-.4 2.7-1.6.3-1.1-.4-2.3-1.6-2.6zm0-32.2c-2.6-.6-4.8-1.7-7-2.7-6-2.7-11.5-5.2-21.1-1.2-1.1.5-1.7 1.7-1.2 2.8.5 1.1 1.7 1.6 2.8 1.2 7.9-3.2 12.6-1.1 17.7 1.2 2.4 1.1 4.8 2.2 7.7 2.9 1.2.3 2.4-.4 2.7-1.6.3-1.1-.4-2.3-1.6-2.6zm-70.6 15c2.9-.7 5.4-1.8 7.7-2.9 5.1-2.3 9.8-4.4 17.7-1.2 1.1.4 2.4-.1 2.8-1.2.5-1.1-.1-2.4-1.2-2.8-9.7-3.9-15.2-1.4-21.1 1.2-2.2 1-4.5 2-7 2.7-1.2.3-1.9 1.5-1.6 2.7.3 1.1 1.5 1.8 2.7 1.5zm0 10.7c2.9-.7 5.4-1.8 7.7-2.9 5.1-2.3 9.8-4.4 17.7-1.2 1.1.4 2.4-.1 2.8-1.2.5-1.1-.1-2.4-1.2-2.8-9.7-3.9-15.2-1.4-21.1 1.2-2.2 1-4.5 2-7 2.7-1.2.3-1.9 1.5-1.6 2.7.3 1.1 1.5 1.8 2.7 1.5zm0 10.7c2.9-.7 5.4-1.9 7.7-2.9 5.1-2.3 9.8-4.4 17.7-1.2 1.1.5 2.4-.1 2.8-1.2.5-1.1-.1-2.4-1.2-2.8-9.7-3.9-15.2-1.4-21.1 1.2-2.2 1-4.5 2-7 2.7-1.2.3-1.9 1.5-1.6 2.7.3 1.1 1.5 1.8 2.7 1.5zm0-32.2c2.9-.7 5.4-1.9 7.7-2.9 5.1-2.3 9.8-4.4 17.7-1.2 1.1.4 2.4-.1 2.8-1.2.5-1.1-.1-2.4-1.2-2.8-9.7-3.9-15.2-1.4-21.1 1.2-2.2 1-4.5 2-7 2.7-1.2.3-1.9 1.5-1.6 2.7.3 1.1 1.5 1.8 2.7 1.5zm36.9-11.6v49.6c13.3-7.5 20-4.5 27.3-1.2 3.2 1.4 6.5 3 10.8 3.2V14c-5.7-.2-9.9-2.1-13.8-3.9-6.1-2.7-11.6-5.2-24.3 3.1zm-4.3 49.6V13.2c-12.6-8.3-18.2-5.8-24.3-3.1-3.9 1.8-8.1 3.7-13.8 3.9v50.8c4.3-.3 7.6-1.8 10.8-3.2 7.3-3.3 14-6.3 27.3 1.2z"/></svg>