<svg id="Layer_1" xmlns="http://www.w3.org/2000/svg" width="94.9" height="77.9" viewBox="0 0 94.9 77.9"><style>.st0{opacity:.2;fill:#fff}</style><path class="st0" d="M83.1 40.3c2.7-3.5 4.4-8 4.4-12.9 0-11.5-9.5-21-21-21-4.8 0-9.2 1.6-12.7 4.3-.8.6-1.7 1.4-2.4 2.1-1.1-2.4-2.6-4.5-4.5-6.3-4.1-4-9.8-6.5-16-6.5-6.3 0-12 2.5-16.1 6.6-4.1 4.1-6.7 9.8-6.7 16.1 0 5.4 1.9 10.3 5 14.2C6.4 43.5 0 49.7 0 60.7v7.5c0 2 1.6 3.7 3.6 3.7h8.3v2.4c0 2 1.7 3.6 3.6 3.6h64.8c2 0 3.6-1.6 3.6-3.7v-1.8h7.2c2 0 3.6-1.6 3.6-3.7v-6.8c.2-10.1-5.3-15.4-11.6-21.6zM58.2 16.6c2.3-1.7 5.1-2.8 8.3-2.8 7.5 0 13.7 6.1 13.7 13.6 0 3.8-1.5 7.2-4 9.6-2.2 2.2-5.1 3.6-8.3 3.9.3-1.4.5-2.8.5-4.3 0-8-5.5-15-13.2-17 .9-1 1.9-2.1 3-3zm-7.3 9.9c5.6 0 10.3 4.6 10.3 10.2 0 2.8-1.2 5.4-3 7.2-1.9 1.9-4.4 3-7.2 3-5.6 0-10.2-4.5-10.2-10.2-.1-5.5 4.5-10.2 10.1-10.2zM20 11.8c2.8-2.8 6.7-4.5 10.9-4.5S39 9 41.8 11.8c2.1 2.2 3.7 5 4.2 8.1-7.4 2.1-12.7 9-12.7 16.9 0 .4 0 .8.1 1.2-.8.1-1.7.2-2.5.2-4.2 0-8.1-1.7-10.9-4.5-2.8-2.8-4.5-6.6-4.5-10.9 0-4.3 1.7-8.2 4.5-11zm-.8 58.8V57.9c0-1.2-1-2.2-2.2-2.2-1.2 0-2.2 1-2.2 2.2v6.6H7.3v-3.9c0-7.9 5.4-13.1 11-18.6l.3-.3C23.4 44.8 29.3 46 35 45l.5-.1c.4.7.8 1.4 1.2 2-4.8 4.7-9.2 9.4-9.2 17.4v5.5c0 .3 0 .5.1.8h-8.4zm47.9-4.4h-4.3v-3.8c0-1.2-1-2.2-2.2-2.2-1.2 0-2.2 1-2.2 2.2v8.3h-15v-8.3c0-1.2-1-2.2-2.2-2.2-1.2 0-2.2 1-2.2 2.2v3.8h-4.3v-1.8c0-5.2 3.5-8.8 7.4-12.5.7.4 1.5.8 2.2 1.1 2 .8 4.2 1.3 6.5 1.3 3.2 0 6.2-.9 8.8-2.4 4 3.8 7.4 7.2 7.4 12.5v1.8h.1zm20.5-1.1h-6.4v-5.7c0-1.2-1-2.2-2.2-2.2-1.2 0-2.2 1-2.2 2.2v11.2h-2.5c.1-.3.1-.5.1-.8v-5.5c0-7.4-3.5-11.6-7.8-15.9 4 0 7.8-1.2 11-3.2l.3.3c5.2 5 9.6 9.3 9.6 16.4v3.2h.1z"/></svg>