<svg id="Слой_1" xmlns="http://www.w3.org/2000/svg" width="114" height="107.774" viewBox="-240 367.1158447 114 107.7741699"><style>.st0{opacity:.2}.st1{fill:#fff}</style><path class="st0 st1" d="M-222.396 401.356h6.898v2.96h-19.585v8h2.48c.283.007.507.06.89.31.56.36 1.368 1.304 1.965 2.792.604 1.475 1 3.434.998 5.585.01 2.803-.767 5.307-1.745 6.846-.482.772-.999 1.289-1.383 1.55-.396.264-.596.287-.726.29h-2.48v8h91.48a16.652 16.652 0 0 0 11.8-4.887 16.652 16.652 0 0 0 4.887-11.8 16.653 16.653 0 0 0-4.887-11.799 16.652 16.652 0 0 0-11.8-4.887h-44.381v-2.96h57.068v-8h-2.48c-.129-.003-.329-.026-.725-.291-.288-.197-.651-.533-1.017-1.019-.552-.725-1.1-1.779-1.487-3.049a14.839 14.839 0 0 1-.624-4.328c-.011-2.868.719-5.392 1.648-6.89.457-.754.942-1.239 1.314-1.487.384-.25.608-.302.892-.31h2.48v-8h-91.48a16.652 16.652 0 0 0-11.8 4.888 16.652 16.652 0 0 0-4.887 11.8 16.652 16.652 0 0 0 4.887 11.799 16.653 16.653 0 0 0 11.8 4.887zm26.41-11.54v18.548l-5.888-2.97-5.624 2.742v-18.32h11.513zm52.382 22.5a8.642 8.642 0 0 1 6.143 2.544 8.642 8.642 0 0 1 2.544 6.143 8.642 8.642 0 0 1-2.544 6.143 8.642 8.642 0 0 1-6.143 2.544h-78.874c.28-.651.538-1.317.752-2.014.63-2.059.975-4.31.976-6.673-.009-3.139-.552-6.092-1.628-8.687h6.88v8.622l13.564-6.615 13.949 7.037v-9.044h44.381zm-84.935-33.79a8.642 8.642 0 0 1 6.143-2.544h78.772c-.012.03-.026.057-.038.086-1.044 2.574-1.585 5.498-1.588 8.601.008 3.162.608 6.117 1.714 8.687h-44.45v-3.54h3.546v-8h-34.603v8h3.545v3.54h-6.898a8.642 8.642 0 0 1-6.143-2.544 8.642 8.642 0 0 1-2.544-6.143 8.642 8.642 0 0 1 2.544-6.142zm-5.657 67.011a16.652 16.652 0 0 0-4.887 11.8 16.653 16.653 0 0 0 4.887 11.799 16.653 16.653 0 0 0 11.8 4.887h91.48v-8h-2.48c-.13-.003-.33-.026-.726-.291-.288-.197-.651-.533-1.017-1.019-.552-.725-1.1-1.779-1.487-3.049-.39-1.27-.625-2.75-.624-4.328-.011-2.869.719-5.392 1.648-6.89.457-.754.942-1.239 1.314-1.487.384-.25.608-.302.892-.31h2.48v-8h-91.48a16.652 16.652 0 0 0-11.8 4.888zm90.66 20.486h-78.86a8.642 8.642 0 0 1-6.143-2.544 8.642 8.642 0 0 1-2.544-6.143 8.642 8.642 0 0 1 2.544-6.142 8.642 8.642 0 0 1 6.143-2.545h78.772c-.012.03-.026.057-.038.086-1.044 2.574-1.585 5.497-1.588 8.601.008 3.162.608 6.117 1.714 8.687z"/></svg>