<svg id="Слой_1" xmlns="http://www.w3.org/2000/svg" width="138.667" height="104" viewBox="-228 368.8900146 138.6666718 104"><style>.st0{opacity:.2}.st1{fill:#fff}</style><path class="st0 st1" d="M-151.825 399.813l.007.088zm56.62-2.393a5.69 5.69 0 0 0-1.381-1.52c-.716-.543-1.352-.815-1.855-1.013-.505-.194-.897-.31-1.138-.391-18.526-6.167-37.056-12.308-55.566-18.493a10.877 10.877 0 0 0-3.464-.573c-1.347-.001-2.63.259-3.802.656-16.1 5.43-32.209 10.845-48.317 16.27-2.368.798-4.787 1.6-7.222 2.495-.803.304-1.785.746-2.748 1.715a5.888 5.888 0 0 0-1.224 1.842 5.992 5.992 0 0 0-.449 2.639c.031.614.134 1.264.359 1.929a6.057 6.057 0 0 0 1.892 2.753c.873.716 1.892 1.124 2.856 1.317v.002l.037.012c.084.027.298.112.648.23.863.285 2.103.741 3.502 1.274 2.103.802 4.58 1.782 6.917 2.69.48.186.945.366 1.407.543a28.437 28.437 0 0 0-1.72 3.923c-.993 2.862-1.49 5.869-1.523 8.957-1.142.915-2.072 2.023-2.711 3.255a9.756 9.756 0 0 0-1.103 4.5 9.653 9.653 0 0 0 1.235 4.726c.55.984 1.3 1.874 2.187 2.64-.77 4.362-2.412 8.324-4.96 12.062-1.368 2.014-3.3 3.9-5.507 6.066l-3.989 3.932 5.013 2.497c3.028 1.508 5.905 2.886 8.656 4.34.913.49 2.063.86 3.277.854a6.552 6.552 0 0 0 1.886-.28 7.707 7.707 0 0 0 1.563-.673c2.607-1.462 4.786-3.442 6.315-5.858 1.535-2.412 2.389-5.216 2.58-8.162.107-1.625.159-3.249.159-4.87a77.39 77.39 0 0 0-.165-4.868c.677.391 1.4.785 2.179 1.177 6.666 3.362 17.124 6.556 32.508 6.552 15.125.008 25.465-3.628 32.026-7.44 6.568-3.807 9.326-7.73 9.59-8.124l.685-1.014V412.74c5.67-1.898 11.34-3.799 17.012-5.69 1.127-.379 2.309-.975 3.327-2.032a6.642 6.642 0 0 0 1.833-4.115v-.002c.014-.166.021-.337.021-.511.012-.99-.276-2.101-.826-2.971zm-112.764 4.54a320.968 320.968 0 0 0-2.9-1.113l2.695-.91c16.104-5.423 32.214-10.838 48.32-16.271.531-.178.912-.235 1.245-.236.288.002.559.039.929.16 17.213 5.752 34.434 11.464 51.647 17.19-17.494 5.84-34.974 11.708-52.453 17.573a6.78 6.78 0 0 1-.233.075c-5.894-1.858-10.678-3.343-14.742-4.63 6.648-2.561 9.318-3.63 16.375-6.357.471-.182.99-.401 1.546-.707.416-.23.856-.512 1.297-.877a6.741 6.741 0 0 0 1.778-2.247c.46-.942.68-2.018.675-3.04 0-.225-.01-.447-.028-.667v-.002a7.566 7.566 0 0 0-.53-2.282 6.37 6.37 0 0 0-.978-1.636 6.317 6.317 0 0 0-2.223-1.702 7.746 7.746 0 0 0-2.344-.644 9.843 9.843 0 0 0-1.175-.07c-1.557-.001-2.98.368-4.213.87-10.91 4.438-16.84 7.046-27.672 11.367a21.444 21.444 0 0 0-2.822 1.372l-3.693-1.224a94.082 94.082 0 0 1-3.57-1.297c-2.123-.809-4.605-1.79-6.93-2.695zm5.125 32.034c-.39-.24-.606-.492-.753-.75a1.653 1.653 0 0 1-.213-.813c0-.267.062-.54.202-.81.142-.27.36-.546.737-.816.42-.3.85-.654 1.255-1.105.065-.071.124-.155.186-.231a6.308 6.308 0 0 0 1.348 1.402c.17.134.265.26.343.42.075.16.125.362.125.6 0 .446-.181.976-.605 1.406a7.337 7.337 0 0 0-1.297 1.787 6.042 6.042 0 0 0-1.328-1.09zm1.307 20.054c-.124 1.788-.59 3.194-1.352 4.404-.697 1.092-1.686 2.053-3.067 2.906a195.85 195.85 0 0 0-3.382-1.722 31.8 31.8 0 0 0 2.594-3.263 38.998 38.998 0 0 0 5.21-10.87c.085 1.402.139 2.803.139 4.202 0 1.45-.047 2.899-.142 4.343zm76.965-20.713c-1.008 1.1-3.15 3.125-6.799 5.161-5.388 2.998-14.075 6.064-27.502 6.07-14.29-.004-23.414-2.933-28.91-5.696-2.057-1.036-3.608-2.053-4.73-2.898a9.9 9.9 0 0 0 .9-4.081 9.4 9.4 0 0 0-.89-4.01 9.119 9.119 0 0 0-2.198-2.913c.01-.3.062-.76.127-1.36a20.51 20.51 0 0 1 .232-1.763c.24-1.255.522-2.328.854-3.228.41-1.105.876-1.931 1.464-2.646l5.357 1.89c6.416 2.263 13.844 4.507 25.821 8.284.69.22 1.416.326 2.08.323a7.54 7.54 0 0 0 1.678-.197c.47-.11.846-.233 1.147-.334 10.457-3.508 20.913-7.017 31.369-10.52v17.918z"/></svg>