<svg id="Layer_1" xmlns="http://www.w3.org/2000/svg" width="23.622" height="23.627" viewBox="0 0 23.621582 23.6269531"><style>.st0{fill:#ec2227}</style><path class="st0" d="M11.814 23.627c-3.155 0-6.122-1.229-8.354-3.46S0 14.97 0 11.814 1.229 5.691 3.46 3.46 8.658 0 11.814 0c3.155 0 6.122 1.229 8.353 3.46 4.606 4.606 4.606 12.102 0 16.707a11.736 11.736 0 0 1-8.353 3.46zm0-22.627a10.742 10.742 0 0 0-7.647 3.167A10.745 10.745 0 0 0 1 11.814a10.74 10.74 0 0 0 3.167 7.646 10.741 10.741 0 0 0 7.647 3.167 10.74 10.74 0 0 0 7.646-3.167c4.216-4.216 4.216-11.077 0-15.293A10.743 10.743 0 0 0 11.814 1z"/><path class="st0" d="M8.001 6.959l3.83 3.828 3.681-3.682.978.978-3.682 3.682 3.861 3.86-1.043 1.044-3.86-3.861-3.683 3.682-.977-.978 3.682-3.682-3.83-3.829L8.001 6.96z"/></svg>