<svg xmlns="http://www.w3.org/2000/svg" width="243.402" height="145.327" viewBox="0 0 243.4017334 145.3265991"><path fill="#F9A723" d="M66.31 60.086c.072 2.134-3.278 3.316-4.864 5.194-.057.068-.06.183-.087.276 2.024 1.444 5.273 2.595 5.707 4.417.387 1.62-2.346 3.985-3.773 6.129.798.36 1.573.735 2.368 1.062 4.515 1.854 4.648 1.925 2.228 6.148-1.35 2.356-.873 3.07 1.685 3.563 4.766.918 4.923 1.126 3.27 5.538-1.08 2.881-.213 3.693 2.488 3.267 3.753-.592 4.847.895 3.775 4.415-.884 2.904.36 4.03 3.118 3.063 3.869-1.358 4.87.165 4.377 3.773-.338 2.474.18 3.956 3.184 2.5 1.42-.689 3.074-.895 4.693-1.34.303 1.236.575 2.317.831 3.402.988 4.176 1.099 4.355 4.795 2.021 2.387-1.507 3.44-1.1 4.08 1.497.236.955.795 1.826 1.09 2.773.377 1.209.913 1.235 1.884.56 1.68-1.17 3.37-3.858 4.97-3.2 1.728.709 2.616 3.446 3.897 5.28.1.144.41.14.327.115 1.828-1.697 3.424-4.385 5.304-4.6 2.052-.235 3.15 3.095 5.012 4.503.185.14.456.164.783.275.535-.797 1.193-1.559 1.609-2.435 1.506-3.175 3.315-4.266 6.016-1.147 2.09 2.414 3.39 1.793 4.002-1.136.764-3.654 2.578-4.304 5.457-1.907 2.689 2.238 3.49.871 3.762-1.88.327-3.313 1.664-5.07 5.163-2.927.307.188.74.16 1.067.325 2.109 1.066 2.637.037 2.555-1.876-.033-.749.102-1.517-.018-2.246-.495-3.005 1.079-3.356 3.45-2.803.85.199 1.72.314 2.579.48 1.26.243 1.774-.088 1.69-1.54-.115-1.955-1.58-4.586-.267-5.655 1.36-1.106 4.028-.597 6.121-.816.234-.024.454-.189.84-.358-.232-.802-.457-1.628-.71-2.445-1.418-4.597-1.42-4.597 3.445-5.62.366-.077.734-.148 1.102-.222 1.465-.293 1.577-.944.952-2.295-2.385-5.16-2.327-5.182 2.82-7.456.436-.193.838-.462 1.404-.778l-4.551-6.063c.796-.531 1.508-1.036 2.249-1.495 4.271-2.65 4.373-2.77.556-5.824-1.874-1.5-1.982-2.463-.071-3.815.808-.572 1.448-1.377 2.242-1.974 1.396-1.05 1.254-1.742-.168-2.76-4.624-3.307-4.58-3.36-1.182-8.103.336-.47.897-.884.598-1.6-2.058-.877-5.047-1.22-5.934-2.766-1.127-1.968 1.725-3.955 2.395-6.13.073-.235.096-.486.168-.866-1.037-.285-2.086-.827-3.129-.817-4.105.04-4.553-1.996-2.988-5.105 1.441-2.861.439-3.777-2.448-3.428-3.228.391-5.057-.408-3.722-4.147.243-.682.11-1.49.218-2.23.164-1.133-.153-1.58-1.406-1.415-1.955.257-4.63 1.182-5.73.278-1.473-1.207-.218-4-.618-6.076-.045-.234-.162-.454-.318-.876-2.244.595-4.874 2.196-6.67 1.533-2.08-.768-1.298-4.145-2.023-6.312-.062-.184-.262-.322-.527-.634-1.079.549-2.313.941-3.251 1.699-2.801 2.261-4.29 1.214-4.947-1.848-.75-3.494-2.347-3.662-4.539-1.223-2.393 2.663-4.04 2.073-5.354-.958-.245-.566-.681-1.046-.963-1.6-.64-1.258-1.282-1.658-2.425-.4-1.316 1.446-2.506 4.14-4.192 3.812-1.705-.332-3.003-2.718-4.5-4.183-.259-.253-.62-.4-1.025-.654-.88 1.37-1.884 2.638-2.563 4.06-1.064 2.232-2.124 2.148-3.902.653-3.777-3.174-3.944-3.126-5.75 1.51-.778 1.998-1.376 2.821-3.534 1.372-1.35-.907-2.755-2.159-4.637-2.026-.297 1.275-.767 2.476-.822 3.697-.135 3.002-1.147 3.799-4.158 2.62-4.103-1.605-4.205-1.382-4.28 3.242-.027 1.633.338 3.249-2.408 2.9-1.689-.215-4.106-1.578-5.052.034-.763 1.301.182 3.604.365 5.462.047.484.078.97.136 1.709-1.406.074-2.789.353-4.112.179-3.55-.467-3.836 1.137-2.487 3.74 1.686 3.256.581 4.816-2.88 4.907-3.426.09-3.831 1.53-1.877 3.991 2.437 3.068 1.453 4.673-2.08 5.385-.48.097-.912.414-1.388.551-1.552.446-1.518 1.057-.638 2.358 3.17 4.693 3.11 4.741-1.771 7.643-.408.242-.898.348-1.224.47 2.17 2.234 5.077 3.883 5.136 5.629zm38.561-10.01c6.458 0 6.48.008 8.522-6.193 2.7-8.2 5.362-16.412 8.834-24.607 2.9 8.8 5.937 17.56 8.625 26.425.977 3.222 2.301 4.487 5.903 4.359 9.346-.331 18.712-.111 29.185-.111-2.496 1.854-4.2 3.133-5.917 4.393-5.836 4.28-11.588 8.683-17.555 12.771-2.724 1.866-3.673 3.514-2.426 6.92 2.95 8.053 5.4 16.29 7.992 24.473.245.774.967 1.525.352 2.696-8.006-5.775-16.055-11.419-23.893-17.343-2.143-1.62-3.437-1.4-5.418.08-7.878 5.882-15.884 11.594-24.746 18.025 2.514-7.707 4.7-14.402 6.882-21.1.424-1.302.835-2.609 1.242-3.917 2.221-7.149 2.238-7.175-3.898-11.635-6.721-4.886-13.481-9.718-21.143-15.235h27.46z"/><path fill="#FF4617" d="M173.816 126.69c2.29-4.694 4.894-9.234 7.348-13.848 3.188-5.996 6.35-12.005 9.672-18.287h-15.992l.311 3.327c-.497.076-.862.16-1.23.185-6.349.44-6.4.443-5.856 6.932.118 1.407-.156 1.635-1.536 1.584-2.216-.081-5.124-1.928-6.36-.445-1.23 1.475-.605 4.49-.814 6.826-.021.231-.194.449-.404.91-2.438-.73-5.432-2.673-7.235-1.886-1.973.86-1.35 4.67-2.263 7.077-.06.16-.317.245-.623.467-2.12-1.106-4.577-3.468-6.422-3.06-2.066.456-1.979 4.204-3.312 6.281-.116.182-.294.324-.466.51-2.038-1.432-4.049-3.97-6.106-4.008-2.582-.048-2.84 3.875-4.748 5.557-.094.083-.194.158-.357.29-1.74-1.747-3.324-4.687-5.275-4.955-2.495-.342-3.397 3.464-5.495 4.942-.17.12-.381.184-.62.297-1.425-2.044-2.465-5.159-4.37-5.833-2.142-.76-3.792 2.581-5.923 3.738-.2.108-.473.084-.792.133-.295-.65-.605-1.31-.896-1.977-2.386-5.482-2.472-5.638-7.527-2.798-2.967 1.667-2.867-.196-3.256-2.11-1.004-4.933-1.043-4.918-5.788-3.387-.933.3-1.89.528-3.024.841-.144-1.408-.489-2.649-.354-3.835.459-4.026-1.092-5.324-4.947-4.056-2.942.967-3.494-.273-3.068-3.074.71-4.672.55-4.807-4.307-4.991-2.484-.094-3.988-.535-2.487-3.506H53.833c0 .511-.087.796.012.983 5.598 10.558 11.278 21.074 16.759 31.692.925 1.793 2.118 1.75 3.621 1.75 31.976-.007 63.952-.02 95.928.038 1.887.004 2.816-.568 3.663-2.305zM53.997 112.658c-1.004-1.956-2.355-1.838-3.973-1.837-10.873.01-21.745.006-32.617.006H.255c5.361 4.745 10.079 8.934 14.811 13.106 3.654 3.222 3.664 3.215.047 6.719-4.792 4.642-9.588 9.28-15.113 14.629h70.957c-.25-.675-.365-1.137-.58-1.545-5.475-10.352-11.032-20.661-16.38-31.078zm173.541 17.122c-2.486-2.265-2-3.409.289-5.305 5.114-4.234 10.006-8.737 15.575-13.647-17.437 0-34.006.031-50.575-.046-1.767-.008-2.282.92-2.95 2.193-3.12 5.948-6.341 11.843-9.493 17.775-2.537 4.775-5.027 9.575-7.648 14.577h70.644c-5.701-5.64-10.605-10.777-15.842-15.548z"/></svg>