<svg id="Layer_1" xmlns="http://www.w3.org/2000/svg" width="117.7" height="32.2" viewBox="0 0 117.7 32.2"><style>.st0{fill:#0092d3}</style><path class="st0" d="M34.2 19.3l-.7.5c-.3-.7-.6-1.3-.9-1.7-.3-.4-.7-.6-1.1-.6 1.2-1.8 2.3-3.4 3.3-4.9 1-1.5 1.9-3 2.8-4.5.9-1.6 1.4-2.7 1.6-3.3 0-.7-.2-1.3-.6-1.8-.3-.5-.7-.8-1.2-.8-.6 0-1.1.5-1.6 1.3s-1 1.6-1.5 2.6-1.1 2.2-1.8 3.7-1.3 2.8-1.8 3.7c-.5.9-.9 1.6-1.2 2-.2.2-.6.5-1.4 1-.7.5-1.3 1-1.8 1.4-.4.4-.6.8-.6 1.2l-.2.2c-1.1.9-1.8 1.3-2.3 1.3-.2 0-.3-.1-.3-.4V20c0-.5.2-1.1.6-1.7.4-.6 1-1.3 1.7-2.2.8-.9 1.2-1.5 1.5-1.9.1-.2.1-.4.1-.6 0-.5-.1-1-.4-1.7-.3-.6-.5-.9-.7-.9-.4.1-1.2.6-2.4 1.4-1.2.8-2 1.4-2.4 1.8-.7.6-1.3 1.2-1.7 1.6-.4.4-1 1-1.7 1.8s-1 1.2-1.1 1.2c-.4.4-.7.6-.8.6h-.1v-.1c0-.3.3-.8.9-1.5l1.5-1.8c.5-.6.9-1.2 1.3-1.7.4-.6.5-1 .5-1.4 0-.6-.4-.9-1.2-.9-.6 0-1 .1-1.3.2-.3.2-.6.4-.9.7-.2.3-.7.9-1.4 1.9-1.5 2.3-2.2 4.3-2.2 5.9.1 2.1.6 3.2 1.5 3.2.5 0 1.1-.4 1.7-1.1.2-.2.6-.7 1.3-1.6.7-.9 1.3-1.6 1.7-2 .4-.4.8-.9 1.4-1.4.5-.5 1-.9 1.4-1-1.7 2.5-2.6 4.3-2.6 5.5v.4c.2 1.3.8 2 1.7 2 1 0 2.2-.6 3.6-1.9.6-.6 1.8-1.7 2-1.9l.6.6c-1.5 2.7-2.2 5.1-2 7.2.1 1.1.3 2 .8 2.7.5.7.9 1 1.4 1h.2c.9-.1 1.9-.6 3-1.5 1.1-1 2.1-2.2 2.9-3.6.8-1.4 1.1-2.8 1.1-4 0-.4-.1-.8-.2-1.3l.6-.3c-.1-.6-.5-1.9-.6-2.4zm-2.9 8.1c-.4 1.1-1.2 1.6-2.2 1.7-.2-.2-.4-.5-.6-1-.2-.5-.3-1-.3-1.5 0-.7 0-1.4.2-2.2.2-.8.5-1.5.9-2.2.3.3.8.5 1.3.4.1 0 .3 0 .6-.1.2-.1.5-.1.6-.2l.1 1.2c0 1.6-.2 2.9-.6 3.9zm56.1-16.7c.3 0 .7-.2 1.1-.5.4-.3.8-.7 1-1.2.3-.4.4-.8.4-1.3 0-.6-.3-.9-.8-1.1-.1-.1-.4-.2-.8-.1-.8 0-1.4.5-2 1.4-.2.5-.3 1-.3 1.4 0 .4.2.7.4 1 .3.3.6.4 1 .4z"/><path class="st0" d="M117.3 17.5c-.5.6-1.3 1.3-2.2 2-1 .8-1.6 1.1-2 1.1 0 0-.1 0-.1-.1-.1 0-.1-.1-.1-.1-.3-.2-.4-.5-.4-.9 0-.3.1-.8.3-1.2.2-.5.4-.8.6-1 .1-.1.3-.5.7-1.1.4-.6.7-1 .8-1.2.1-.3.2-.5.2-.7 0-.6-.4-1-1.1-1.5h.2c.3 0 .5-.1.6-.3.1-.2.2-.4.2-.6 0-.4-.2-.7-.6-1.1-.4-.3-.9-.5-1.6-.5-.6 0-1.1.1-1.6.2-.9.2-1.8.6-2.8 1-1 .5-1.9 1-2.8 1.7-.9.7-1.7 1.4-2.3 2.2-.7.8-1.1 1.7-1.3 2.6 0 .2 0 .4-.1.5-.4.3-.8.7-1.1 1-.9.7-1.8 1.1-2.5 1.1s-1.3-.4-1.9-1.2c.3-.2.8-.5 1.5-.9s1.3-.8 1.9-1.2c.5-.4.9-.8 1.3-1.2.3-.3.6-.8.9-1.4.3-.6.4-1.2.4-1.8 0-1-.5-1.6-1.5-2h-.3c-.4 0-.8.1-1.3.4-.5.3-1 .6-1.5 1-.6.4-.9.7-1 .8-2.2 2-4.2 3.9-6 5.7v-.5c.4-.6 1.1-1.5 1.9-2.5.8-1 2-2.4 3.6-4.3 1.5-1.8 2.8-3.3 3.7-4.4.9-1.1 1.6-2 2-2.6.7-1.1 1-2 1-2.6 0-.2-.1-.4-.2-.5-.1-.1-.3-.2-.4-.2-.4 0-1 .3-1.7.8-4.3 3.3-8 7.9-11.1 13.7-.3.5-.5 1.1-.6 1.8-.6.6-1.2 1.1-1.8 1.4-.9.5-1.6.8-2.3.9-.4 0-.8-.1-1.1-.4-.3-.3-.5-.6-.5-1.1v-.5c.3-.2.8-.6 1.5-1.4.7-.7 1.3-1.5 1.9-2.4.6-.8.8-1.5.8-2.1 0-.4-.2-.7-.5-.8-.3-.2-.7-.2-1.1-.2-.4 0-.8.1-1 .3-.3.2-.7.6-1.4 1.1-1.2 1.2-2.2 2.8-2.8 4.7-.1.4-.2.9-.2 1.3-.4.3-.9.7-1.6 1.1-1.1.7-1.9 1.1-2.3 1.1h-.1c-.2-.2-.3-.4-.3-.6 0-.4.2-.8.5-1.3.4-.5.8-1.1 1.3-1.8s.8-1 .9-1.1c.4-.6.5-1.1.5-1.4 0-.3-.2-1-.5-2.1-.1-.1-.2-.2-.4-.2-.1 0-.3 0-.4.1-.2.1-.3.2-.5.4s-.3.3-.4.3L71 18.4c1.1-1.7 1.9-3.2 2.5-4.4.4-.6.6-1.2.7-2 0-.3-.1-.6-.2-.8-.1-.2-.3-.3-.6-.3-.6 0-1.4.4-2.3 1.1-1.1.9-2.2 1.9-3.3 3-1.1 1.1-2.1 2.2-3.2 3.5-.5.5-.8.8-.9.8v-.1c0-.2.2-.6.7-1.3.5-.7 1-1.4 1.6-2.1 1-1.2 1.5-2.1 1.5-2.7 0-.3-.1-.6-.4-.8-.3-.2-.7-.3-1.3-.3-.4 0-1 .5-1.8 1.5s-1.4 1.8-1.7 2.4c-.5 1-.9 2-1 2.9-.2.2-.5.4-.8.6-1 .7-1.8 1.1-2.3 1.1-.6 0-.9-.3-.9-.8 0-.4.1-.9.4-1.5.3-.6.5-1 .7-1.2.1-.1.4-.4.9-.7.4-.4.8-.7 1-1l.6-.9c.1-.3.2-.7.2-1.1 0-.5 0-.8-.1-.9-.1-.6-.8-.9-1.9-.9-.4 0-.9 0-1.3.1-.5.1-1 .2-1.6.3-.6.1-1 .2-1.2.2.4-.5.6-.9.6-1.2 0-.3-.2-.4-.7-.4-.5 0-.8.1-.9.2-.7.5-1.4 1.3-2.1 2.2-.4.6-.7 1.1-.8 1.5-1.2-3.1-4.3-5.3-7.8-5.3-4.6 0-8.4 3.8-8.4 8.4 0 4.6 3.8 8.4 8.4 8.4 4.6 0 8.4-3.8 8.4-8.4 0-.5-.1-1.1-.2-1.6.7.4 1.8.7 2 .4.6-.2 1.8-.5 3.5-.8-.7.8-1.4 1.7-2 2.8-.7 1.1-1 2.1-1 2.9v.2c.1.8.4 1.4.8 1.8.4.4.9.6 1.4.6.5 0 1.2-.2 1.9-.6.7-.4 1.5-1 2.3-1.9l.8-.8c.1.6.2 1.3.5 2 .2.5.5.7.8.7.4 0 .9-.3 1.4-.9.5-.6 1.3-1.5 2.2-2.7.9-1.2 1.6-2 2-2.4.7-.7 1.2-1.1 1.5-1.1h.1c0 .1-.2.5-.5 1.1-.3.4-.6.9-.9 1.5l-.9 1.8c-.3.6-.4 1.1-.4 1.6 0 .4.1.7.3 1 .2.3.4.4.7.4.4 0 .9-.2 1.5-.6.6-.4 1.3-1.1 2-2 .2-.4.9-1 1.8-1.9 1-.9 1.5-1.4 1.7-1.6-.3.5-.5 1-.8 1.5-.3.5-.5 1.1-.8 1.6-.2.6-.3 1.1-.3 1.5 0 1 .4 1.6 1.3 2h.2c1 0 3.1-1.3 6.1-4 .1.7.4 1.3.7 1.9.5.8 1.2 1.2 2.1 1.2h.2c.9-.1 2-.6 3.2-1.7.8-.7 1.4-1.4 2.1-2.1.1.8.2 1.5.4 2.2.3.7.6 1.1.9 1.1.3 0 .5-.2.7-.5.2-.3.4-.6.7-1 .3-.4.5-.7.6-1 .2-.3.3-.6.5-.9.6.9 1.1 1.6 1.6 2.2.4.6.9 1.1 1.3 1.4.4.3.9.5 1.4.5 1.1 0 2.9-1.1 5.1-3.2.1.2.1.4.2.7.3.7.7 1.3 1.2 1.8s.9.7 1.3.7c.2 0 .5-.1.7-.3l4.7-4.4c-.5 1.7-.8 2.9-.8 3.7 0 1.2.4 1.8 1.3 1.8.6 0 1.3-.3 2.1-.8s1.7-1.2 2.6-2.1c.9-.9 1.7-1.9 2.4-2.9l-.6-.8zm-80.1 0c.4 1.1.5.4.5.9.1.5-1.6-1.2-1.8-2.3 0-.1 0-.2-.1-.3.9-2.9 3.6-5 6.8-5.1.5.2.8.3.8.3 0 .4-.1.5-.4.8-.2.2-.7.5-.6-.1-.4.1-.8-.2-1.1 0-.4.2-.4.5-.4 1 .3 0 .5 0 .8.1 0 .1.1.5 0 .6-.2.2-.4 0-.6.1-.3.1-.5.3-.8.4-.3.1-.6.2-.9.4-.3.2-.6.7-.8 1-.4.4-.5.3-1 .3-.4 0 0 .1-.6.8-.3.2-.2 0 .2 1.1zm6 3.9c-.9 0-.8.8-.8.7-.1.1-.2.6-.4.8-.3.3-.6.4-.8.7-.3.4-.9.7-.9.5.3-1-.1-.6-.2-.8-.2-.4-.7-.5-.9-.8-.2-.4 0-1.1 0-1.5 0-.6-.2-.9-.5-1.3-.4-.6-.8-1.4-.6-2.1 0-.2.1.3.2-.6.1-.9 1.3-.6 2.1 0 .6.5 1.2 1.3 2 1.4.2 0 .4-.1.6 0 .2.1.3.3.4.4.4.3.8.1 1 .5.2.6-.9 1.9-1.2 2.1zm5.8-7.8c-.1 0-.2-.1-.3-.1-.3-.2-.4-.3-.8-.3-.1 0 .1-.1-.3-.1-.7.5-.9-.7-.8-.8 0-.1.1-.3 0-.4-.1-.2-.4-.3-.6-.4 1.1.4 2.1 1.2 2.8 2.1zm-.2 9c.2-.9.3-1.4.5-1.7.4-.6-.5-1.1-.4-1.9h-.4c-.3 0-.5.2-.7.2-.4 0-.5-.3-.6-.6-.1-.4-.5-.5-.7-.9-.1-.2-.1-1 0-1.3.2-.3.5-.3.7-.6.2-.3.4-.6.7-.9.1-.1.1-.3.4-.3h.4c.1 0 .7.3.6.1-.1-.1.2-.1.5 0 .5 1 .8 2.1.8 3.3-.1 1.7-.7 3.3-1.8 4.6zm46.5-4l-.5-.5c-.1 0-.2 0-.3-.1-.2-.1-.3-.1-.4-.1 1.2-1 2.3-1.7 3.2-2.3 1-.6 1.6-.8 2-.8.2 0 .3 0 .3.1 0 .5-1.4 1.7-4.3 3.7zm12.2.1c-1.5 1.5-2.5 2.3-3.1 2.3-.1 0-.2 0-.3-.1-.1-.1-.1-.2-.1-.3v-.4c0-.5.2-1.1.7-1.7.5-.6 1.1-1.2 1.9-1.7 1.2-1 2.9-2 5.2-2.9-1.4 1.7-2.8 3.3-4.3 4.8zm-93.8-7.5c1.4-3.1 2.1-5.6 2.1-7.5 0-.9-.1-1.6-.3-2.2C15 .5 14.1 0 12.8 0 7.7 0 1.9 7 1.1 8.2.4 9.4 0 10.4 0 11.2c0 .6.2 1.1.6 1.3 1.1.9 1.8 1.3 2.3 1.3.2 0 .6-.2 1-.5.5-.3 1.1-.7 1.6-1.2.6-.5.9-.9.9-1.2 0-.2-.2-.3-.5-.3-.1 0-.7.1-1.7.3.2-.6.7-1.3 1.3-2 .7-.7 1.4-1.5 2.2-2.2.9-.6 1.6-1.2 2.4-1.7.9-.6 1.7-.9 2.2-.9.6 0 .8.3.8.9 0 .5-.1 1.1-.4 1.9-.3.7-.6 1.6-1.1 2.6-.4 1-.7 1.6-.8 1.9-1.3 2.6-3.1 5.7-5.4 9.2-.8 1.1-1.2 2.1-1.2 2.9 0 .8.5 1.5 1.4 1.5h.2c.5 0 1.1-.4 1.7-1.2.6-.7.9-1.5.9-2.2 0-.3 0-.5-.1-.8.7-.8 1.6-2.2 2.7-4.3 1.1-2 2-3.8 2.7-5.3z"/></svg>