<svg xmlns="http://www.w3.org/2000/svg" width="117.083" height="128.25" viewBox="0 0 117.083 128.25"><path fill="#FF1D25" d="M117.083 102.833l-8.27-12.75-14.655 3.727s.925 1.523 2.675 4.773C48.083 108.333 15 127 15 128.25c7-2.5 102.083-25.417 102.083-25.417zm-54.22 6.872l8.93-2.44c.839-.229 1.681.174 1.88.902l.225.823c.199.728-.321 1.503-1.16 1.733l-8.93 2.44c-.84.229-1.681-.174-1.88-.902l-.225-.823c-.199-.728.32-1.504 1.16-1.733z"/><path d="M57.492 25.317l.014.106 1.545-.673a138.388 138.388 0 0 0 6.709-3.156L63.25 18l-9.76 3.47s1.114 1.55 2.99 4.166l1.012-.319zm29.927 26.964a96.028 96.028 0 0 1-5.502 4.943l-1.249 1.038-.899-.277c6.224 8.805 12.048 17.126 15.483 22.237C46.287 94.547 11.375 125.209 12 126.167c26.408-22.235 98.73-40.5 98.73-40.5L87.419 52.281z" fill="#0071BC"/><linearGradient id="a" gradientUnits="userSpaceOnUse" x1="75.219" y1="16.725" x2="30.552" y2="104.392" gradientTransform="matrix(1 0 0 -1 .16 127.285)"><stop offset="0" stop-color="#e6e6e6"/><stop offset="1" stop-color="#ccc"/></linearGradient><path fill="url(#a)" d="M45.855 30.393c2.344-1.357 4.88-2.708 6.971-3.543-3.379-4.985-6.049-8.796-7.326-10.35C26 20 15 31.5 15 31.5c14.5-7.5 27.625-8.25 27.625-8.25s.666 1.893 3.23 7.143z"/><linearGradient id="b" gradientUnits="userSpaceOnUse" x1="57.46" y1="7.677" x2="12.793" y2="95.344" gradientTransform="matrix(1 0 0 -1 .16 127.285)"><stop offset="0" stop-color="#e6e6e6"/><stop offset="1" stop-color="#ccc"/></linearGradient><path fill="url(#b)" d="M75.059 61.394c-.259.196-3.767 2.831-8.976 6.089 1.209 2.092 3.167 5.405 4.5 7.684C42.625 87 10.417 119.833 10.417 119.833L0 99s2.5 9.25 9.5 23.75C41.25 94 85.25 76.25 85.25 76.25s-4.16-6.453-9.813-15.142l-.378.286z"/><path fill="#FFF" d="M38.75 38.75c-.091 0-.152.099-.188.271.21-.176.286-.271.188-.271z"/><linearGradient id="c" gradientUnits="userSpaceOnUse" x1="87.037" y1="22.747" x2="42.37" y2="110.413" gradientTransform="matrix(1 0 0 -1 .16 127.285)"><stop offset="0" stop-color="#e6e6e6"/><stop offset="1" stop-color="#ccc"/></linearGradient><path fill="url(#c)" d="M110.25 0C95 3.5 83.75 16.25 79 24.25c1.75-2.75 0-6.5 0-6.5s-9 5.5-18.75 9.75c-.75 6-4.75 15.75-9.25 17.25 2.5-2.75 4.75-10 4-15.5-4.75 1.5-14.5 8-14.5 8s1.25 11 0 9.5c-1.098-1.318-2.195-6.489-1.938-7.729-1.4 1.173-8.932 6.011-13.063 11.229 1.25.75 1.75 9.25 0 14.75-2-2-1.25-12.5-2.25-12.25S17.5 58.5 14.5 68.5c2.25 2.25 1.75 11 1.75 11l-4.5-6.25c3.5 14.5 0 16.75 0 16.75S9.5 86.25 6 85.5c5.25 6.25 5.75 20.75 5.75 20.75l1.5-1.25C13.75 93.5 18 93.5 18 93.5s1.25-.75.25-3C29.25 77.25 41.5 78 41.5 78s-2.5-2.5-13-2.5c6.75-2.75 16.5-3 21-2.5C62 67.5 73.25 59 73.25 59c-4-1.5-6.75-2.5-14.885-3C68.961 54.109 76.75 54.25 80 55.25 97.75 40.5 101.75 26.5 101.75 26.5s-2.5 1.25-8 2.25C109.5 18.25 112 3 110.25 0zM81.093 31.499C70.959 38.385 59.407 45.16 46.565 53.95c-25.69 16.862-31.277 37.538-31.277 37.538l-1.259.272c.034-.144 5.389-21.651 31.406-39.46 12.908-8.835 24.481-15.622 34.534-22.455 10.056-6.834 17.115-11.852 24.02-20.854l1.448-.929c-8.312 11.126-14.212 16.552-24.344 23.437z"/></svg>