<svg id="Layer_1" xmlns="http://www.w3.org/2000/svg" width="23.627" height="23.627" viewBox="0 0 23.6270008 23.6273994"><style>.st0{fill:#3db54a}</style><path class="st0" d="M11.814 23.627C5.299 23.627 0 18.327 0 11.813S5.3 0 11.814 0c6.513 0 11.813 5.3 11.813 11.813s-5.3 11.814-11.813 11.814zm0-22.627C5.85 1 1 5.851 1 11.813s4.851 10.814 10.814 10.814c5.962 0 10.813-4.851 10.813-10.814S17.777 1 11.814 1z"/><path class="st0" d="M12.55 5.685V11.1h5.208v1.382H12.55v5.46h-1.475v-5.46H5.87V11.1h5.207V5.685h1.475z"/></svg>