<svg id="Layer_1" xmlns="http://www.w3.org/2000/svg" width="64" height="64" viewBox="-247 449 64 64"><style>.st0{opacity:.6;fill:#bababa}.st0,.st1{enable-background:new}.st2{fill:#424242}</style><circle class="st0" cx="-215" cy="481" r="32"/><path class="st1 st2" d="M-229.6 492.8h2.4c.6 0 1 0 1.3.1s.5.3.8.5.3.6.3 1c0 .3-.1.6-.2.8s-.3.4-.6.6c.3.1.5.3.7.5s.3.6.3 1c0 .6-.3 1-.6 1.3s-.9.4-1.7.4h-2.8v-6.2zm1 2.6h1.1c.4 0 .8 0 .9-.1s.3-.1.5-.3.2-.3.2-.5c0-.3-.1-.6-.3-.7s-.6-.2-1.2-.2h-1.2v1.8zm0 2.7h1.4c.6 0 1-.1 1.2-.2s.3-.4.4-.7c0-.2-.1-.4-.2-.6s-.3-.3-.5-.3-.5-.1-1-.1h-1.3v1.9zm5.3-5.3h2.4c.6 0 1 0 1.3.1s.5.3.8.5.3.6.3 1c0 .3-.1.6-.2.8s-.3.4-.6.6c.3.1.5.3.7.5s.3.6.3 1c0 .6-.3 1-.6 1.3s-.9.4-1.7.4h-2.8v-6.2zm1.1 2.6h1.1c.4 0 .8 0 .9-.1s.3-.1.5-.3.2-.3.2-.5c0-.3-.1-.6-.3-.7s-.6-.2-1.2-.2h-1.2v1.8zm0 2.7h1.4c.6 0 1-.1 1.2-.2s.3-.4.4-.7c0-.2-.1-.4-.2-.6s-.3-.3-.5-.3-.5-.1-1-.1h-1.3v1.9zm9.4-1.1l1.1.1c-.2.6-.5 1.1-1 1.5s-1.1.5-1.8.5c-.9 0-1.6-.3-2.2-.8s-.8-1.3-.8-2.4c0-1 .3-1.9.8-2.4s1.2-.9 2.1-.9c.8 0 1.5.3 2 .8s.8 1.4.8 2.4v.3h-4.6c0 .7.2 1.2.6 1.6s.8.5 1.3.5c.4 0 .7-.1 1-.3s.6-.5.7-.9zm-3.4-1.7h3.5c0-.5-.2-.9-.4-1.2-.3-.4-.8-.6-1.3-.6s-.9.2-1.2.5-.6.7-.6 1.3zm6.7 6.1v-8.6h1v.8c.2-.3.5-.6.8-.7s.6-.2 1-.2c.5 0 1 .1 1.4.4s.7.7.9 1.2.3 1 .3 1.6c0 .6-.1 1.2-.3 1.7s-.6.9-1 1.2-.9.4-1.4.4c-.4 0-.7-.1-.9-.2s-.5-.3-.7-.6v3h-1.1zm.9-5.5c0 .8.2 1.4.5 1.8s.7.6 1.2.6.9-.2 1.2-.6.5-1 .5-1.8-.2-1.4-.5-1.8-.7-.6-1.2-.6c-.4 0-.8.2-1.2.6s-.5 1-.5 1.8zm5 3.1l2.3-3.2-2.1-3h1.3l1 1.5c.2.3.3.5.4.7.2-.3.3-.5.5-.7l1-1.5h1.3l-2.2 2.9 2.3 3.3h-1.3l-1.3-1.9-.3-.5-1.6 2.5h-1.3z"/><path class="st2" d="M-214.2 464.2l-9.1 9.1c-.2.2-.5.2-.7 0-.2-.2-.2-.5 0-.7l9.1-9.1c.2-.2.5-.2.7 0s.2.5 0 .7z"/><path class="st2" d="M-214.2 463.5l9.1 9.1c.2.2.2.5 0 .7-.2.2-.5.2-.7 0l-9.1-9.1c-.2-.2-.2-.5 0-.7.2-.2.5-.2.7 0z"/><path class="st2" d="M-214.1 464.2v17.6c0 .3-.2.5-.5.5s-.5-.2-.5-.5v-17.6c0-.3.2-.5.5-.5s.5.2.5.5z"/></svg>