<svg id="Слой_1" xmlns="http://www.w3.org/2000/svg" width="74.064" height="55" viewBox="-270.78033 252.32886 74.06409 55"><style>.st0{fill:#898989}</style><path class="st0" d="M-261.784 293.474c.497 0 .893.407.893.893a.888.888 0 1 1-1.776 0c0-.486.396-.893.883-.893zm57.126-.554c.486 0 .882.396.882.882a.889.889 0 1 1-.882-.882zm-58.144-2.59l-3.212 2.217-.724-1.03c-.283-.384-.441-.644-.498-.791a.965.965 0 0 1 0-.667c.068-.238.238-.442.486-.622.204-.136.396-.216.577-.238.181-.023.35 0 .51.057.146.056.282.124.384.225.135.125.316.34.52.634l.294.407 1.21-.825.453.633zm-3.122 1.199l.916-.622-.248-.35c-.182-.25-.317-.408-.408-.476a.635.635 0 0 0-.305-.09.546.546 0 0 0-.305.101.53.53 0 0 0-.215.306.546.546 0 0 0 .045.35c.034.09.136.25.305.475l.215.306zm-2.205-2.16l-.374-.792 1.46-1.663-2.183.147-.34-.735 3.258-.056a2.6 2.6 0 0 1 .848.09.71.71 0 0 1 .475.407c.102.215.17.385.192.51l-.531.248c-.046-.102-.08-.192-.125-.282-.068-.16-.158-.26-.249-.306-.101-.045-.26-.056-.497-.023l-1.934 2.455zm.034-7.148l.056-.792c.441.011.792.125 1.063.34.272.203.453.52.554.916.125.497.057.95-.203 1.357-.271.407-.701.678-1.3.825-.623.159-1.166.125-1.595-.113-.43-.237-.713-.622-.849-1.142-.113-.464-.068-.87.136-1.222.113-.214.317-.395.6-.554l.373.701a.843.843 0 0 0-.396.397.829.829 0 0 0-.045.553.88.88 0 0 0 .474.6c.25.124.6.136 1.052.022.475-.124.803-.293.962-.509a.875.875 0 0 0 .136-.746.73.73 0 0 0-.328-.464c-.159-.112-.396-.169-.69-.169zm-.102-4.275l.282-.747c.419.136.724.35.928.633.192.272.271.623.249 1.041-.023.509-.226.928-.6 1.233-.373.316-.87.453-1.481.418-.656-.034-1.142-.226-1.493-.577-.34-.35-.498-.79-.464-1.334.023-.475.181-.848.475-1.13a1.64 1.64 0 0 1 .747-.352l.147.78a.852.852 0 0 0-.498.26.801.801 0 0 0-.204.52c-.01.284.08.522.272.713.204.182.532.295 1.006.317.487.023.849-.045 1.064-.215a.81.81 0 0 0 .35-.667.781.781 0 0 0-.17-.543c-.124-.158-.328-.271-.61-.35zm-2.273-2.398l.203-.758 1.617.43c.023-.17.012-.294-.045-.373-.045-.08-.226-.227-.509-.43-.373-.271-.577-.498-.633-.678-.057-.181-.045-.442.056-.792 0-.023.012-.057.023-.113l.566.147-.035.113c-.045.147-.056.271-.033.35.022.08.068.159.135.215.068.068.204.181.43.328.124.08.215.159.294.238a.92.92 0 0 1 .17.35.777.777 0 0 1 .396-.339 4.22 4.22 0 0 1 .723-.192l1.177-.238-.238.882-1.108.193c-.011 0-.045.011-.09.023-.012 0-.08.01-.204.045-.204.045-.35.09-.407.146-.068.046-.113.136-.159.26l1.663.442-.204.746-3.788-.995zm2.816-2.895a2.538 2.538 0 0 1-.826-.588 2.004 2.004 0 0 1-.328-.566 1.58 1.58 0 0 1-.09-.6c.01-.26.09-.53.226-.813.26-.51.622-.837 1.097-.996.475-.147.995-.09 1.572.181.565.283.939.645 1.108 1.108.17.453.125.94-.124 1.448-.26.52-.622.848-1.086 1.007-.475.147-.995.09-1.55-.181zm.328-.736c.407.193.746.25 1.052.17.294-.09.508-.271.644-.543a.988.988 0 0 0 .034-.836c-.113-.283-.373-.52-.78-.713-.408-.193-.758-.249-1.04-.17-.284.08-.499.26-.645.543-.136.294-.147.577-.034.848.113.272.362.51.769.701zm3.45-2.261l-3.179-2.274 1.708-2.318.543.384-1.244 1.697.701.497 1.153-1.572.532.385-1.154 1.572.871.622 1.278-1.753.543.385-1.753 2.375zm.78-6.877l2.001-1.72.43.499-1.402 1.199 2.137 2.431-.6.51-2.566-2.919zm4.852.882l-2.127-3.245 2.432-1.561.362.554-1.776 1.13.475.725 1.651-1.064.362.555-1.651 1.052.577.882 1.844-1.176.361.542-2.51 1.606zm1.99-3.562c-.192-.35-.305-.668-.328-.962-.023-.214 0-.418.056-.633.057-.215.148-.396.272-.543.159-.215.385-.385.667-.543.498-.271.996-.339 1.47-.192.476.136.871.486 1.177 1.03.305.554.396 1.062.271 1.537-.124.464-.44.837-.95 1.12-.509.271-.995.34-1.47.204-.475-.147-.86-.487-1.165-1.018zm.701-.419c.215.385.464.622.758.724.294.102.577.08.848-.079a.968.968 0 0 0 .52-.667c.057-.283-.01-.634-.237-1.018-.215-.396-.464-.634-.746-.724-.283-.102-.555-.068-.849.079-.282.158-.463.385-.52.667-.068.294.011.634.226 1.018zm2.68-3.494l2.466-.973.238.6-1.72.69 1.222 2.974-.735.294-1.47-3.585zm4.332 2.443l-1.153-3.687 1.221-.374c.453-.135.758-.203.916-.215a.975.975 0 0 1 .645.204c.204.136.35.362.44.656.08.226.091.43.058.6a1.02 1.02 0 0 1-.204.463 1.175 1.175 0 0 1-.34.294c-.169.09-.429.192-.768.294l-.498.147.441 1.391-.758.227zm-.203-3.292l.328 1.04.418-.124c.294-.09.486-.17.577-.237a.503.503 0 0 0 .18-.566.548.548 0 0 0-.225-.294.485.485 0 0 0-.35-.067 4.02 4.02 0 0 0-.555.135l-.373.113zm6.718 1.561l-.849.192-.531-.78-1.527.35-.113.928-.814.192.599-4.105.815-.192 2.42 3.415zm-1.776-1.165l-.848-1.278-.192 1.516 1.04-.238zm4.298.408l.056.44-.769.091-.056-.441c-.622.056-1.086-.045-1.369-.294-.294-.249-.464-.588-.52-1.007-.056-.441.034-.814.271-1.108.227-.306.645-.51 1.245-.6l-.046-.373.77-.102.045.385c.622-.057 1.074.045 1.368.294.294.237.464.577.509 1.007.057.418-.022.78-.249 1.097-.226.305-.644.509-1.255.61zm-.079-.656c.203-.023.373-.08.509-.159a.623.623 0 0 0 .282-.317c.046-.124.057-.294.034-.508-.068-.566-.418-.804-1.04-.724l.215 1.708zm-.77.1l-.214-1.718c-.328.045-.566.147-.69.305-.124.17-.18.396-.136.69.068.554.407.792 1.04.724zm3.02-3.098l.747-.034.135 2.568 1.448-2.647.78-.045.215 3.857-.746.045-.136-2.522-1.447 2.6-.792.046-.204-3.868zm4.276-.124l.791.045-.056.916c-.011.306-.011.498.01.6.012.101.08.192.182.271.102.068.272.113.475.125.17.01.328 0 .463-.023.125-.034.25-.08.351-.147l.08-1.663.791.045-.203 3.857-.792-.045.09-1.55c-.17.057-.328.102-.486.136a2.122 2.122 0 0 1-.464.023c-.384-.011-.712-.125-.961-.317-.25-.192-.362-.52-.34-.961l.069-1.312zm3.698 4.06l.487-3.834 2.883.34-.08.655-2.103-.26-.101.86 1.945.226-.08.656-1.945-.238-.135 1.04 2.17.261-.078.645-2.963-.35zm6.333-.418l.713.384c-.204.396-.453.667-.757.815-.318.147-.68.18-1.086.101-.51-.101-.894-.35-1.154-.757-.26-.407-.34-.905-.215-1.504.124-.634.384-1.087.78-1.38.396-.283.871-.374 1.414-.272.464.09.825.305 1.063.633.136.193.226.453.249.77l-.803.033a.78.78 0 0 0-.192-.52.9.9 0 0 0-.486-.271.9.9 0 0 0-.759.169c-.214.17-.372.487-.463.928-.09.486-.067.848.068 1.086.135.237.339.373.622.43a.754.754 0 0 0 .566-.091c.18-.102.327-.283.44-.554zm2.319-1.968l.746.226-.486 1.572c.181.034.305.023.385-.023.079-.056.237-.215.452-.486.283-.362.52-.554.712-.61.181-.046.453-.023.803.09.011 0 .057.011.114.022l-.181.555-.102-.034c-.159-.046-.272-.068-.362-.046a.479.479 0 0 0-.226.113 4.11 4.11 0 0 0-.34.419c-.09.113-.17.215-.248.282-.08.069-.204.114-.363.148a.803.803 0 0 1 .329.418c.067.17.124.407.181.713l.192 1.165-.894-.272-.147-1.085c0-.012-.011-.046-.022-.091 0-.011-.012-.08-.034-.204-.046-.215-.09-.35-.136-.407-.045-.068-.136-.124-.26-.158l-.509 1.617-.758-.226 1.154-3.698zm2.579 2.861c.147-.362.327-.645.542-.848a1.98 1.98 0 0 1 .543-.362c.204-.08.396-.124.6-.124.26-.012.542.045.837.17.542.203.905.542 1.085.995.193.463.17.983-.079 1.56-.238.577-.577.973-1.029 1.165-.452.204-.95.192-1.482-.011-.543-.215-.904-.555-1.085-1.007-.193-.452-.17-.961.068-1.538zm.768.283c-.17.407-.203.747-.09 1.04.102.283.294.476.588.6.294.113.577.102.849-.023.27-.136.497-.407.667-.825.17-.408.204-.758.101-1.03a.993.993 0 0 0-.599-.588c-.306-.124-.588-.124-.86.011-.27.136-.486.396-.655.815zm2.625 3.212l1.9-3.382 2.533 1.391-.317.577-1.855-1.018-.418.758 1.72.939-.317.565-1.72-.939-.52.916 1.923 1.052-.328.566-2.601-1.425zm5.518.961c.25-.305.499-.531.77-.656.192-.101.396-.17.622-.192a1.56 1.56 0 0 1 .61.045 2 2 0 0 1 .758.407c.453.362.69.78.735 1.267.046.498-.135.984-.531 1.47-.396.487-.849.758-1.335.815-.497.068-.961-.08-1.413-.442-.453-.361-.702-.78-.747-1.266-.045-.487.136-.973.531-1.448zm.645.486c-.283.34-.407.656-.396.962a.955.955 0 0 0 .396.746c.238.193.51.272.814.226.294-.056.589-.248.883-.599.282-.34.407-.667.396-.95-.011-.294-.147-.543-.396-.747-.26-.203-.532-.282-.826-.226-.294.045-.588.238-.87.588zm4.423 1.21l2.001 2.116-.486.44-1.459-1.538-.656.611.724.758c.192.215.327.407.407.6.079.18.102.396.057.621-.057.227-.17.43-.362.6-.192.18-.408.283-.634.305-.237.034-.44.012-.61-.068-.17-.079-.362-.237-.589-.474l-1.255-1.335 2.862-2.635zm-1.844 2.76l.52.555c.17.18.294.293.384.35a.45.45 0 0 0 .295.08.51.51 0 0 0 .316-.125c.124-.125.181-.26.159-.407-.035-.159-.159-.34-.362-.566l-.554-.577-.758.69zm5.09.747l.395.678-2.827 1.606.565.973 2.828-1.606.395.667-2.827 1.606.588 1.007 2.817-1.606.395.667-2.827 1.606.18.305-1.311.747-.328-.566.746-.418-2.194-3.732 3.404-1.934zm-.77 6.82l3.789-.996.746 2.76-.633.17-.554-2.014-.837.227.509 1.877-.633.17-.51-1.878-1.028.272.565 2.08-.645.17-.769-2.839zm2.455 5.87l-.204.757c-.43-.09-.758-.26-.984-.52-.215-.26-.34-.6-.362-1.018-.023-.509.124-.939.464-1.29.34-.339.814-.531 1.436-.565.645-.034 1.166.102 1.538.419.385.316.588.735.611 1.278.022.475-.09.86-.362 1.176-.158.18-.396.328-.701.43l-.226-.758a.77.77 0 0 0 .463-.317.774.774 0 0 0 .147-.531.828.828 0 0 0-.35-.679c-.215-.17-.554-.237-1.018-.215-.498.023-.848.125-1.051.317a.837.837 0 0 0-.272.701.75.75 0 0 0 .226.52c.135.147.362.238.645.294zm-1.606 2.227l3.2.566.204-1.131.656.113-.543 3.02-.656-.113.204-1.131-3.201-.555.136-.769zm3.189 3.8l-.554 1.448a4.113 4.113 0 0 1-.295.622.913.913 0 0 1-.293.328.992.992 0 0 1-.408.159.864.864 0 0 1-.474-.057.833.833 0 0 1-.42-.317.833.833 0 0 1-.18-.486 1.093 1.093 0 0 1-.532.384.943.943 0 0 1-.61-.034 1.335 1.335 0 0 1-.453-.305 1.053 1.053 0 0 1-.249-.452c-.045-.17-.034-.35.012-.555.034-.124.147-.418.328-.882l.475-1.232 3.653 1.38zm-.894.51l-.837-.328-.192.474c-.113.294-.17.464-.192.543a.495.495 0 0 0 .011.34.43.43 0 0 0 .249.214.435.435 0 0 0 .317.012.436.436 0 0 0 .226-.226c.045-.068.124-.272.26-.611l.158-.418zm-1.447-.555l-.984-.373-.26.679c-.102.26-.158.43-.17.509a.44.44 0 0 0 .046.316c.044.102.135.17.27.215a.478.478 0 0 0 .306.034.474.474 0 0 0 .26-.17c.068-.079.17-.294.294-.622l.238-.588zm-1.041 3.02c.34.204.588.43.758.667.125.18.215.385.26.588.057.215.068.419.034.611a2.2 2.2 0 0 1-.316.792c-.306.474-.702.769-1.188.87-.487.102-1.007-.01-1.55-.338-.531-.34-.86-.736-.984-1.211-.112-.475-.022-.95.283-1.436s.701-.78 1.188-.882c.486-.102.984.011 1.515.339zm-.407.69c-.373-.226-.713-.317-1.017-.272a1.043 1.043 0 0 0-.713.475.974.974 0 0 0-.113.826c.08.294.316.554.701.792.385.237.724.328 1.006.282.294-.056.532-.214.701-.486.17-.271.215-.554.137-.837-.091-.282-.317-.543-.702-.78zm-58.065 7.701c.272-.338.555-.576.837-.723.215-.102.441-.17.679-.204.238-.022.464-.011.667.046.283.079.554.215.837.43.486.373.758.825.814 1.345.057.52-.135 1.052-.565 1.573-.43.52-.916.825-1.448.893-.543.068-1.051-.09-1.549-.464-.498-.384-.77-.837-.826-1.346-.045-.52.136-1.04.554-1.55zm.724.51c-.305.362-.44.712-.43 1.029.023.328.17.588.442.792.27.214.565.282.893.237.328-.056.645-.271.95-.656.305-.362.453-.7.43-1.018-.023-.316-.17-.577-.441-.791-.283-.215-.588-.295-.905-.238-.328.057-.633.272-.939.645zm4.954 3.958l.577.645c-.362.317-.724.497-1.097.532-.362.033-.747-.057-1.142-.295-.487-.283-.78-.678-.894-1.176-.102-.509.011-1.04.362-1.594.373-.588.814-.95 1.335-1.086.52-.136 1.04-.057 1.549.237.44.272.724.611.848 1.03.068.248.057.542-.045.87l-.837-.26a.847.847 0 0 0 .011-.6.872.872 0 0 0-.407-.452.992.992 0 0 0-.837-.102c-.282.09-.554.34-.826.758-.282.453-.395.815-.35 1.097.045.295.204.51.464.668a.875.875 0 0 0 .622.113c.215-.034.44-.159.667-.385zm.61 1.98l1.765-3.767.792.35-.701 1.471 1.537.679.702-1.482.78.35-1.764 3.756-.78-.34.769-1.651-1.538-.667-.78 1.64-.781-.34zm4.39-.306c.135-.396.304-.712.52-.95.157-.17.338-.316.553-.43.215-.102.43-.17.645-.192.283-.023.6.011.928.113.599.181 1.029.509 1.266.973.249.475.26 1.029.057 1.674-.204.633-.554 1.074-1.018 1.323-.475.249-1.018.294-1.617.113-.611-.192-1.03-.51-1.267-.984-.249-.464-.26-1.006-.068-1.64zm.858.237c-.147.442-.147.815-.01 1.109.146.294.372.498.7.588.328.102.634.068.928-.09.283-.17.498-.476.645-.94.146-.451.158-.813.022-1.096a1.105 1.105 0 0 0-.713-.588 1.145 1.145 0 0 0-.927.09c-.283.158-.497.475-.645.927zm4.162-.995l1.663.385c.328.068.577.135.724.203.158.068.294.159.395.272a.925.925 0 0 1 .238.407.827.827 0 0 1 .011.498.924.924 0 0 1-.282.486 1.064 1.064 0 0 1-.52.249c.237.135.407.294.497.497.09.204.113.419.056.656-.044.181-.135.35-.26.498a1.12 1.12 0 0 1-.463.34 1.35 1.35 0 0 1-.61.056 23.89 23.89 0 0 1-1.019-.204l-1.425-.328.995-4.015zm.68.86l-.227.927.543.125c.328.079.531.124.622.124.147.023.271 0 .373-.056a.418.418 0 0 0 .192-.295.461.461 0 0 0-.022-.327.5.5 0 0 0-.283-.204c-.08-.034-.328-.09-.724-.181l-.475-.113zm-.397 1.595l-.26 1.074.77.181c.305.068.497.102.587.113a.692.692 0 0 0 .34-.09.52.52 0 0 0 .203-.317.536.536 0 0 0-.011-.328.562.562 0 0 0-.215-.249c-.113-.057-.35-.136-.735-.226l-.679-.158zm6.458 2.827l-.927-.124-.25-.973-1.696-.215-.475.882-.904-.113 2.205-3.879.905.113 1.142 4.309zm-1.357-1.821l-.373-1.594-.78 1.447 1.153.147zm1.798 1.82l.034-4.127h.87l-.01 1.628 1.685.012.012-1.629.858.011-.022 4.129-.87-.012.022-1.798-1.696-.011-.011 1.798h-.872zm4.015-1.978c-.034-.419.012-.78.124-1.075.08-.214.204-.407.363-.588a1.75 1.75 0 0 1 .52-.407 2.48 2.48 0 0 1 .916-.215c.622-.034 1.143.125 1.538.475.407.35.633.86.668 1.538.045.668-.103 1.2-.453 1.595-.35.396-.837.61-1.47.656-.633.034-1.154-.124-1.55-.475-.395-.35-.622-.848-.656-1.504zm.882-.091c.035.475.17.815.408 1.052.237.226.52.328.87.305.34-.022.61-.158.826-.407.204-.26.283-.622.26-1.097-.034-.475-.17-.814-.395-1.04-.227-.215-.521-.317-.871-.294-.362.022-.645.158-.837.407-.204.249-.295.6-.26 1.074zm4.785-2.454l1.662-.35c.34-.08.588-.114.757-.125a1.08 1.08 0 0 1 .872.34c.113.124.192.27.237.44.034.193.023.374-.045.554a1.025 1.025 0 0 1-.34.453c.26.011.487.09.668.238a.98.98 0 0 1 .34.565c.045.181.045.373 0 .566-.058.192-.136.35-.273.486-.124.136-.305.237-.519.316-.136.046-.475.125-1.007.25l-1.425.305-.927-4.038zm.995.498l.215.927.554-.124c.328-.068.532-.113.61-.136a.642.642 0 0 0 .306-.226c.068-.09.08-.204.045-.34a.427.427 0 0 0-.17-.282.56.56 0 0 0-.35-.068c-.09.011-.328.056-.724.136l-.486.113zm.373 1.594l.249 1.086.78-.17c.306-.067.498-.113.566-.158a.495.495 0 0 0 .271-.226.484.484 0 0 0 .045-.362.632.632 0 0 0-.17-.294.534.534 0 0 0-.304-.124c-.125-.012-.374.022-.758.101l-.679.147zm7.205-.01l-.78.248-.985-2.827a2.75 2.75 0 0 1-.803.893l-.238-.679a2.42 2.42 0 0 0 .532-.576c.181-.26.272-.52.272-.792l.633-.203 1.369 3.935zm.859-2.704c-.238 0-.43-.045-.577-.147a.993.993 0 0 1-.339-.407 1.003 1.003 0 0 1-.012-.826c.125-.271.373-.486.747-.644.373-.159.701-.181.995-.09.295.1.497.293.623.576.079.17.1.35.067.52a.875.875 0 0 1-.248.487 1.13 1.13 0 0 1 .655.158c.193.113.328.283.43.486.158.35.17.69.034 1.007-.125.305-.385.554-.77.712-.361.147-.69.181-1.017.102-.373-.09-.645-.328-.814-.701a1.115 1.115 0 0 1-.091-.633.953.953 0 0 1 .317-.6zm-.181-.803c.068.147.158.249.283.294a.541.541 0 0 0 .395-.022c.136-.069.238-.148.284-.272a.494.494 0 0 0-.023-.396.512.512 0 0 0-.283-.271.512.512 0 0 0-.385.022.498.498 0 0 0-.293.272.482.482 0 0 0 .022.373zm.667 1.651c.091.204.215.34.374.408a.556.556 0 0 0 .463 0 .563.563 0 0 0 .317-.329c.056-.147.034-.327-.057-.53a.73.73 0 0 0-.35-.363.603.603 0 0 0-.464.011c-.181.068-.294.193-.328.351a.68.68 0 0 0 .045.452zm4.275-.509l-.396-.735-1.55.78-.338-.621.396-3.145.599-.316 1.267 2.33.464-.238.339.61-.476.238.397.736-.702.361zm-.735-1.357l-.667-1.255-.204 1.696.871-.441zm1.663-.373l.644-.498c.125.136.261.226.407.25.159.033.306 0 .43-.069a.555.555 0 0 0 .25-.396c.022-.18-.035-.384-.193-.61-.136-.215-.294-.34-.464-.385a.578.578 0 0 0-.486.08c-.204.112-.328.316-.373.576l-.61.271-.838-2.024 1.821-1.13.419.621-1.312.803.282.656c.113-.17.238-.305.407-.396a1.21 1.21 0 0 1 .984-.158c.362.08.645.294.882.633.181.294.272.6.25.927-.034.453-.261.804-.68 1.064-.327.203-.655.283-.983.248a1.389 1.389 0 0 1-.837-.463zm2.76-4.275l1.617-1.278.418.486-.984.78 1.561 1.821-.633.498-1.98-2.307zm3.426 1.085l-.588-.554.577-.565.588.554-.577.565zm-29.428-34.155c-.158-.08-.441-.113-.339-.362a.586.586 0 0 1 .192-.215c.022-.011.114.011.158 0 .09-.011.192-.158.272-.102.112.09.112.362-.034.407-.102.023-.113.046-.158.102-.035.034-.068.147-.09.17zm1.3-5.383c8.55 0 16.31 2.408 21.93 6.288 5.69 3.935 9.218 9.387 9.218 15.415 0 6.04-3.529 11.49-9.218 15.426-5.62 3.88-13.38 6.289-21.93 6.289-8.56 0-16.308-2.41-21.94-6.289-5.69-3.935-9.207-9.386-9.207-15.426 0-6.028 3.517-11.48 9.207-15.415 5.632-3.88 13.38-6.288 21.94-6.288zm18.458 5.598c-.305-.159-.622-.328-.927-.475a49.4 49.4 0 0 1-2.33.893c.305.192.916.373 1.403.475.576.124.633.09.994.283.284.158.759.554.544.803-.124.136-.578.147-.837.147-.192 0-.464-.102-.566.011-.102.102.226.441.238.634 0 .26-.158.452-.09.633l.067.09c.18.181.317.43.577.51.249.079.645 0 .826.214.249.294.35.6.361.871.012.26.114.407.046.554-.023.034-.272.057-.554-.079.384.701.723 1.436 1.017 2.183a98.44 98.44 0 0 0 6.718-1.821 21.755 21.755 0 0 0-2.488-2.511c-.068.408.023 1.04-.271 1.222-.6.384-.927-1.81-1.391-1.99-.306-.114-.871.599-1.12-.216-.204-.69-.736-.384-1.29-.735-.802-.498-.723-.644-.96-1.685l.033-.011zm-1.877-.928c-2.341-1.074-4.908-1.922-7.646-2.51a20.376 20.376 0 0 1 5.022 3.449c.034 0 .057 0 .079-.011a46.03 46.03 0 0 0 2.545-.928zm-11.92-3.19a40.505 40.505 0 0 0-3.349-.237c2.014 1.075 3.823 2.93 5.271 5.35l.102.17c.294-.08.475.34.758.542.475-.09.938-.18 1.413-.282.566-.283 1.04-.61 1.244-.645.215-.022.385.113.578.226.814-.215 1.639-.44 2.453-.7-2.397-2.15-5.293-3.7-8.47-4.423zm-6.323-.225a46.83 46.83 0 0 0-3.155.237c-3.043.713-5.814 2.172-8.143 4.185a49.37 49.37 0 0 0 1.707.543c.283-.294.487-.566.622-.441.147.147.136.396.08.633.565.159 1.12.306 1.673.43.159-.136.046-.577.181-.724 1.052-1.052.385-.758-.09-1.504-.464-.735 1.334-.656 1.651-.86.418-.26 1.312-.339 1.618-.26.316.08.022.328.384.294.124-.011.283-.09.452-.181.94-.984 1.946-1.776 3.02-2.352zm-7.42.939a36.688 36.688 0 0 0-5.281 1.549c.136.136.271.317.43.509.068.09.497.158.565.271.057.09-.192.475-.61.543-.193.034-.758-.056-.826-.056.34.135.667.26 1.007.373a20.233 20.233 0 0 1 4.716-3.19zm-12.62 5.428c-1.641 1.188-3.077 2.5-4.276 3.925.837.26 1.663.509 2.488.746v-.09c-.011-.204.35-.238.453-.453.124-.26.045-.701.305-.882.147-.124.554-.057.667-.18.453-.465.362-.442.306-.498-.193-.147-.611-.25-.68-.43-.169-.419.487-.871.77-1.425.08-.159 0-.453-.034-.713zm-4.796 4.581c-2.183 2.839-3.416 6.073-3.416 9.5v.283h9.003v-.283c0-.746.034-1.493.102-2.24-.487-.022-.962-.112-1.233-.418-.283-.328-.045-.656-.226-1.018-.227-.418-.498-.531-.555-1.006-.045-.283.181-.385.294-.69.09-.25.057-.701.08-.882.068-.611-.181-.871-.25-.747-.1.226-.282.995-.53 1.844-.125.407-.668.667-.758.249-.057-.26.214-.871.214-1.335l.362-1.391-.045-.961a115.594 115.594 0 0 1-3.042-.905zm-3.382 10.563c.249 3.257 1.606 6.322 3.834 9.003a91.293 91.293 0 0 1 6.684-1.81 22.308 22.308 0 0 1-1.527-7.193h-8.99zm4.388 9.647c1.21 1.346 2.635 2.59 4.253 3.71a30.206 30.206 0 0 0 4.456 2.533 54.937 54.937 0 0 1 2.567-1.018c-.26-.237-.509-.497-.746-.746a21.393 21.393 0 0 1-4.095-6.209 94.71 94.71 0 0 0-6.435 1.73zm9.681 6.673a36.408 36.408 0 0 0 5.893 1.945c.113-.01.215-.033.317-.067a19.822 19.822 0 0 1-3.97-2.738c-.747.272-1.493.555-2.24.86zm31.419.09c.215-.09.419-.18.634-.271a41.502 41.502 0 0 0-2.5-.904c-.373.339-.758.667-1.154.972 1.516-.226 2.896-.034 3.02.204zm1.606-.723a32.332 32.332 0 0 0 4.027-2.33 24.038 24.038 0 0 0 4.23-3.687 97.752 97.752 0 0 0-5.373-1.459 2.752 2.752 0 0 0-.27.238c-.216.248-.08.621-.273.757-.588.419-.565.181-1.187.51a3.878 3.878 0 0 0-.453.305 21.765 21.765 0 0 1-3.031 4.105c-.17.17-.327.34-.497.498.938.328 1.877.678 2.827 1.063zm8.81-6.65c2.24-2.692 3.609-5.768 3.857-9.037h-9.07l-.012.238c.17-.114.396-.023.645-.023.283 0 .588-.068.792.113.249.215-.192.577-.238.995-.033.25.43.555.272.747-.158.203-.475.43-.724.226-.317-.249-.532-.192-.848-.396l-.057-.034c-.067.566-.158 1.12-.271 1.674-.011.08-.034.17-.068.283v.011a19.2 19.2 0 0 1-.272 1.086c.09.509.498 1.04.634 1.56.034.125-.068.351 0 .487.079.18.328.294.272.509a.479.479 0 0 1-.069.124c1.72.43 3.438.905 5.158 1.437zm3.891-9.817v-.283c0-3.438-1.244-6.684-3.438-9.534a90.735 90.735 0 0 1-6.854 1.877c.09.147.09.317.046.498a22.306 22.306 0 0 1 1.164 7.159v.283h9.082zm-50.6-3.495a21.09 21.09 0 0 1 .554-2.726c-.238.057-.52.136-.724.362-.271.306-.305 1.018-.316 1.267-.034.419.237.758.486 1.097zm6.288-11.434l-.067.068c-.046.101-.035.26-.136.294-.057.011-.113.033-.193.056a37.21 37.21 0 0 0-.837 1.007c.068.158.193.316.147.486-.101.385-.395.543-.068.747.114.067.849-.611 1.052-.803.147-.136.136-.69.26-.905.215-.407.532-.51.588-.634.08-.147.034-.758 1.392-.644h.011c-.385-.125-.77-.25-1.153-.385-.136.271-.487.52-.996.713zm-4.83 8.392a21.506 21.506 0 0 0-.825 4.309c.238-.08 1.007.192 1.007.158.452.317.746.565.984.464.43-.181.215-.758.837-.747.135 0 .939.102 1.13.193.238.124-.101.497.046.588.068.045.486-.034.656-.102.271-.102.769-.045.984 0 .475.09.373.441.373 1.029 0 .52.181.577.396.645h2.963v-.283c0-2.058.18-4.049.51-5.938a82.385 82.385 0 0 1-7.545-1.244c0 .068-.215.317-.192.6.068.622-.023 1.594-.328.95-.147-.306-.136.463-.452.056-.159-.215.192-.373.034-.497a.84.84 0 0 0-.577-.181zm-.836 4.422c-.045.6-.079 1.221-.079 1.832l.011.283h.588c.193-.215.407-.34.283-.656-.09-.26-.102-.735-.125-.962-.022-.135-.508-.373-.678-.497zm-.045 2.895c.022.464.056.916.101 1.369 0-.09.023-.181.057-.283.204-.532.18-.645.17-1.086h-.328zm.124 1.539a21.388 21.388 0 0 0 1.391 5.473c.735-.158 1.46-.305 2.194-.452a.548.548 0 0 0 .068-.226c-.022-.26-.452-.25-.69-.272-.43-.034-.282-.724-.565-.87-.486-.238-.181-1.414-.34-1.46-.814-.237-.893-.056-.893-.95-.17-.192-.08-.113-.26-.248-.35-.25-.814-.577-.905-.995zm1.697 6.208a20.865 20.865 0 0 0 3.89 5.847c.317.34.656.668 1.007.985a44.803 44.803 0 0 1 5.88-1.573c-1.017-1.956-1.831-4.207-2.374-6.672-.939.102-1.866.226-2.805.373-.068.463-.056 1.074-.192 1.289 0 0-.306.238-.475.407-.159.17-.227.622-.317.86-.068.18-.18.147-.147.34.022.158.362.078.452.316.147.384-.339.61-.384.961-.046.34.34.792.554 1.063.08.102.113.543.249.667.407.374.746.43.746.77.611 1.65-2.126-.78-2.51-1.098-.204-.135-.34-.802-.555-1.311-.079-.181-.305-.125-.35-.306-.102-.362-.226-.69-.226-.916 0-.803-.43-.701-.622-1.199-.068-.17-.317-.52-.238-.837.045-.158.102-.226.113-.327a89.61 89.61 0 0 0-1.696.361zm5.564 7.43a19.928 19.928 0 0 0 3.676 2.432c.056-.576-.045-1.447.158-1.187 1.142 1.459 2.387 1.345 2.68 1.708.396.497 1.21.045 2.127-.498-1.052-.973-2.002-2.183-2.84-3.574-.067-.113-.123-.226-.191-.34a42.756 42.756 0 0 0-5.61 1.46zm2.68-9.612a33.642 33.642 0 0 1-.61-5.565h-2.353c.057.147.09.215.25.226.248.023.859-.124 1.22.113.6.374-.033 2.059-.033 2.715-.306-.045 0 .17-.08.271-.124.158-.147.272-.192.475-.102.498-.509.679-.543 1.165-.022.226-.045.61-.09.928a57.315 57.315 0 0 1 2.431-.328zm.012-13.335c.509-2.567 1.312-4.93 2.33-6.967-.272.147-.577.238-.939.464-.238.147-.34.441-.577.475-.407.057-.893-.204-.724-.249-.215-.644-.034-.995.272-1.267-.385-.101-.758-.191-1.131-.305-.023.068-.046.125-.046.158-.113.702-1.323-.237-1.854.52-.159.204-.159.499.113.532.203.035.645-.18.825-.101.374.147.419.576-.147.87-.158.09-.599.453-.497.668.282.577.43.723-.09.882-.272.09-.408.464-.622.565-.272.113-.577-.045-.611.158-.08.374-.068.973-.442.985-.316.01-.373-.464-.86-.543-.169-.023-.587.283-.802.283-.6 0-.803 1.04-1.21 1.538a.76.76 0 0 1-.159.17c2.387.497 4.785.881 7.171 1.164zm9.862-13.55c-1.006.363-1.968.928-2.873 1.686.397.102.272-.158.397-.248.384-.25.677-.487.904-.318.159.114-1.007.996-.894 1.335.125.407.068.068 1.245.385.576.147-.555.294-1.188.77-.238.191-.927.203-1.018.44-.09.249.317 1.075.057 1.12-.52.079-.181.328-.227.452-.045.125-.384-.08-1.176-.09-.17 0-.361.215-.6.215-.35-.023-.599-.034-.825-.012l-.079.159a41.95 41.95 0 0 0 4.275.497l.057-.079c.237-.283.056-.464.237-.622.124-.102.419.023.565-.057.215-.113.272-.418.407-.362.182.068.136.464.295.476.464.022.113-.181.44-.51.374-.373.612-.248 1.143-.237.554.011 1.244.6.826 1.063-.09.113-.487-.023-.679.09-.147.102-.283.227-.328.317.374 0 .747-.011 1.109-.022.113-.034.214-.057.26-.08.056-.011.712-.033 1.03-.192.677-.35.7-.86.746-1.018.101-.328.078-.554-.43-.26-.26.147-.226.464-.42.668-.225.226-.655.316-.655.249-.011-.238.385-.634.78-1.188.216-.294-.18-.747.034-.86a.337.337 0 0 1 .147-.192c.283-.158.78.158 1.064.283.215.101-.159.509.067.633.51.26 1.063.023.882.622-.055.181-.158.758.136.792.215.022.306-.09.453-.215l-.08-.147c-1.64-2.737-3.743-4.705-6.084-5.542zm-6.673 6.606c-1.063 2.036-1.889 4.422-2.409 7.035a74.89 74.89 0 0 0 3.585.316c.272-.316.588-.554 1.041-.554.294 0 .678.204.984.283.509.135.893.215 1.063.418a2.54 2.54 0 0 1 1.199.034h1.199a.63.63 0 0 0-.17-.09c-.17-.011.407-.25.34-.385-.25-.486-.046-.34 0-.509.09-.305.01-.192-.69-.463-.08-.023.056-.35-.057-.385-.068-.011-.226.124-.306.114-.068-.023-.43.361-.565.361-.215.011-.226-.35-.361-.497-.08-.08 0-.442-.046-.555-.102-.271-.25-.305-.306-.147-.045.102-.146.838-.045 1.301.057.26.35.26.328.43-.023.18-.418.09-.486.056-.124-.056-.113-.384-.192-.622-.046-.147-.158-.203-.226-.327-.16-.317-.464-.476-.498-.42-.09.17-.147.566-.373.68-.204.112-.555-.057-.758.056-.419.226-.735.531-.984.136-.136-.215.17-.52-.023-.702 0-.531-.497-1.142-.068-1.492.148-.114.543-.17.962-.204.214-.023.43-.147.633-.023.147.09-.011-.712.226-.825.396-.181 1.052-.068 1.221-.215.057-.046-.27-.294.306-.407.487-.102.928-.181.985-.193.644-.079 1.13-.497 1.017-1.56l-.294-.012c-.068.034-.159.09-.26.147-.26.181-.238.6-.577.702-.249.067-.306-.227-.577-.294-.158-.035-.6.17-.667.135-.158-.079-.102-.407.067-.791-.26-.012-.508-.034-.769-.057a.344.344 0 0 1 .102.192c.012.193.023.17 0 .34-.045.339-.237.904-.497 1.051-.328.193-1.244.329-1.584.091-.056-.215.623-.51.623-.645 0-.09.158-.44.214-.497l.17-.17c.124-.125.204-.294.34-.43a40.272 40.272 0 0 1-2.817-.407zm-2.556 7.804a33.727 33.727 0 0 0-.498 5.847v.283h5.927c-.204-.555-.77-.973-1.414-.894-.249.034-.384-.135-.61-.158-.283-.023-.622.079-.78-.023-.148-.101.078-.27-.239-.373-.52-.158-1.232-.645-.757-1.323.34-.192.271-.803.226-1.21-.102-.792.056-.871.814-1.358a1.76 1.76 0 0 0 .51-.497 99.147 99.147 0 0 1-3.18-.294zm-.486 6.91c.056 1.911.271 3.744.61 5.474a83.225 83.225 0 0 1 6.266-.441c-.045-.226 0-.532-.034-.746-.068-.408-.215-.69-.294-1.097-.124-.577-.543-.815-.735-1.2-.09-.18.034-.621-.045-.734-.113-.147-.136-.51-.034-.86.045-.147.181-.237.226-.396h-5.96zm.77 6.243c.553 2.454 1.379 4.694 2.408 6.616a40.613 40.613 0 0 1 7.092-.622c2.024 0 4.048.147 6.073.453.995-1.878 1.787-4.06 2.318-6.458a85.637 85.637 0 0 0-7.781-.464c-.215.204-.441.656-.69.894-.113.101-.475.124-.645.248-.282.215-.395.51-.531.52-.498.057-.588-.384-.916-.972-.159-.26-.441-.441-.701-.668a82.07 82.07 0 0 0-6.628.453zm2.815 7.329l.045.079c.848 1.414 1.81 2.624 2.861 3.574.544-.305 1.098-.577 1.584-.633.294-.034 2.013.667 2.975.305 1.085-.407 1.492-1.222 1.662-1.154.17.475.441.78.78.939a15.708 15.708 0 0 0 2.308-3.031l.146-.237a40.084 40.084 0 0 0-5.676-.408 40.4 40.4 0 0 0-6.685.566zm17.021 3.02a21.739 21.739 0 0 0 2.172-1.629 44.995 44.995 0 0 0-6.017-1.425c-.09.18-.192.35-.294.52a17.66 17.66 0 0 1-2.08 2.816c1.107.023 2.487-.554 3.516-.814.724-.192 1.335.622 2.703.531zm2.84-2.24c.26-.249.508-.497.757-.758a21.595 21.595 0 0 0 2.115-2.646c-.543.102-.023-.667-.724-1.369-.18-.17-.35.09-.43-.056-.249-.453.011-1.244-.203-1.391-.181-.125-.035-.419-1.075.17-.52.293-.396.305-.667.316-.374.012-.928.056-1.244 0-.554-.09-.52-.543-.487-1.131.012-.226.261-.622.272-.86-.77-.113-1.55-.214-2.319-.305-.531 2.398-1.311 4.592-2.285 6.492 2.094.35 4.185.86 6.29 1.538zm6.095-11.23c.113-.611.204-1.222.272-1.844a1.43 1.43 0 0 0-.35-.158c-.296.09-.872-.78-.702-1.12h-8.55a35.014 35.014 0 0 1-.611 5.565c.61.067 1.221.147 1.832.225.045-.27.464-.69.86-.983.452-.34 1.255-.453 1.368-.51.656-.373 1.391-.746 1.753-1.028.181-.136.249-.272.565-.238.102.011.52.204.668.023.43-.532 1.165-.77 1.233-.238.023.204.215.995.373.916.09-.045.746-.463 1.29-.61zm.362-2.862l.011-.26h-.576c.17.08.361.181.565.26zm.034-1.04v-.283a22.12 22.12 0 0 0-.86-6.096 1.31 1.31 0 0 0-.102.226c-.078.192-.033.43.035.679.101.35.248.712.124.904-.249.408-.113.351-.328 0-.08-.113-.282-.61-.396-.678-.294-.181-.622-.181-.791-.452-.148-.238.475-.803.565-.95.09-.16.102-.6.079-1.007a121.8 121.8 0 0 1-1.844.384c0 .046 0 .08.012.125.034.294.294.554.272.825-.023.238-.464-.067-.487.26-.012.148.25.442.159.611-.148.317.044.702-.057.837-.034.045-.26-.124-.328-.079-.362.204-.26.227-.634.181-.226-.022-.599-.305-.69-.011-.044.17.102.791.012.916-.215.26-.995-.113-1.188.08-.26.237-.35.565-.565.429-.34-.226-.283-.724-.441-1.074-.125-.272-.486-.397-.679-.668-.158-.203-.645-.384-.724-.475-.169-.215-.158-.622-.226-.78-.034-.102-.057-.181-.079-.249l-.237.034-.09.147c-.283.452-.499.532-.623.565.26 1.708.396 3.484.396 5.316v.283h3.314c-.215-.35-.6-.724-.905-1.097-.35-.442-.113-.622.135-.86.204-.18.328-.486.668-.328.18.09.09.792.305 1.244.159.305.622.385.746.51.713.712.544-.046 1.222-.25.26-.079.577-.271.701-.452.317-.464.328-1.154.77-.61.293.361.339 1.605-.046 1.232-.34-.34-.113.385-.34.61h3.145zm-1.651-8.607a20.747 20.747 0 0 0-1.81-3.438c-.17.102-.204.237.09.712.057.09.306.283.385.385.046.068.17.34.317.792.034.101.407.339.396.463-.023.181.124.565-.102.713-.283.192-.679-.35-.86-.068-.113.192-.034.6-.079.86l-.023.09 1.595-.34c.023-.056.057-.112.09-.17zm-9.467 14.861c.351-1.73.554-3.574.61-5.474h-7.101c.034.294.034.758.112 1.12.114.52.148.95-.045 1.142-.328.328-.316.87-.577 1.086-.237.203-.633.033-.69.282-.033.148-.056.385.046.51.113.135.362.158.43.327a.775.775 0 0 1 .011.532c2.398.057 4.807.215 7.204.475zm.622-6.254v-.283c0-1.074-.045-2.137-.135-3.178a1.373 1.373 0 0 1-.227.215c-.17.113-.497.023-.667.158-.215.181-.271.565-.475.633-.203.057-.249-.633-.407-1.051-.147-.373-.136-.973-.34-1.46-.078-.192-.429-.452-.474-.542-.068-.147-.124-.272-.181-.385a47.99 47.99 0 0 1-1.346.09c.046.238.192.464.136.544-.147.215-.43.271-.645.463-.226.215-.396.554-.713.724-.282.159-.327.136-.576.147-.249.012-.702.046-.916.023-.577-.08-.294-.475-1.256-1.414-.147-.147-.34-.226-.532-.305h-.61c.068.056.147.113.215.17.418.339.803.69 1.028 1.006.125.18 0 .486.137.622.192.203.542.215.87.294.091.023.023.226.17.26.17.034.566-.102.645-.079.939.237.95.181.905.565-.023.204-.385.464-.385 1.03 0 1.108.012.78-.215 1.029-.09.09-.022.192-.215.396-.124.124-.271.226-.407.328h6.616zm-3.348-6.64l.125-.01c-.057-.125-.068-.091-.125.01zm-21.804-9.805c-.43-.18-.86-.35-1.29-.543-.09.034-.147.09-.158.159-.046.158.362.407.712.633.102.068.385-.102.736-.249zm23.139-.248c0 .203-.034.305.057.395.079.08 0 .09.17.113.079.012.079.057.226.057h.509c.067 0 .395.034.44 0 .08-.045-.078-.057.114-.057.203 0 .452-.135.452-.396 0-.237-.101-.35-.34-.282l-.587.192c-.215.068-.204-.136-.476-.136-.067 0-.293.034-.338 0-.057-.034.079-.034-.057 0-.102.034-.023.057-.17.114zm-4.071 19.791c-.215.385-.396.419-.362.724.023.181.282.306.373.464.09.147-.011.577-.011.701 0 .249.08.193.214.114.272-.148.374-.328.544-.577.101-.147.316-.328.35-.51.034-.158-.068-.384-.068-.554 0-.135 0-.395-.203-.463-.328-.113-.815-.17-.837.101zm13.334-1.707c.271-.159.294-.51.78-.227.306.17.26.216.397.566.078.204-.668.645-.962.622-.203-.023-.373-.113-.554-.113h-.34c-.633 0 .487-.746.679-.848zm4.569 2.205c-.203.26-.124.52-.124.803 0 .034-.011.204 0 .227.012.022.034.078.057.113.033.056.079.475.158.531.067.057.147.011.339.011.204 0-.011-.26.181-.316.306-.102.385-.577.385-.962 0-.17.034-.26-.023-.34-.113-.135-.237-.112-.419-.112-.147 0-.113 0-.17.057-.056.056-.304-.159-.384-.012zm-2.997 9.704c.61-.871 1.391-.826 1.968-1.414.43-.43.645-1.03 1.018-1.402.113-.113.192.26.17.452-.057.51-1.075 1.572-1.358 1.855-.294.305-.554.294-.893.509-.181.113-.905.26-.905 0zm-1.39-17.282l.135-.226-.011-.27.339-.046.238.328-.16.746-.78-.09.238-.442zm-.114.883l.045.407.362.102.35-.08.227-.565-.724-.09-.26.226zm-1.052.305l.147.43.215.34.283-.046-.034-.939-.611.215zm-.678.577h.531l.09.577-.554.011-.067-.588zm-34.043-3.03c0 .203.034.259.124.35.08.079.102.067.272.079.079.01-.023.237.124.26l.452.045c.068 0 .068.317.113.294.08-.057.023 0 .216 0 .203 0 .226-.226.226-.475.01-.248.135-.452-.113-.452l-.294.011c-.238 0-.16-.045-.43-.045-.068 0-.124-.306-.17-.328-.068-.034-.192-.012-.328.034-.102.022-.045.17-.192.226zm1.662 1.096c.057-.09.09-.249.227-.18.056.033.101.09.113.135.011.011-.012.068-.012.09 0 .057.08.124.046.17-.057.057-.227.034-.238-.057 0-.056-.022-.067-.045-.101-.023-.012-.09-.046-.09-.057z"/></svg>