<svg xmlns="http://www.w3.org/2000/svg" width="43.686" height="39.851" viewBox="0 0 43.6856346 39.8514709"><g fill="none" stroke="#FFF" stroke-width="2" stroke-miterlimit="10"><path d="M34.707 23.81a32.888 32.888 0 0 1-.005-1.845c.01-.605.418-1.025 1.025-1.07.16-.012.323-.004.485-.005 1.308-.008 2.291-.946 2.292-2.186 0-1.236-.99-2.182-2.292-2.184-1.392-.003-2.783.003-4.175-.003-.555-.002-.937-.257-1.105-.706-.293-.784.258-1.475 1.19-1.478 1.294-.004 2.589.004 3.883.002 1.51-.003 2.492-.86 2.498-2.176.007-1.33-.984-2.196-2.521-2.199-1.214-.002-2.428 0-3.641-.002-.177 0-.357.002-.531-.024-.58-.085-.985-.553-.964-1.096.02-.54.46-1.001 1.022-1.054.192-.018.388-.006.582-.008 1.151-.01 2.035-.774 2.2-1.914.101-.692.016-1.39.056-2.084V1.204m3.914 33.563a3.812 3.812 0 1 1-7.625 0v-5.25a3.813 3.813 0 0 1 7.625 0v5.25z"/><path stroke-linecap="round" d="M34.808 28.746v1.083"/></g><g fill="none" stroke="#FFF" stroke-width="2" stroke-miterlimit="10"><path d="M24.693 37.267a1 1 0 0 1-1 1h-6.062a1 1 0 0 1-1-1V2.204a1 1 0 0 1 1-1h6.062a1 1 0 0 1 1 1v35.063z"/><circle cx="20.568" cy="5.642" r="1.326"/><path stroke-linecap="round" d="M16.818 11.33h3.063m-3.063 3.541h2.063m-2.063 3.542h2.063m-2.063 3.542h3.063m-3.063 3.541h2.063m-2.063 3.542h2.063m-2.063 3.542h3.063"/></g><g fill="none" stroke="#FFF" stroke-width="2" stroke-miterlimit="10"><path d="M10.318 30.87a.913.913 0 0 1-.912.912H5.127a.913.913 0 0 1-.913-.913V5.198c0-.504.409-.913.913-.913h4.279c.504 0 .912.409.912.913v25.671z"/><path d="M4.271 4.684c0-2.339 1.341-3.48 2.995-3.48s2.995 1.255 2.995 3.48m-2.938.171v26.813"/><path stroke-linejoin="round" d="M4.357 31.44l2.738 6.96 3.024-7.074"/></g></svg>