<svg xmlns="http://www.w3.org/2000/svg" width="58.75" height="37.625" viewBox="0 0 58.75 37.625"><path fill="#FFF" d="M53.207 15.465c-3.643-2.91-7.752-3.235-12.048-1.531-.243.096-.39.182-.576-.124a1260.42 1260.42 0 0 0-5.474-8.89c-.153-.247-.121-.337.13-.454.79-.37 1.574-.756 2.354-1.147.587-.294.82-.866.573-1.36-.251-.503-.85-.67-1.429-.374-1.152.588-2.3 1.185-3.445 1.787-.592.311-.747.899-.403 1.474.174.292.351.582.542.863.162.238.204.349-.166.428-3.655.784-7.305 1.591-10.957 2.387-.15.033-.31.106-.451-.053-.855-.96-1.713-1.917-2.626-2.938.374 0 .647.007.92-.002.573-.018 1.018-.437 1.028-.958.01-.536-.449-.982-1.047-.985a646.355 646.355 0 0 0-5.256 0c-.575.003-1.02.424-1.038.946-.017.535.442.984 1.038.996.503.011 1.006.01 1.509-.001.21-.005.365.046.508.21a573.102 573.102 0 0 0 3.125 3.535c.125.141.147.232.032.41a216.026 216.026 0 0 0-2.506 3.93c-.16.256-.284.255-.535.152-1.967-.804-4.014-1.017-6.106-.714-6.527.943-10.992 7.122-9.862 13.622 1.262 7.262 8.8 11.596 15.679 9.013 4.804-1.803 7.824-6.413 7.614-11.62-.008-.216-.086-.434.265-.494 2.09-.358 4.175-.75 6.267-1.1 1.163-.195 1.963-.777 2.31-1.93.65-2.169 1.303-4.336 1.957-6.503.357-1.184.717-2.366 1.101-3.635.907 1.485 1.754 2.9 2.634 4.293.195.31.138.428-.128.647-3.709 3.06-5.29 6.973-4.301 11.702 1.298 6.214 6.998 10.068 13.289 9.162 4.546-.655 8.421-4.069 9.524-8.663 1.156-4.813-.156-8.974-4.045-12.08zM17.85 16.651c.117-.182.2-.189.373-.068 1.868 1.315 3.108 3.076 3.792 5.25.117.37-.165.285-.299.31-1.368.247-2.74.477-4.11.713l-2.63.455c-.127.022-.256.037-.356.051-.523-.009-.792-.46-.524-.879 1.245-1.948 2.506-3.886 3.754-5.832zm-1.389 17.106a9.776 9.776 0 0 1-11.7-3.156c-2.694-3.599-2.587-8.67.256-12.127 2.96-3.6 7.722-4.38 11.273-2.856l-1.883 2.945c-.627.983-1.235 1.978-1.886 2.944-.587.87-.577 1.737-.04 2.593.579.921 1.442 1.352 2.527 1.178 1.726-.277 3.444-.604 5.166-.909l2.249-.394c.35 3.492-1.527 7.89-5.962 9.782zM26.016 21.4c-.557.1-1.117.185-1.671.302-.243.05-.338-.013-.41-.249-.817-2.66-2.354-4.805-4.644-6.393-.25-.173-.2-.287-.067-.492.758-1.184 1.504-2.376 2.294-3.628l8.677 9.712-4.179.748zm8.742-12.56c-.992 3.294-1.99 6.587-2.986 9.88-.06.2-.122.4-.214.7l-8.171-9.146c1.729-.384 3.378-.755 5.03-1.118 1.847-.406 3.695-.806 5.543-1.208.684-.15 1.006.201.798.892zm12.44 25.617c-5.384.58-10.057-2.835-10.946-8.16-.624-3.737.671-6.846 3.555-9.3.256-.218.364-.177.53.098 1.597 2.628 3.207 5.248 4.815 7.87.34.554.726.725 1.244.564.557-.174.815-.683.605-1.224-.063-.163-.167-.313-.26-.464-1.563-2.534-3.119-5.073-4.7-7.598-.22-.353-.142-.457.207-.592 1.193-.46 2.42-.712 3.484-.7 5.69.027 10.036 4.329 10.104 9.788.06 4.896-3.757 9.191-8.638 9.718z"/></svg>