<svg xmlns="http://www.w3.org/2000/svg" width="40" height="37" viewBox="0 0 40 37"><path fill="#FFF" d="M38.524 8.801c-.072-.557-.49-.703-.944-.837-2.039-.6-4.088-.64-6.148-.135-.304.075-.524.066-.778-.2C25.5 2.213 17.388.899 10.772 4.39 3.988 7.97.696 15.636 2.908 22.764 3.942 26.1 5.9 28.793 8.705 30.87c.31.23.565.392.429.893-.073.266.144.691.355.937.5.584 1.071 1.11 1.622 1.65.747.731 1.224.765 1.971.02.633-.63 1.26-1.03 2.168-.585.204.1.462.094.697.125 1.652.217 3.307.363 4.949-.06 1.153-.298 2.096-.89 2.392-2.13.301-1.262-.067-2.348-1.066-3.192-.421-.356-.87-.678-1.352-1.051 1.112-1.022 2.176-2.024 3.274-2.987.21-.185.551-.297.836-.305 1.186-.033 2.376.031 3.56-.029.84-.042 1.717-.1 2.503-.368 2.745-.934 4.22-3.553 3.863-6.656-.035-.305-.067-.643.025-.924.319-.975.714-1.924 1.04-2.896.397-1.182.857-2.273 2.062-2.911.587-.312.57-.987.49-1.6zM20.518 31.677c-1.055.186-2.147.169-3.224.205-.346.011-.695-.087-1.187-.154l3.068-2.744c.563.412 1.144.78 1.656 1.228.635.557.502 1.322-.313 1.465zm-8.327.627l-.537-.479L21.356 21l1.585 1.662-10.75 9.642zm2.613-7.276c-1.365 1.507-2.707 3.035-4.082 4.58-6.97-4.465-8.587-14.034-2.736-20.36 5.308-5.74 14.326-6.182 20.166-1.03.177.155.342.325.55.523-.58.358-1.144.67-1.669 1.038-1.686 1.181-2.991 2.666-3.002 4.83-.005.868-.37 1.308-.935 1.79-3.05 2.6-5.612 5.672-8.292 8.63zm9.758-4.048c-.235-.16-.457-.284-.647-.444-.947-.797-.957-1.074-.08-1.88.316-.292.642-.573.926-.824l1.421 1.367-1.62 1.781zm4.863.977c-.883.052-1.772.01-2.783.01.57-.646 1.067-1.217 1.576-1.778l.261-.097c.723-.043 1.467.015 2.165-.138.678-.15 1.31-.513 1.99-.794-.347 1.528-1.668 2.707-3.209 2.797zm3.862-7.475c-.411 1.085-.964 2.084-1.922 2.787-1.117.82-2.332.977-3.557.3-1.126-.62-1.708-1.613-1.636-2.929.049-.895.47-1.644 1.104-2.23 2.15-1.992 4.726-2.846 7.64-2.728.114.005.227.04.425.078-1.152 1.409-1.45 3.13-2.054 4.722z"/><path fill="#FFF" d="M12.52 8.579c-1.943.024-3.535 1.65-3.51 3.584a3.544 3.544 0 0 0 3.585 3.498c1.903-.014 3.492-1.631 3.481-3.542-.01-1.94-1.642-3.564-3.556-3.54zm.013 4.888a1.326 1.326 0 0 1-1.333-1.365c.014-.765.605-1.324 1.382-1.307a1.31 1.31 0 0 1 1.307 1.326 1.33 1.33 0 0 1-1.356 1.346zm-2.775 3.346c-1.91 0-3.513 1.59-3.527 3.502a3.531 3.531 0 0 0 3.519 3.557c1.962.003 3.554-1.569 3.562-3.519.008-1.933-1.606-3.541-3.554-3.54zm-.035 4.898a1.386 1.386 0 0 1-1.305-1.361 1.349 1.349 0 0 1 1.366-1.345 1.335 1.335 0 0 1 1.326 1.378c-.011.741-.654 1.357-1.387 1.328zM24.579 10.23a3.546 3.546 0 0 0-3.512-3.512c-1.935-.02-3.553 1.585-3.556 3.528a3.535 3.535 0 1 0 7.068-.015zm-3.557 1.381c-.711-.019-1.317-.63-1.328-1.338a1.347 1.347 0 0 1 1.347-1.36 1.325 1.325 0 0 1 1.347 1.352c-.003.744-.634 1.366-1.366 1.346z"/></svg>