<svg xmlns="http://www.w3.org/2000/svg" width="29.083" height="36.5" viewBox="0 0 29.083334 36.5"><g fill="#FFF"><path d="M13.089 24.388c6.11-.135 11.299-5.18 11.29-11.601-.007-6.353-5.212-11.559-11.533-11.564C6.286 1.218 1.097 6.618 1.21 13.027c.11 6.183 5.263 11.507 11.878 11.361zm-6.872-9.825l1.631 1.53c.107.1.155.185.028.313-.778.788-1.552 1.582-2.408 2.457-.313-1.617.162-2.94.749-4.3zm8.088-1.565c-.111-.112-.186-.198-.03-.35.595-.579 1.177-1.17 1.765-1.757.044-.044.094-.08.16-.136.08.068.15.125.218.188.596.552 1.186 1.11 1.79 1.653.142.126.14.212.044.355-.49.729-1.029 1.42-1.602 2.085-.121.14-.2.153-.335.014-.665-.689-1.338-1.37-2.01-2.052zm.909 3.598c-.083.054-.168.096-.237.157-.628.565-1.31 1.058-2 1.544-.197.138-.283.079-.418-.068a76.718 76.718 0 0 0-1.669-1.772c-.147-.151-.142-.233 0-.375a114.67 114.67 0 0 0 1.732-1.777c.124-.13.201-.15.337-.012.691.704 1.393 1.398 2.09 2.097.043.044.078.097.165.206zm-.542-7.042c-.555.551-1.113 1.1-1.658 1.662-.165.17-.27.196-.451.01a85.077 85.077 0 0 0-1.975-1.952c-.173-.166-.159-.248.014-.401a20.018 20.018 0 0 1 2.01-1.544c.148-.103.247-.14.396.026.545.605 1.112 1.19 1.668 1.784.063.068.112.15.198.268-.072.052-.146.09-.202.147zm-3.359 3.108c.044.044.08.096.127.154-.071.079-.132.15-.198.217-.542.543-1.088 1.081-1.624 1.63-.16.164-.264.211-.459.018a46.24 46.24 0 0 0-1.714-1.604c-.177-.159-.21-.277-.068-.477.485-.675.975-1.344 1.546-1.95.095-.1.158-.24.33-.062.68.698 1.373 1.383 2.06 2.074zm-4.455 7.503c.12-.28.349-.43.529-.615.558-.572 1.138-1.121 1.684-1.704.22-.235.345-.219.548.01.443.501.913.979 1.427 1.523-1.36.607-2.684 1.064-4.188.786zM9.6 21.928c.901-.236 1.742-.544 2.534-.97.198-.107.31-.043.438.118.358.445.733.877 1.141 1.362-1.486.232-3.083.034-4.113-.51zm9.135-1.471a10.105 10.105 0 0 1-2.706 1.5c-.045.017-.091.029-.12.038-.134.006-.18-.086-.24-.158-.489-.59-.971-1.185-1.471-1.765-.167-.194-.103-.271.08-.394.73-.49 1.415-1.038 2.06-1.635.154-.143.237-.137.376.005.672.683 1.35 1.361 2.033 2.033.148.146.162.242-.012.376zm3.204-4.39c-.37.974-.884 1.864-1.514 2.691-.115.151-.187.164-.325.024-.681-.693-1.371-1.377-2.06-2.062-.11-.11-.19-.188-.037-.346.685-.71 1.264-1.508 1.84-2.317.671.549 1.32 1.085 1.976 1.61.144.116.19.217.12.4zm-.996-3.944c.39-.795.704-1.62.968-2.576.45 1.214.692 3.174.515 4.115-.548-.384-1.018-.818-1.494-1.243-.116-.104-.039-.195.01-.296zm-.794-5.228c.19.995.036 1.954-.274 2.894-.134.405-.318.794-.48 1.19-.403-.17-.652-.53-.965-.808-.284-.253-.735-.516-.761-.806-.028-.305.462-.555.727-.825.535-.546 1.08-1.08 1.623-1.618.018-.018.058-.013.13-.027zM18.827 5.47c-.858.849-1.64 1.615-2.41 2.395-.149.15-.231.102-.343-.017-.447-.475-.898-.946-1.342-1.423-.071-.076-.248-.167-.01-.272 1.264-.556 2.556-.946 4.105-.683zm-2.944-1.802c-.807.256-1.58.548-2.313.938-.247.132-.414.128-.599-.116-.326-.43-.69-.833-1.1-1.322 1.43-.162 2.729.07 4.012.5zm-6.25-.02c.187-.067.255.019.35.134.47.58.936 1.167 1.425 1.731.169.194.172.282-.047.43a15.528 15.528 0 0 0-2.018 1.599c-.138.13-.242.206-.425.019-.725-.739-1.47-1.457-2.228-2.204a8.958 8.958 0 0 1 2.943-1.71zM3.657 9.53c.371-.955.854-1.843 1.489-2.647.047-.06.103-.114.144-.16.137 0 .186.095.25.16.668.661 1.328 1.33 2 1.987.15.147.182.242.018.411a14.65 14.65 0 0 0-1.631 2.052c-.16.24-.255.187-.433.035-.544-.466-1.102-.916-1.656-1.37-.15-.123-.28-.216-.181-.468zm-.466 2.301c.542.469.974.844 1.409 1.217.112.096.213.174.119.356-.414.8-.746 1.633-1.012 2.505-.45-1.292-.653-2.604-.516-4.078z"/><path d="M14.191 27.751c1.234-.064 2.429-.339 3.592-.749C26.96 23.768 30.73 12.98 25.566 4.725a14.484 14.484 0 0 0-2.056-2.577c-.31-.31-.68-.411-1.091-.204-.36.182-.542.482-.531.89.009.351.238.577.46.81 3.96 4.142 4.812 10.277 2.13 15.328-2.74 5.159-8.68 7.907-14.403 6.676-2.5-.537-4.639-1.723-6.476-3.486-.504-.484-1.016-.485-1.422-.047-.384.415-.344.926.135 1.39 2.325 2.253 5.087 3.633 8.285 4.153.422.068.989-.076 1.232.215.259.31.037.86.086 1.301.039.354-.113.417-.433.414-1.726-.015-3.452-.007-5.177-.01-.51 0-.936.117-1.178.638-.53 1.14-1.09 2.266-1.624 3.404-.455.968-.047 1.602 1.019 1.603H21.06c1.038 0 1.441-.63.998-1.573-.495-1.051-1.035-2.083-1.49-3.151-.295-.694-.751-.942-1.483-.928-1.661.032-3.324.003-4.985.016-.294.002-.4-.075-.376-.374a4.63 4.63 0 0 0-.001-.958c-.05-.39.113-.485.468-.504zm4.41 3.77c.268 0 .392.086.496.32.223.506.477.997.742 1.543h-.524c-4.357 0-8.714-.003-13.072.009-.407 0-.52-.061-.286-.45a7.28 7.28 0 0 0 .522-1.072c.114-.287.293-.349.581-.348 3.847.009 7.694.01 11.54-.001z"/></g></svg>