<svg id="Layer_1" xmlns="http://www.w3.org/2000/svg" width="43.8" height="34.9" viewBox="0 0 43.8 34.9"><style>.st0{fill:#fff}</style><path class="st0" d="M27.6 22.3c-1 1.3-2.1 2.8-3 4.4-.6.9-.6 1.9-.6 2.9v.1c0 1.6-.1 3.2-1.7 4.7-.6.6-1.5.6-2.1 0l-1-1c-.9.7-1.9 1.1-3 1.1-1.2 0-2.4-.5-3.4-1.4-.9-.9-1.4-2.2-1.4-3.4 0-1.1.4-2.1 1.1-3l-12-12c-.6-.6-.6-1.5 0-2.1 1.8-1.8 3.5-1.7 5.2-1.5.9.1 1.9.2 2.8-.4 1.6-1 3.1-2 4.4-3l.5-.3c.8-.6 1.5-1.1 2.2-1.6 2.6-1.8 5.4-3 8.7-2.3.8.2 1.6.4 2.3.8v-.1c0-1.1.4-2.2 1.2-3 .8-.8 1.9-1.2 3-1.2s2.1.4 3 1.2c.8.8 1.2 1.9 1.2 3 0 .5-.1 1-.3 1.5 4.9.3 6.6 4.7 8.2 8.4l.9 2.1c.2.4 0 1-.4 1.2-.2.1-.4.1-.7 0l-5.5-1.9-2 5.5c-.2.5-.7.7-1.1.5-.2-.1-.4-.2-.5-.4-.6-1.2-1.3-2.3-1.9-3.3l-.7-.9c-.8 1.9-2.2 3.7-3.4 5.4zm5.7-14.8c-.8.6-1.7.9-2.6.9.4.8.8 1.7 1 2.6.6 2.6-.2 3.4 1.3 5.8.4.5.7 1.1 1.1 1.7l1.6-4.5c.2-.4.7-.7 1.1-.5l4.5 1.5-.1-.3c-1.5-3.5-3.2-7.6-7.9-7.2zm-.1-3.3c0-.6-.2-1.3-.7-1.7-.5-.5-1.1-.8-1.8-.8-.6 0-1.3.2-1.7.7-.5.5-.7 1.1-.7 1.7 0 .6.2 1.2.7 1.7.5.5 1.1.7 1.7.7.6 0 1.3-.2 1.7-.7.5-.4.8-1 .8-1.6zm-8 16.4c1.9-2.6 4.4-5.6 3.6-9-.3-1.3-.9-2.4-1.8-3.3-.9-.9-2.1-1.6-3.4-1.8-2.4-.5-4.5.5-6.4 1.8l-2.1 1.5-.5.2c-1.4 1-2.9 2.1-4.6 3.2-1.7 1.1-3.2.9-4.6.8-.5 0-1.1-.1-1.6 0l17 17c.1-.4.1-.9.1-1.4v-.1c0-1.4.1-2.8 1-4.4 1.2-1.6 2.3-3.1 3.3-4.5zm-8.1 10.8l-2.5-2.5c-.2.3-.2.6-.2.9 0 .5.2 1 .5 1.3.4.4.8.5 1.3.5.3 0 .6 0 .9-.2z"/></svg>