<svg xmlns="http://www.w3.org/2000/svg" width="40.7" height="40.7" viewBox="0 0 40.7 40.7"><g opacity=".8" fill="#FFF"><path d="M20.35 1C31.019 1 39.7 9.68 39.7 20.35S31.019 39.7 20.35 39.7 1 31.019 1 20.35 9.68 1 20.35 1m0-1C9.111 0 0 9.111 0 20.35S9.111 40.7 20.35 40.7 40.7 31.589 40.7 20.35 31.589 0 20.35 0z"/><path d="M13.126 20.771l7.119-7.118c.153-.153.119-.435-.076-.63s-.478-.229-.63-.076l-7.118 7.118c-.153.153-.119.435.076.63.195.196.476.229.629.076z"/><path d="M12.419 20.618l7.082 7.082c.152.152.434.118.629-.077.194-.195.229-.476.077-.628l-7.083-7.082c-.152-.152-.433-.118-.628.077s-.23.476-.077.628z"/><path d="M13.142 20.842h17.569a.499.499 0 1 0 0-.998H13.142a.498.498 0 1 0 0 .998z"/></g></svg>