<svg xmlns="http://www.w3.org/2000/svg" width="39.145" height="39.145" viewBox="0 0 39.1449585 39.1449585"><path d="M19.572 0C8.762 0 0 8.763 0 19.572c0 10.81 8.763 19.573 19.572 19.573 10.81 0 19.573-8.763 19.573-19.573S30.382 0 19.572 0zm13.133 32.705a18.512 18.512 0 0 1-13.133 5.44c-5.13 0-9.77-2.078-13.132-5.44A18.512 18.512 0 0 1 1 19.572c0-5.13 2.078-9.77 5.44-13.132A18.512 18.512 0 0 1 19.572 1c5.13 0 9.77 2.078 13.133 5.44a18.512 18.512 0 0 1 5.44 13.132c0 5.13-2.078 9.77-5.44 13.133zM10.888 17.287zm-4.95 7.743zM30.06 13.37z"/><path d="M32.448 16.104h-.064c-.195 0-.567-.009-.875-.05a2.053 2.053 0 0 1-.34-.068c-.076-.258-.127-.652-.397-1.299a7.67 7.67 0 0 0-.712-1.317 7.25 7.25 0 0 0-2.082-2.053l-.136-.061-1.612-.451c.295-.101.548-.21.733-.34.128-.091.236-.193.32-.319a.807.807 0 0 0 .142-.447.731.731 0 0 0-.198-.498.839.839 0 0 0-.39-.233 1.23 1.23 0 0 0-.332-.041 2.67 2.67 0 0 0-.441.05.487.487 0 0 0-.035-.226.5.5 0 0 0-.496-.279 3.683 3.683 0 0 0-1.425.451c-.01-.012-.01-.028-.02-.04a.499.499 0 0 0-.523-.13c-.33.115-.607.327-.902.588-.866.786-1.785 2.047-2.147 2.726l-.012.025-1.497 3.285c-.416-.373-1.003-.9-1.562-1.235-.731-.437-1.673-.886-2.481-1.26-1.944-.901-3.347-1.454-5.329-2.179a.499.499 0 0 0-.67.442l-.008.24a3.53 3.53 0 0 0 .818 2.287c.236.292.51.55.803.793l-.468.061a.5.5 0 0 0-.434.516c.021.493.209.94.438 1.32.232.382.51.7.773.925a4.3 4.3 0 0 0 .86.588c-.14.091-.305.207-.563.372a.501.501 0 0 0-.228.433c.016.29.13.486.262.69.204.3.491.591.819.844.33.25.69.463 1.088.555l.045.008.516.067c-.183.238-.337.542-.337.908 0 .173.035.35.102.522.047.12.14.22.259.274l1.304.594a6.13 6.13 0 0 1-.383.301c-1.12.772-2.328 1.295-3.903 1.366a7.498 7.498 0 0 1-3.05-.504c-1.004-.405-1.348-.695-2.165-1.323a.5.5 0 0 0-.738.647c.295.498.835 1.05 1.162 1.401 2.625 2.782 6.56 4.523 10.855 4.524.927 0 1.87-.08 2.82-.25 3.242-.577 5.383-1.719 7.274-3.105a15.766 15.766 0 0 0 1.36-1.203c.828-.853 1.581-1.784 2.137-2.875.077-.153.25-.493.408-.847.079-.177.154-.357.213-.528.037-.114.066-.221.087-.335l.047-.084.009-.027.012-.031.02-.056.056-.195c.67-.036 1.245-.122 1.87-.372l.099-.052 1.378-.944a.5.5 0 0 0-.276-.912h-.04c-.32.001-.596.038-.898.046l1.15-1.125a.499.499 0 0 0-.532-.823c-.475.185-.861.258-1.539.268zm-1.896 3.577v-.001zm.394.89l.003.002-.003-.003zm.201-.273zm1.311-3.194l.028-.001c-.14.048-.289.09-.478.135a5.827 5.827 0 0 1-.474.085c-.064.01-.156.017-.27.035a1.07 1.07 0 0 0-.416.146.499.499 0 0 0 .167.91l1.504.315.026.005c.042.007.074.004.115.009-.565.21-1.044.268-1.823.294a.5.5 0 0 0-.465.362l-.145.507a.489.489 0 0 0-.108.314h-.004c-.006.078-.128.414-.265.708a18.2 18.2 0 0 1-.359.74c-.493.968-1.176 1.822-1.962 2.632-.226.236-.979.909-1.233 1.092-1.82 1.326-3.764 2.37-6.86 2.927-.891.16-1.776.235-2.644.235-3.43.001-6.602-1.197-8.967-3.142a8.566 8.566 0 0 0 2.947.396c1.782-.076 3.206-.694 4.428-1.543a7.65 7.65 0 0 0 .868-.728c.093-.1.172-.177.253-.328a.502.502 0 0 0-.24-.68l-1.73-.788c.003-.087.038-.183.153-.325.116-.133.101-.121.252-.223.082-.06.285-.13.506-.324a.5.5 0 0 0-.273-.864l-1.656-.215c-.232-.049-.633-.29-.927-.572a2.554 2.554 0 0 1-.325-.364c.25-.166.364-.24.423-.26.074-.037.275-.065.873-.166a.5.5 0 0 0 .144-.936l-.15-.078-.052-.023c-.394-.148-.681-.219-.929-.32-.248-.103-.488-.234-.853-.545a2.938 2.938 0 0 1-.568-.681 2.337 2.337 0 0 1-.191-.398l1.157-.152a.5.5 0 0 0 .214-.911c-.654-.438-1.217-.868-1.596-1.34a2.553 2.553 0 0 1-.543-1.137 58.059 58.059 0 0 1 4.533 1.882c.798.369 1.722.812 2.39 1.211.344.204.796.58 1.168.909.187.165.355.319.492.44l.183.157.086.065.137.077a.5.5 0 0 0 .644-.256l1.763-3.868c.179-.343.651-1.032 1.16-1.633.187-.221.376-.422.56-.604a.5.5 0 0 0 .584.043c.2-.124.38-.239.556-.346.013.052.007.107.036.154.045.072.11.124.18.164a1.058 1.058 0 0 0-.288.188.502.502 0 0 0 .212.842l3.074.861a6.25 6.25 0 0 1 1.752 1.737c.235.348.447.738.618 1.145.265.627.245.897.418 1.38a.71.71 0 0 0 .27.333c.168.111.322.155.485.195.481.11 1.065.12 1.361.121h.074z"/></svg>