<svg xmlns="http://www.w3.org/2000/svg" width="39.685" height="39.685" viewBox="0.0000038 0 39.6850395 39.6850586"><path d="M28.082 16.99c.125-.29.205-.55.207-.827a.955.955 0 0 0-.19-.595l-.02-.024-.02-.021-.217-.192c-.077-.055-.152-.11-.294-.148-.12-.027-.18-.026-.298-.032a9.804 9.804 0 0 0-.424-.007h-2.864c-.167 0-.308.006-.435.021-.13.02-.237.03-.4.12-.17.11-.226.21-.3.321a3.264 3.264 0 0 0-.19.37l-.07.138v.002l-.003.005-.277.577c-.189.397-.293.619-.347.775l-.019.045c-.04.09-.133.272-.269.52a6.334 6.334 0 0 1-.377.633c-.1.134-.233.321-.404.57-.148.217-.28.352-.36.406l-.11.078a2.114 2.114 0 0 1-.097-.685c0-.347.008-.678.023-.993.015-.316.038-.648.068-.996.031-.362.047-.579.048-.712v-.002c.007-.467-.166-.934-.534-1.222-.362-.285-.822-.383-1.342-.386-.022 0-.248-.017-.618-.045-.41-.032-.76-.048-1.055-.048-.591.001-1.082.062-1.495.218-.407.15-.763.436-.913.846l-.187.497.508.156c.303.096.477.228.601.406.122.18.202.437.202.815v.087l-.001.008v.008c0 .751-.008 1.313-.023 1.677a5.965 5.965 0 0 1-.02.327l-.035.138c-.009.037-.017.056-.027.082a1.074 1.074 0 0 1-.088-.071c-.695-.905-1.427-2.2-2.177-3.881l-.005-.01-.004-.01a1.573 1.573 0 0 0-.44-.557 1.106 1.106 0 0 0-.677-.231l-.07.003c-.11 0-.5-.007-1.143-.023a26.297 26.297 0 0 0-.604-.007c-.373 0-.68.01-.93.032-.39.042-.72.11-1.003.376l-.161.161.016.228c.039.52.214 1.09.505 1.74l.002.004.002.004c.757 1.61 1.895 3.492 3.415 5.664l.017.025.02.022c.56.622.988 1.073 1.299 1.368.32.304.731.625 1.238.974a4.66 4.66 0 0 0 1.836.75c.503.09 1.06.133 1.673.133.174 0 .353-.003.536-.01l.022-.001.021-.003c.248-.03.426-.054.539-.07h.001c.26-.043.442-.164.634-.313.274-.216.423-.548.461-.883l.001-.011.089-1.15.022-.057.006-.008.024-.003.03.002c.11.01.18.035.216.056l.068.064v.002l.002.002c.266.45.71.931 1.345 1.506.627.556 1.201.905 1.836.915l.092-.003 3.049-.138v-.002c.208-.003.43-.056.615-.194.192-.14.314-.348.373-.555.034-.116.05-.236.05-.356 0-.338-.125-.653-.316-.954l-.004-.007-.005-.007c-.502-.734-1.335-1.624-2.518-2.714-.154-.153-.186-.248-.191-.388-.008-.183.134-.54.544-.995l-.001.002c.577-.642 1.169-1.432 1.78-2.372.23-.356.41-.672.536-.96zm-.916-.402a5.921 5.921 0 0 1-.459.817c-.59.907-1.153 1.657-1.685 2.248v.001c-.482.545-.792 1.073-.8 1.661a1.52 1.52 0 0 0 .505 1.114l.004.003.001.002c1.15 1.058 1.945 1.919 2.368 2.538.124.195.159.336.158.413l-.01.075-.012.028-.04.005h-.012l-3.067.139h-.005l-.034.001c-.201.01-.628-.166-1.167-.659-.597-.534-.985-.978-1.15-1.266l.002.003a1.164 1.164 0 0 0-.452-.443 1.544 1.544 0 0 0-.604-.176l-.126-.006a1.017 1.017 0 0 0-.67.236c-.19.162-.298.379-.358.6l-.012.045-.095 1.227c-.023.155-.06.194-.093.223l-.135.093-.025.012a39.7 39.7 0 0 1-.489.064c-.164.006-.324.01-.479.01a8.497 8.497 0 0 1-1.497-.119 3.655 3.655 0 0 1-1.445-.59 9.377 9.377 0 0 1-1.117-.874c-.27-.256-.683-.69-1.22-1.287-1.489-2.128-2.594-3.962-3.312-5.488a4.951 4.951 0 0 1-.353-1.066c.055-.01.099-.024.175-.03.202-.018.486-.029.84-.028.176 0 .37.002.58.007.65.016 1.03.023 1.167.023h.025l.025-.002.02-.001.07.025c.033.024.09.087.152.21.777 1.738 1.543 3.102 2.316 4.102l.024.031.029.028c.255.229.504.42.882.432a.83.83 0 0 0 .644-.317c.117-.146.183-.308.235-.481l.03-.061.05-.187c.026-.177.038-.419.05-.791.009-.369.014-.852.014-1.454l.001-.104c.001-.517-.112-.99-.375-1.377a1.86 1.86 0 0 0-.424-.426c.238-.08.601-.136 1.083-.135.26 0 .587.015.978.045l.464.035c.117.008.157.012.22.013.4-.002.63.085.728.167.094.081.152.169.16.44 0 .054-.015.283-.045.628a23.941 23.941 0 0 0-.095 2.076c0 .397.05.756.171 1.077.116.31.306.607.652.75l.257.103.223-.163c.167-.122.326-.235.477-.34.23-.163.42-.383.611-.659.167-.243.296-.425.38-.537.125-.168.264-.405.455-.754.094-.173.17-.315.228-.432.059-.118.098-.2.131-.297.007-.027.12-.283.3-.657l.275-.573.068-.136.004-.01.005-.01c.049-.11.09-.19.122-.244.064-.007.157-.015.299-.014h2.864c.166 0 .296.002.385.006l.055.003.022.02c0 .058-.03.207-.122.415z"/><path d="M19.843.27C9.033.27.27 9.033.27 19.843s8.763 19.572 19.573 19.572 19.572-8.763 19.572-19.572C39.415 9.033 30.652.27 19.843.27zm13.132 32.705a18.512 18.512 0 0 1-13.132 5.44c-5.13 0-9.77-2.078-13.133-5.44a18.512 18.512 0 0 1-5.44-13.132c0-5.13 2.078-9.77 5.44-13.133a18.512 18.512 0 0 1 13.133-5.44c5.13 0 9.77 2.078 13.132 5.44a18.512 18.512 0 0 1 5.44 13.133c0 5.13-2.078 9.77-5.44 13.132z"/></svg>