<svg xmlns="http://www.w3.org/2000/svg" width="39.685" height="39.685" viewBox="0 0 39.6850395 39.6850395"><path d="M19.843.27C9.033.27.27 9.033.27 19.843s8.763 19.572 19.573 19.572 19.572-8.763 19.572-19.572C39.415 9.033 30.652.27 19.843.27zm13.132 32.705a18.512 18.512 0 0 1-13.132 5.44c-5.13 0-9.77-2.078-13.133-5.44a18.512 18.512 0 0 1-5.44-13.132c0-5.13 2.078-9.77 5.44-13.133a18.512 18.512 0 0 1 13.133-5.44c5.13 0 9.77 2.078 13.132 5.44a18.512 18.512 0 0 1 5.44 13.133c0 5.13-2.078 9.77-5.44 13.132z"/><path d="M19.732 17.536h.047c.89-.006 1.622-.38 2.09-.935.47-.553.693-1.26.694-1.959 0-.698-.224-1.404-.7-1.953-.474-.55-1.216-.913-2.118-.909l-.261.01c-.873.058-1.578.426-2.036.96a2.861 2.861 0 0 0-.679 1.876c0 .716.249 1.437.754 1.992.503.556 1.273.922 2.209.918zm-1.528-4.132c.288-.328.708-.569 1.35-.617l.191-.007c.648.004 1.066.23 1.363.566.295.336.455.81.455 1.296s-.16.967-.455 1.31c-.298.342-.71.572-1.341.584h-.035c-.686-.003-1.147-.243-1.47-.592a1.961 1.961 0 0 1-.493-1.318c0-.452.15-.892.435-1.222z"/><path d="M15.38 19.316c1.232 1.052 2.845 1.6 4.448 1.602 1.392 0 2.789-.417 3.91-1.312 1.123-.893 1.95-2.268 2.206-4.086.04-.287.06-.575.06-.863a6.38 6.38 0 0 0-1.386-3.958c-.9-1.13-2.226-1.982-3.875-2.262a6.232 6.232 0 0 0-1.048-.088 6.622 6.622 0 0 0-4.003 1.35 5.971 5.971 0 0 0-2.286 3.898c-.06.391-.089.77-.088 1.136-.004 1.956.83 3.534 2.063 4.583zm-.986-5.569a4.965 4.965 0 0 1 1.908-3.254 5.627 5.627 0 0 1 3.393-1.144c.297 0 .592.024.88.073 1.406.242 2.502.95 3.262 1.9a5.382 5.382 0 0 1 1.168 3.335c0 .241-.017.482-.051.722-.23 1.599-.92 2.708-1.84 3.445-.92.735-2.09 1.093-3.286 1.094-1.375 0-2.768-.48-3.797-1.362-1.029-.886-1.71-2.15-1.714-3.823 0-.314.025-.643.077-.986l-.494-.075.494.075z"/><path d="M26.35 23.566c.312-.359.543-.82.541-1.35a2.199 2.199 0 0 0-.306-1.083c-.208-.372-.441-.659-.726-.859a1.593 1.593 0 0 0-.93-.29c-.403.002-.773.125-1.151.277-1.126.467-2.394 1.26-4.19 1.26-.63 0-1.328-.098-2.115-.351-.44-.142-.832-.346-1.231-.533-.398-.183-.816-.362-1.313-.365-.41-.003-.84.14-1.246.436a2.125 2.125 0 0 0-.89 1.75c.003.686.3 1.36.859 1.79.48.362 1.138.658 1.821.913.389.144.78.268 1.145.373-.416.45-.99.994-1.536 1.565-.402.423-.787.865-1.085 1.33-.295.464-.516.961-.518 1.507-.007.54.255 1.088.747 1.499.408.352.88.541 1.35.538.47 0 .903-.172 1.303-.42 1.084-.684 2.083-1.976 3.183-3.173.678.575 1.428 1.316 2.08 1.943.308.297.668.633 1.077.908.409.272.88.497 1.422.5.498.004 1.016-.218 1.441-.659.417-.417.645-.923.64-1.431 0-.473-.176-.91-.427-1.315-.651-1.03-1.845-2-2.962-3.015.516-.196 1.228-.471 1.887-.853.417-.244.815-.53 1.13-.892zm-3.56.882c-.131.05-.248.096-.352.14-.105.046-.19.084-.29.15l-.513.347.448.428c.872.834 1.82 1.613 2.527 2.332.353.358.644.7.835 1.009.193.31.279.573.278.787-.004.227-.076.441-.354.73l.357.35-.357-.35c-.291.289-.505.355-.728.36-.243.002-.545-.115-.865-.33-.32-.214-.644-.511-.941-.798-.757-.727-1.674-1.651-2.508-2.305l-.358-.28-.313.33c-.847.893-1.616 1.838-2.32 2.536-.35.349-.684.634-.984.82-.302.187-.56.27-.775.27-.217-.004-.426-.07-.702-.3-.317-.28-.39-.489-.396-.738-.003-.254.118-.592.36-.968.36-.565.961-1.188 1.553-1.775.594-.594 1.172-1.139 1.525-1.676l.392-.603-.702-.157a14.625 14.625 0 0 1-1.786-.533c-.632-.233-1.236-.52-1.563-.772-.28-.209-.467-.604-.464-.994a1.12 1.12 0 0 1 .472-.938c.28-.198.47-.245.663-.248.233-.003.52.097.89.272.369.17.808.403 1.347.578a7.824 7.824 0 0 0 2.422.398c1.398.001 2.521-.416 3.409-.81.443-.198.831-.39 1.159-.523.328-.135.593-.205.773-.203a.583.583 0 0 1 .357.11c.12.083.267.242.427.527.134.241.178.432.178.595 0 .273-.127.53-.406.811-.411.416-1.13.79-1.79 1.065-.33.139-.644.256-.905.356z"/></svg>