<svg xmlns="http://www.w3.org/2000/svg" width="39.685" height="39.685" viewBox="0 0 39.6850395 39.6850395"><path d="M19.843.27C9.033.27.27 9.033.27 19.843s8.763 19.572 19.573 19.572 19.572-8.763 19.572-19.572C39.415 9.033 30.652.27 19.843.27zm13.132 32.705a18.512 18.512 0 0 1-13.132 5.44c-5.13 0-9.77-2.078-13.133-5.44a18.512 18.512 0 0 1-5.44-13.132c0-5.13 2.078-9.77 5.44-13.133a18.512 18.512 0 0 1 13.133-5.44c5.13 0 9.77 2.078 13.132 5.44a18.512 18.512 0 0 1 5.44 13.133c0 5.13-2.078 9.77-5.44 13.132z"/><path d="M21.56 9.375c-1.396-.002-2.634.432-3.512 1.3-.88.868-1.364 2.142-1.362 3.695v2.009H13.75v4.4h2.936v8.727h4.512V20.78h2.87l.567-4.401h-3.437v-1.672c-.002-.454.075-.74.196-.875a.641.641 0 0 1 .296-.188c.153-.054.38-.093.694-.092l2.3-.001V9.57l-.433-.058a24.445 24.445 0 0 0-2.69-.138zm.824 3.177c-.392 0-.729.045-1.024.148a1.591 1.591 0 0 0-.954.84c-.171.371-.206.765-.208 1.167v2.672h3.3l-.31 2.4h-2.99v8.727h-2.512V19.78H14.75v-2.401h2.936V14.37c.003-1.356.407-2.33 1.065-2.983.66-.651 1.61-1.01 2.81-1.012.86 0 1.64.046 2.124.086v2.09h-1.301z"/></svg>