<svg id="Line_19" xmlns="http://www.w3.org/2000/svg" width="25" height="25" viewBox="0 0 25 25"><style>.st0{fill:#fff}</style><path class="st0" d="M18.2 12.5l5.7-5.7c1.6-1.6 1.6-4.1 0-5.7-1.6-1.6-4.1-1.6-5.7 0l-5.7 5.7-5.7-5.6C5.2-.4 2.7-.4 1.1 1.2c-1.6 1.6-1.6 4.1 0 5.7l5.7 5.7-5.7 5.7c-1.6 1.6-1.6 4.1 0 5.7 1.6 1.6 4.1 1.6 5.7 0l5.7-5.7 5.7 5.7c1.6 1.6 4.1 1.6 5.7 0 1.6-1.6 1.6-4.1 0-5.7l-5.7-5.8zm4.2 9.9c-.8.8-2 .8-2.8 0l-7.1-7.1-7.1 7.1c-.8.8-2 .8-2.8 0-.8-.8-.8-2 0-2.8l7.1-7.1-7.1-7.1c-.8-.8-.8-2 0-2.8.8-.8 2-.8 2.8 0l7.1 7.1 7.1-7.1c.8-.8 2-.8 2.8 0 .8.8.8 2.1 0 2.8l-7.1 7.1 7.1 7.1c.8.8.8 2 0 2.8z" id="_x38__54_"/></svg>