<svg xmlns="http://www.w3.org/2000/svg" width="51.024" height="51.024" viewBox="0 0 51.0236206 51.0236206"><path d="M33.836 23.526h1.32V33.1H16.772v-9.574h1.32v-1h-2.32V34.1h20.384V22.526h-2.32z"/><path d="M30.933 24.804l-.707-.707-3.762 3.761V15.43h-1v12.43l-3.762-3.762-.707.707 4.969 4.969z"/><path d="M25.512 1.442c-13.294 0-24.07 10.776-24.07 24.07s10.776 24.07 24.07 24.07 24.07-10.776 24.07-24.07-10.776-24.07-24.07-24.07zm16.313 40.383a22.996 22.996 0 0 1-16.313 6.757 22.996 22.996 0 0 1-16.313-6.757 22.996 22.996 0 0 1-6.757-16.313A22.996 22.996 0 0 1 9.199 9.199a22.996 22.996 0 0 1 16.313-6.757 22.996 22.996 0 0 1 16.313 6.757 22.996 22.996 0 0 1 6.757 16.313 22.996 22.996 0 0 1-6.757 16.313z"/></svg>