<svg xmlns="http://www.w3.org/2000/svg" width="19.298" height="14.797" viewBox="0 0 19.2976074 14.7974548"><path d="M19.298 8.57c-.002-1.598-.118-3.583-.683-5.265-.284-.84-.684-1.612-1.268-2.21A3.56 3.56 0 0 0 15.045.017h-.006l-.004-.001A3.156 3.156 0 0 0 14.727 0c-.581-.003-1.084.183-1.456.483-.563.453-.835 1.097-.986 1.691a6.465 6.465 0 0 0-.176 1.533c0 .236.012.385.012.395a.5.5 0 0 0 .997-.081l-.004-.077a5.356 5.356 0 0 1-.005-.237c-.003-.415.05-1.169.296-1.748.122-.292.285-.532.488-.694.206-.16.45-.262.834-.265l.217.011h.005l.005.001a2.55 2.55 0 0 1 1.679.783c.66.668 1.1 1.773 1.347 3.015.205 1.019.285 2.114.307 3.117-.778-.985-1.969-1.63-3.322-1.63a4.236 4.236 0 0 0-3.592 2h-3.53a4.236 4.236 0 0 0-3.593-2A4.22 4.22 0 0 0 1.082 7.74c.076-.98.218-2.09.484-3.117.244-.946.593-1.815 1.05-2.428.465-.616.99-.97 1.694-1.032h.009l.217-.012c.384.003.629.105.834.266.305.238.52.672.639 1.152a5.489 5.489 0 0 1 .141 1.526l-.004.077a.5.5 0 0 0 .996.082c.001-.011.013-.16.013-.396-.002-.486-.044-1.336-.374-2.134-.167-.398-.413-.79-.788-1.09-.373-.3-.875-.486-1.457-.483-.1 0-.203.006-.308.016h-.01V.17C3.192.252 2.38.828 1.815 1.599.956 2.761.528 4.376.283 5.922a26.09 26.09 0 0 0-.274 4.533c0 .031-.009.06-.009.091a4.25 4.25 0 0 0 8.5 0c0-.095-.022-.185-.028-.28h2.271c-.006.095-.028.185-.028.28a4.249 4.249 0 1 0 8.498.023.488.488 0 0 0 .038-.151c.022-.491.047-1.13.047-1.85zM4.25 13.797a3.253 3.253 0 0 1-3.247-3.216c.002-.02.01-.036.01-.056l-.003-.071a3.25 3.25 0 0 1 3.24-3.157 3.254 3.254 0 0 1 3.25 3.25 3.254 3.254 0 0 1-3.25 3.25zm10.715 0a3.254 3.254 0 0 1-3.25-3.25 3.254 3.254 0 0 1 3.25-3.25 3.254 3.254 0 0 1 3.25 3.25 3.254 3.254 0 0 1-3.25 3.25z"/></svg>