<svg xmlns="http://www.w3.org/2000/svg" width="23.545" height="23.547" viewBox="0 0 23.545 23.547"><path fill="#44BAE5" d="M12.326 22.987V6.319c0-.31.249-.56.562-.56h3.903c.313 0 .567.25.567.56v16.668c0 .31-.254.56-.567.56h-3.903a.56.56 0 0 1-.562-.56zm1.125-16.108v15.546h2.783V6.879h-2.783zM6.17 22.987V12.075c0-.31.25-.56.558-.56h3.909c.308 0 .562.25.562.56v10.911c0 .31-.254.56-.562.56h-3.91a.557.557 0 0 1-.557-.559zm1.12-10.352v9.79h2.783v-9.79H7.29zm11.231 10.352v-5.151c0-.312.25-.56.557-.56h3.909c.313 0 .558.248.558.56v5.151c0 .31-.245.56-.558.56h-3.908a.559.559 0 0 1-.558-.56zm1.12-4.591v4.028h2.788v-4.028h-2.788zM0 22.987V.56C0 .252.25 0 .557 0H4.47a.56.56 0 0 1 .557.56v22.427c0 .31-.249.56-.557.56H.557a.558.558 0 0 1-.557-.56zM1.12 1.122v21.302h2.788V1.122H1.12z"/></svg>