<svg xmlns="http://www.w3.org/2000/svg" width="45" height="45" viewBox="0 0 45 45"><path d="M40.735 32.493c0-7.707 0-15.414-.002-23.121 0-.98-.287-1.249-1.26-1.27-.347-.008-.728.127-1.037-.095-1.454-1.043-2.756-2.725-2.028-4.982.349-1.082.405-1.129 1.54-1.147.083-.002.167.004.25-.005.539-.055.92-.435.928-.921.008-.507-.394-.904-.966-.945-.166-.013-.333-.004-.5-.004H9.102C7.17.003 5.698.816 4.77 2.531c-.558 1.032-.474 2.161-.47 3.287.016 5.645.007 11.29.007 16.934h-.026c0 5.624.017 11.248-.016 16.872-.006 1.083.073 2.059.81 2.942.496.596.95 1.198 1.65 1.572 1.127.602 2.336.857 3.598.858 9.686.006 19.372.004 29.058.003 1.06 0 1.353-.3 1.354-1.383V32.493zM7.615 2.195c.357-.19.731-.306 1.13-.306 8.664-.003 17.328-.003 26.086-.003-.872 2.244-.638 4.289.94 6.22h-.92L12.167 8.08c-1.227 0-2.457.114-3.68-.049-1.27-.169-2.199-1.132-2.316-2.405-.128-1.393.033-2.676 1.444-3.43zm5.005 8.431c-.002-.52.123-.648.641-.64 2.144.032 4.288.018 6.432.007.337-.002.517.016.515.45-.017 5.246-.012 10.491-.014 15.736 0 .059-.022.117-.06.301l-2.907-3.286c-.819-.925-1.27-.924-2.039.016-.822 1.005-1.64 2.015-2.554 3.138v-.673c0-5.016.008-10.032-.014-15.049zm25.761 32.507c-9.416-.01-18.831.005-28.247-.025-1.204-.004-2.435-.201-3.244-1.275-.46-.61-.758-1.268-.755-2.106.029-9.894.019-19.79.019-29.684V9.07c1.276.9 2.628.956 3.985.899.54-.023.633.147.632.65-.02 5.937-.012 11.874-.013 17.811 0 .125.004.25 0 .375-.017.475.118.881.595 1.06.496.185.88-.02 1.197-.416 1.08-1.348 2.183-2.677 3.24-4.042.341-.44.525-.462.894-.025 1.1 1.303 2.246 2.569 3.378 3.846.165.186.333.38.534.521.578.408 1.293.113 1.42-.586.052-.284.054-.58.054-.87.003-5.916.009-11.832-.011-17.748-.002-.479.12-.577.577-.575 5.25.02 10.5.022 15.749.01.394-.001.484.106.484.483-.01 10.728-.01 21.456 0 32.184 0 .386-.104.487-.488.486z"/></svg>