<svg xmlns="http://www.w3.org/2000/svg" width="45" height="45" viewBox="0 0 45 45"><path d="M43.55 22.854c-.941-1.17-2.308-1.985-3.943-2.315a3.768 3.768 0 0 0-.751-.081 2.898 2.898 0 0 0-1.783.615c-1.505 1.126-3.106 1.673-4.688 1.673-1.5 0-2.998-.49-4.408-1.52-.675-.499-1.406-.742-2.122-.737-.479 0-.94.098-1.393.246a7.12 7.12 0 0 0-1.13.47c-.312.163-.574.23-.821.23a1.557 1.557 0 0 1-.75-.207 7.449 7.449 0 0 0-1.381-.556 4.176 4.176 0 0 0-1.208-.194c-.704-.005-1.418.239-2.067.726-1.39 1.029-2.934 1.525-4.473 1.526-1.615 0-3.23-.547-4.657-1.654a2.792 2.792 0 0 0-1.755-.622c-.222 0-.442.025-.66.066-1.695.321-3.105 1.133-4.069 2.342C.524 24.07.016 25.646.001 27.433L0 27.471l.003.038c.051.53.058 1.127.174 1.767.847 4.637 3.374 8.29 6.769 11.305 1.733 1.527 3.802 2.186 5.43 3.244.134.08.285.176.568.184.2.008.459-.098.595-.246.207-.224.224-.392.252-.493.021-.105.026-.172.031-.205.101-.722.235-1.41.465-2.045.197-.546.453-.986.775-1.318.324-.33.712-.568 1.256-.71l.176-.026c.09.008.095.001.204.092l.007.006-.007-.006c.44.413.945.801 1.554 1.074 1.19.532 2.387.823 3.572.823 1.646.003 3.249-.571 4.71-1.716.241-.183.372-.217.521-.221.088 0 .197.017.345.073.397.149.693.35.936.607.243.258.435.581.582.99.291.806.458 1.694.663 2.623.028.104.038.242.17.471a.935.935 0 0 0 .812.45 1.39 1.39 0 0 0 .373-.058c4.436-1.267 8.069-3.775 10.658-7.654 1.717-2.567 3.099-5.352 3.375-8.606.02-.244.031-.486.031-.723.001-1.662-.507-3.17-1.45-4.337zM13.178 42.573l-.023-.015.023.015zm30.31-14.785c-.247 2.9-1.48 5.438-3.13 7.905-2.321 3.461-5.463 5.686-9.409 6.912-.167-.781-.337-1.598-.632-2.421a4.282 4.282 0 0 0-.897-1.505 3.9 3.9 0 0 0-1.5-.982 2.467 2.467 0 0 0-.865-.166c-.528-.004-1.029.211-1.437.536-1.25.97-2.49 1.397-3.794 1.4-.94 0-1.927-.229-2.965-.693-.404-.18-.779-.458-1.143-.8a1.758 1.758 0 0 0-1.222-.495c-.19 0-.372.029-.545.073-.788.2-1.45.592-1.954 1.114-.506.522-.858 1.159-1.107 1.848a9.985 9.985 0 0 0-.415 1.638c-1.641-.93-3.304-1.569-4.539-2.682-3.228-2.876-5.513-6.214-6.295-10.462-.086-.46-.1-.995-.15-1.577.02-1.513.438-2.731 1.163-3.64.731-.91 1.783-1.539 3.187-1.81a2.05 2.05 0 0 1 .381-.04c.307.007.524.07.843.31 1.67 1.297 3.615 1.967 5.569 1.967 1.863 0 3.728-.61 5.359-1.82.455-.33.792-.428 1.181-.433.23 0 .485.042.779.131a6.05 6.05 0 0 1 1.105.441c.463.25.96.387 1.455.385.53.001 1.043-.152 1.517-.404.272-.144.577-.266.894-.37a3.03 3.03 0 0 1 .933-.172c.406.005.764.106 1.244.45 1.635 1.198 3.456 1.809 5.286 1.808 1.931 0 3.856-.677 5.58-1.971.341-.248.574-.312.89-.318.135 0 .285.017.456.051l.148-.728-.148.728c1.334.273 2.365.906 3.081 1.791.713.887 1.12 2.04 1.12 3.404 0 .195-.008.394-.025.597zm-43.309 1.5l-.002-.012z"/><path d="M26.778 30.645c.088-.46.174-.924.234-1.401a4.18 4.18 0 0 0 .034-.523 3.598 3.598 0 0 0-.614-2.044 3.74 3.74 0 0 0-1.696-1.343c-.984-.4-1.976-.611-2.773-.615l-.097.001c-.5.009-.891.017-1.24.047-.517.042-.983.16-1.4.41-.415.25-.754.568-1.242 1.018l-.082.067-.033.02a2 2 0 0 0-1.03.859c-.214.371-.291.764-.315 1.136a10.95 10.95 0 0 0-.024.7c0 .403.025.812.087 1.226.027.179.068.317.093.424l.005.023a.968.968 0 0 0-.484.292 1.185 1.185 0 0 0-.26.543 2.22 2.22 0 0 0-.043.372 9.92 9.92 0 0 0-.009.415c0 .484.04.984.158 1.489.028.113.065.243.136.396.037.076.082.16.158.254a.93.93 0 0 0 .386.286c.13.059.146.079.236.239.082.156.156.433.303.772.428.954 1.037 1.755 1.78 2.327.74.572 1.626.915 2.56.914.135 0 .27-.007.406-.022a4.522 4.522 0 0 0 2.597-1.134c.678-.608 1.163-1.381 1.542-2.215.127-.283.206-.512.286-.656.084-.147.133-.202.247-.268a1.35 1.35 0 0 0 .612-.746c.09-.257.113-.489.122-.69v.001c.019-.446.02-.88.028-1.302v-.043c-.002-.232-.026-.517-.21-.816a1.168 1.168 0 0 0-.458-.413zm-.043.262l-.002.012v-.001l.002-.011zm-.826 2.49zm-.778.815c-.161.3-.246.562-.334.75-.324.715-.712 1.305-1.18 1.722-.47.416-1.01.682-1.762.765l-.25.013c-.568 0-1.13-.204-1.652-.605-.52-.4-.991-1-1.33-1.757-.085-.18-.159-.478-.33-.829a1.945 1.945 0 0 0-.795-.842l-.003-.009a4.996 4.996 0 0 1-.119-1.148c0-.098.003-.199.007-.3.184-.075.36-.172.506-.33.239-.254.318-.598.312-.835-.002-.223-.044-.393-.076-.53a4.001 4.001 0 0 1-.067-.293c-.05-.33-.07-.666-.07-1.007 0-.2.007-.402.02-.606.014-.229.061-.39.117-.482.059-.092.107-.148.28-.22.263-.104.444-.25.59-.383.322-.299.56-.516.747-.66.286-.216.403-.27.676-.331.274-.058.731-.077 1.477-.088h.068c.523-.004 1.4.167 2.209.503.464.19.801.469 1.03.805.23.336.355.736.356 1.206 0 .108-.007.22-.021.336-.066.52-.16 1.045-.264 1.576-.016.086-.037.19-.038.336-.002.16.039.43.233.654a.975.975 0 0 0 .49.296c-.007.425-.009.838-.026 1.238a.931.931 0 0 1-.036.25c-.363.22-.619.528-.765.805zm-3.267-9.492h.007zm.176-6.866c.05.246.182.479.34.635.238.237.479.327.652.396.177.066.305.111.343.135l.09.049.1.022.118.028v-.002a7.182 7.182 0 0 0 1.988.284c1.41 0 2.74-.41 3.995-1.013l.042-.019c.879.58 1.816.905 2.77.904.99.001 1.96-.344 2.865-.969l.003.001c1.226.56 2.556.871 4.259.914h.04c.595-.018 1.556-.118 2.523-.525.169-.074.33-.156.493-.31.16-.145.32-.422.315-.718 0-.24-.086-.434-.176-.574a1.721 1.721 0 0 0-.306-.35c-.15-.131-.27-.206-.332-.256-1.578-1.231-2.537-2.71-2.794-4.657-.166-1.281-.199-2.642-.445-4.042-.178-1.037-.596-2.086-1.532-2.864-1.437-1.204-3.088-1.853-4.842-1.85-.693 0-1.4.1-2.114.295-1.175.32-2.234.839-3.05 1.655-.816.814-1.35 1.925-1.495 3.278-.105.96-.238 1.944-.296 2.957-.127 2.093-1.009 3.685-2.611 5.06-.009.016-.173.1-.396.25a1.47 1.47 0 0 0-.366.359 1.16 1.16 0 0 0-.18.927zm19.212-.192l.003.003-.003-.003zm-14.173-6.32c.053-.937.18-1.895.29-2.879.121-1.07.497-1.81 1.07-2.39.574-.577 1.382-.996 2.388-1.27a6.52 6.52 0 0 1 1.722-.242c1.39.003 2.664.487 3.888 1.504.594.5.865 1.124 1.022 1.981.223 1.254.258 2.59.434 3.973.287 2.274 1.458 4.105 3.173 5.488a6.1 6.1 0 0 1-1.44.224c-1.542-.045-2.615-.306-3.666-.78a1.544 1.544 0 0 0-.641-.153 1.405 1.405 0 0 0-.807.274c-.721.497-1.385.712-2.033.714-.641-.001-1.3-.212-2.016-.695a1.302 1.302 0 0 0-.733-.24c-.172 0-.32.038-.434.078-.114.04-.2.083-.274.118-1.126.54-2.234.867-3.35.867a5.687 5.687 0 0 1-1.613-.234l-.022-.006-.088-.02c-.062-.028-.124-.057-.176-.077.054-.036.11-.074.173-.127 1.852-1.562 3-3.612 3.133-6.108zm-5.037 6.521l-.002-.009zM38.913 7.73l.01.057zm-20.023.845l-.002.013zM6.462 14.487c.5.497.734 1.094 1.075 1.874.179.406.404.785.65 1.133a6.057 6.057 0 0 0 2.002 1.778c.77.424 1.61.674 2.441.676a3.6 3.6 0 0 0 1.025-.144c1.06-.316 1.972-.84 2.693-1.56.723-.72 1.247-1.628 1.576-2.677.053-.174.098-.307.137-.386l.088-.12a3.07 3.07 0 0 0 1.209-1.848c.15-.659.129-1.286.132-1.846v-.005a1.54 1.54 0 0 0-.244-.854 1.277 1.277 0 0 0-.596-.481c.082-.496.151-.983.238-1.44.072-.381.11-.755.11-1.12.002-1.003-.29-1.938-.86-2.693-.57-.758-1.4-1.322-2.408-1.671-.943-.328-1.927-.531-2.954-.531-.115 0-.23.003-.346.009-.16 0-.34-.007-.54-.008-.117 0-.24.003-.37.013-.58.044-1.194.114-1.797.365a3.086 3.086 0 0 0-1.554 1.406l-.014.02-.162.119c-.62.244-1.077.703-1.302 1.21-.23.507-.275 1.019-.29 1.498v.01-.01a14.486 14.486 0 0 0 .198 2.8 1.227 1.227 0 0 0-.522.302 1.37 1.37 0 0 0-.367.779 8.19 8.19 0 0 0-.08 1.07c0 .39.038.794.162 1.197.122.401.337.802.67 1.135zm.959-3.152a1.05 1.05 0 0 0 .563-.46c.121-.216.142-.418.143-.572 0-.14-.018-.254-.036-.355a12.91 12.91 0 0 1-.203-2.706c.008-.399.06-.715.154-.913.1-.196.195-.318.512-.456a1.87 1.87 0 0 0 .92-.803c.23-.407.476-.596.823-.747.345-.147.805-.217 1.331-.254h.004-.003a3.59 3.59 0 0 1 .261-.008c.16 0 .34.006.54.007h.018l.019-.001c.103-.005.207-.008.31-.008.829 0 1.643.163 2.465.449.786.274 1.341.675 1.707 1.16.364.487.559 1.071.561 1.8 0 .263-.027.544-.083.842-.108.568-.18 1.117-.271 1.639-.017.1-.038.214-.038.367 0 .099.01.216.05.35.055.199.213.423.405.547.145.096.288.142.43.174 0 .572.001 1.089-.094 1.49-.103.41-.248.69-.636.982-.266.192-.44.445-.548.669-.11.225-.167.428-.22.593-.27.857-.672 1.536-1.207 2.07-.536.533-1.21.93-2.069 1.188a2.08 2.08 0 0 1-.599.082c-.523.001-1.142-.169-1.722-.49A4.576 4.576 0 0 1 9.4 16.633a5.064 5.064 0 0 1-.503-.872l-.68.3.68-.3c-.318-.714-.622-1.56-1.381-2.325a1.226 1.226 0 0 1-.303-.522 2.606 2.606 0 0 1-.096-.76c0-.243.027-.509.06-.775.08-.012.16-.015.244-.045zm1.134-5.462l.003-.002z"/></svg>