<svg xmlns="http://www.w3.org/2000/svg" width="45" height="45" viewBox="0 0 45 45"><path d="M36.97 24.977c-.63-.133-.723-.37-.722-.934.018-6.585.006-13.17.022-19.755.001-.493-.122-.637-.623-.625-1.425.036-2.852.012-4.278.012-.86 0-.86 0-.896-.88C30.398.982 29.166-.141 27.516.1c-1.349.197-2.163 1.282-2.13 2.935.01.507-.094.658-.635.654-4.215-.026-8.43-.014-12.646-.014-1.157 0-1.157 0-1.223-1.171C10.812 1.27 9.904.265 8.712.1 7.476-.07 6.342.616 5.94 1.766c-.163.467-.161.95-.128 1.428.027.39-.1.498-.49.492-1.551-.022-3.104.012-4.655-.022-.51-.012-.667.107-.664.643.022 4.614.013 9.227.013 13.841H.013c0 4.614.01 9.228-.013 13.842-.003.556.11.733.707.73 5.893-.025 11.786-.015 17.68-.015 2.013 0 4.026.005 6.04-.005.34-.002.47.032.391.446a9.364 9.364 0 0 0-.108 2.687c.581 5.923 6.096 10.087 11.944 8.992 4.71-.882 8.237-5.007 8.296-9.702.062-4.92-3.233-9.145-7.98-10.146zM26.82 5.613c-.006-.92-.007-1.842.006-2.763.012-.863.398-1.324 1.084-1.333.697-.01 1.105.49 1.112 1.37.005.648 0 1.297 0 1.946 0 .65-.019 1.3.008 1.947.015.38-.05.585-.497.532-.553-.067-1.296.233-1.616-.125-.276-.307-.094-1.033-.097-1.574zM7.252 2.817c.003-.816.428-1.313 1.1-1.3.668.013 1.055.476 1.058 1.27.003.648 0 1.296 0 1.944 0 .731-.013 1.463.007 2.194.008.3-.08.408-.385.384-.577-.045-1.318.229-1.684-.112-.276-.258-.091-1.02-.095-1.559-.007-.94-.005-1.88-.001-2.82zm-5.8 2.807c-.005-.38.083-.5.481-.489 1.132.03 2.265.03 3.396 0 .397-.01.496.107.484.492-.03.88 0 1.76-.014 2.641-.005.32.039.498.434.492 1.404-.022 2.81-.02 4.214.001.384.006.446-.154.44-.485-.018-.88.01-1.761-.015-2.641-.01-.366.059-.5.47-.5 4.529.017 9.057.015 13.586.003.352 0 .463.086.453.447-.026.9.005 1.803-.016 2.704-.007.337.062.477.439.472 1.404-.023 2.81-.02 4.214-.004.356.004.471-.114.462-.47-.022-.88.008-1.761-.016-2.641-.01-.36.04-.522.463-.51 1.152.032 2.306.028 3.459.001.38-.009.435.132.432.464-.016 1.572-.03 3.145.006 4.717.012.514-.105.653-.637.65-5.368-.023-10.735-.014-16.102-.014-5.304 0-10.609-.013-15.913.018-.632.003-.742-.176-.725-.757.044-1.529.028-3.06.006-4.59zm23.43 25.6c-7.632-.011-15.266-.013-22.899.003-.463.001-.531-.144-.53-.562a3171.4 3171.4 0 0 0-.003-17.74c-.002-.488.14-.577.594-.576 5.368.016 10.737.01 16.105.01 5.348 0 10.695.005 16.042-.01.467 0 .637.08.634.604-.026 3.732-.028 7.465.002 11.198.004.51-.194.559-.602.593-4.068.337-6.957 2.388-8.702 6.06-.148.31-.293.42-.64.42zm9.882 12.324c-4.768-.013-8.667-3.934-8.654-8.702.014-4.803 3.948-8.711 8.74-8.68 4.777.03 8.653 3.933 8.644 8.704-.009 4.807-3.916 8.691-8.73 8.678z"/><path d="M38.713 34.856c-.9.027-1.802-.015-2.702.02-.404.015-.478-.116-.473-.49.02-1.614-.003-3.227.017-4.84.005-.375-.076-.554-.48-.495a1.706 1.706 0 0 1-.501 0c-.441-.068-.515.143-.506.533.025 1.047.009 2.095.008 3.143 0 1.006.03 2.013-.013 3.016-.021.496.153.592.605.58 1.193-.028 2.388-.01 3.582-.008.91.001.91.002.905-.883v-.126c.054-.35-.08-.46-.442-.45zM10.86 20.655h6.337v-6.337H10.86v6.337zm1.5-4.837h3.337v3.337H12.36v-3.337zm6.61 4.837h6.337v-6.337H18.97v6.337zm1.5-4.837h3.337v3.337h-3.338v-3.337zm12.947 4.087v-5.587h-6.338v6.337h6.338v-.75zm-4.838-4.087h3.338v3.337h-3.338v-3.337zM2.75 28.983h6.337v-6.338H2.75v6.338zm1.5-4.838h3.337v3.338H4.25v-3.338zm6.61 4.838h6.337v-6.338H10.86v6.338zm1.5-4.838h3.337v3.338H12.36v-3.338zm6.61 4.838h6.337v-6.338H18.97v6.338zm1.5-4.838h3.337v3.338h-3.338v-3.338zM14.125 7.068h1.75v1.75h-1.75zm3 0h1.75v1.75h-1.75zm3 0h1.75v1.75h-1.75z"/></svg>