<svg xmlns="http://www.w3.org/2000/svg" width="45" height="45" viewBox="0 0 45 45"><path d="M43.68 37.682c-1.723-.007-.06-.002-1.796-.002l.037-.107c.436-.122.873-.237 1.307-.36.906-.257 1.107-.604.867-1.506-.83-3.124-1.656-6.249-2.493-9.371-2.25-8.407-4.506-16.813-6.761-25.22-.305-1.135-.583-1.287-1.758-.973a6362.72 6362.72 0 0 0-7.928 2.12c-1.05.282-1.218.573-.937 1.645.591 2.247 1.187 4.492 1.824 6.905-1.183-.581-2.319-.59-3.463-.59-8.26.007-9.869.004-18.13.004-.228 0-.458-.014-.685.007-.803.077-1.161.69-.794 1.404.266.517.584 1.008.889 1.505.516.84.806 1.742.785 2.738-.027 1.284-.596 2.392-1.38 3.307-.873.049-1.344-.042-2.03.055l-.152.004c-.891.064-1.252.698-.823 1.486.327.6.702 1.31 1.033 1.908.796 1.438.829 2.899.061 4.355-.33.627-.73 1.218-1.07 1.84-.478.878-.102 1.508.894 1.521.534.008 1.068-.004 1.601.005.19.003.39-.062.535.17.73 1.17 1.436 2.341 1.33 3.805-.09 1.217-.627 2.28-1.378 3.157-.444.517-1.296.365-1.957.458l-.152.002c-.77.035-1.083.477-1.087 1.267C.062 40.9.062 42.18.071 43.856.075 44.69.389 45 1.219 45c17.538.001 25.037.002 42.575 0 .824 0 1.133-.313 1.137-1.155.008-1.626.005-3.253.002-4.88-.001-.978-.289-1.278-1.253-1.282zm-2.33-5.2c.195.887.468 1.757.708 2.635.081.297.09.498-.315.601-2.055.526-4.1 1.09-6.148 1.64-.073.02-.15.029-.23.044-.24.091-.287-.06-.338-.255-.248-.952-.5-1.905-.77-2.851-.088-.306.025-.38.302-.453a670.353 670.353 0 0 0 6.217-1.667c.307-.084.484-.106.575.306zm-.85-3.11l.024.072c.278.643.115.927-.623 1.096-1.82.416-3.612.95-5.416 1.436-.195.052-.393.097-.589.146-.245.073-.202-.143-.254-.264-.566-1.333-.506-1.442.871-1.801 1.638-.427 3.286-.823 4.899-1.33.725-.227 1.016-.063 1.089.645zm-4.832-18.127c1.334 5.036 2.684 10.067 4.031 15.099l.05.143c.069.295-.136.319-.344.374-2.077.551-4.156 1.096-6.226 1.676-.521.146-.514-.177-.599-.497-1.202-4.522-2.41-9.041-3.615-13.562l-.024-.15c-.103-.535-.61-1.143-.318-1.552.24-.336.962-.333 1.473-.47 1.66-.446 3.324-.877 4.98-1.338.321-.09.486-.121.592.277zM24.935 28.64c1.909-2.836 1.898-5.178-.071-7.53.634-.246 1.275-.447 1.822-.839.539-.385 1.012-.84 1.506-1.487.242.897.456 1.685.667 2.474 1.412 5.273 2.815 10.55 4.25 15.816.15.55.028.625-.48.616-1.59-.027-3.179-.01-4.82-.01 2.692-3.7.829-7.981-2.874-9.04zM5.358 30.36h.453c8.079 0 9.505-.005 17.585.003 1.89.001 3.317 1.064 3.742 2.735.6 2.359-1.097 4.575-3.531 4.578-5.97.01-6.286.004-12.256.004H5.353c1.494-2.47 1.474-4.867.005-7.32zM34.732 7.827c.374 1.25.375 1.25-.905 1.594-1.713.46-3.425.917-5.138 1.374-.122.033-.249.05-.39.08-.227.128-.286-.065-.357-.223-.031-.068-.037-.146-.058-.22-.354-1.241-.354-1.24.902-1.573 1.761-.466 3.531-.904 5.278-1.42.475-.14.566.046.668.388zm-8.207-4.04a252.345 252.345 0 0 0 6.225-1.674c.394-.112.477.016.556.334.226.907.454 1.815.714 2.712.08.276.082.397-.234.479-2.103.55-4.201 1.118-6.301 1.68-.049.012-.1.02-.181.035-.247.064-.3-.102-.357-.328-.232-.907-.484-1.81-.733-2.712-.08-.289-.042-.437.31-.527zm-21.16 8.271H5.9c8.028 0 9.404-.003 17.432.002 2.006.001 3.35 1.017 3.793 2.833.571 2.334-1.106 4.48-3.53 4.482-6.96.008-8.266.003-15.228.003H5.352c1.503-2.479 1.464-4.876.013-7.32zM2.921 28.527c-.068 0-.136-.022-.276-.046 1.443-2.407 1.45-4.806-.037-7.273h.597c8.001 0 9.35-.003 17.353.002 2.344.002 4.025 1.611 3.969 3.772-.05 1.897-1.625 3.537-3.491 3.54-8.256.016-9.86.006-18.115.005zm40.197 11.825a14.812 14.812 0 0 0-.003 2.21c.032.507-.135.622-.626.62-4.498-.02-5.612-.012-10.11-.012H20.865c-8.286 0-9.92-.008-18.205.016-.636.002-.826-.145-.778-.782.062-.809.034-1.626.007-2.439-.013-.372.108-.508.47-.458.125.018.254.003.382.003 16.52 0 23.003.005 39.524-.017.693 0 .914.167.853.86z"/><path fill="#010101" d="M9.454 34.934h7.755c3.25 0 2.839.001 6.088 0 .82-.001 1.229-.308 1.229-.91 0-.59-.423-.917-1.232-.918-6.5-.003-7.344-.003-13.843 0-.808 0-1.231.33-1.229.922.003.604.406.905 1.232.906zm-.007-18.302c3.224.002 4.454 0 7.678 0 3.275 0 2.889.002 6.164 0 .825 0 1.232-.301 1.237-.9.005-.584-.43-.927-1.228-.927-6.499-.004-7.342-.004-13.841 0-.81 0-1.233.325-1.235.915-.002.601.408.911 1.225.912z"/><path d="M21.78 24.866c-.004-.591-.424-.91-1.24-.911-6.499-.003-7.341-.003-13.84 0-.8 0-1.233.344-1.223.93.01.59.43.898 1.242.898 3.25.002 6.498 0 9.747 0 3.25 0 .843.002 4.092 0 .82-.001 1.228-.312 1.223-.917z"/><path fill="#010101" d="M34.1 23.077c.205.757.392 1.52.628 2.266.149.472.528.694 1.013.579.462-.11.744-.419.695-1.095-.011-.043-.057-.24-.109-.434-.438-1.663-.874-3.327-1.316-4.989-.442-1.66-.888-3.318-1.338-4.976-.118-.435-.32-.814-.833-.87-.38-.042-.703.077-.897.432-.185.338-.108.681-.014 1.03.727 2.685 1.448 5.371 2.172 8.057z"/></svg>