<svg xmlns="http://www.w3.org/2000/svg" width="18" height="18" viewBox="-0.25 -0.25 18 18"><path d="M8.064 12.43h1.34v1.339h-1.34zm.68-8.402c-.884 0-1.595.237-2.133.712S5.75 5.9 5.64 6.792l1.209.143c.104-.666.324-1.156.66-1.47s.753-.47 1.254-.47c.517 0 .956.173 1.312.52.358.346.537.748.537 1.205 0 .253-.061.486-.183.699-.122.214-.387.5-.794.86s-.69.632-.846.82a2.734 2.734 0 0 0-.464.763c-.13.336-.196.734-.196 1.196 0 .078.002.195.006.352h1.13c.01-.47.043-.81.1-1.019s.142-.394.26-.555.368-.411.751-.751c.57-.505.954-.934 1.15-1.287.196-.353.294-.739.294-1.157 0-.722-.278-1.338-.837-1.848-.556-.51-1.303-.765-2.24-.765z"/><path d="M8.75 0a8.75 8.75 0 1 0 0 17.5 8.75 8.75 0 0 0 0-17.5zm5.48 14.23a7.724 7.724 0 0 1-5.48 2.27 7.724 7.724 0 0 1-5.48-2.27A7.723 7.723 0 0 1 1 8.75c0-2.142.867-4.076 2.27-5.48A7.723 7.723 0 0 1 8.75 1c2.142 0 4.076.867 5.48 2.27a7.724 7.724 0 0 1 2.27 5.48 7.724 7.724 0 0 1-2.27 5.48z"/></svg>