<svg xmlns="http://www.w3.org/2000/svg" width="19.956" height="24.683" viewBox="0 0 19.956 24.683"><path opacity=".6" fill="#FFF" d="M12.754 18.921l-3.616-2.847-.036.034-.056.059a5.336 5.336 0 0 1-7.483-.06l-.051-.054a5.313 5.313 0 0 1 .051-7.474h.003l-.003-.005a5.303 5.303 0 0 1 3.769-1.562 5.31 5.31 0 0 1 3.77 1.563l.032.039 3.621-2.852a3.868 3.868 0 0 1-.501-1.905c0-1.064.427-2.031 1.126-2.729a3.86 3.86 0 0 1 5.451-.001 3.859 3.859 0 0 1 0 5.449 3.857 3.857 0 0 1-5.371.078L9.842 9.502c.52.82.82 1.797.82 2.842 0 1.04-.3 2.021-.82 2.837l3.618 2.846a3.848 3.848 0 0 1 2.644-1.049 3.845 3.845 0 0 1 3.852 3.853 3.809 3.809 0 0 1-1.133 2.719l.007.005a3.848 3.848 0 0 1-2.727 1.128c-1.06 0-2.029-.43-2.725-1.128a3.825 3.825 0 0 1-1.126-2.724 3.918 3.918 0 0 1 .502-1.91zm4.734.527a1.963 1.963 0 0 0-2.766 0 1.949 1.949 0 0 0 0 2.763c.356.357.845.572 1.382.572.537 0 1.028-.215 1.384-.572h.002c.352-.346.569-.839.569-1.381 0-.537-.219-1.03-.571-1.382zM7.757 9.917c-.618-.62-1.477-1.006-2.425-1.006s-1.802.386-2.427 1.006h-.002a3.411 3.411 0 0 0-1.001 2.427c0 .928.363 1.773.967 2.387l.036.04a3.434 3.434 0 0 0 4.817.038l.034-.039a3.403 3.403 0 0 0 1.003-2.427c0-.932-.366-1.773-.959-2.392l-.043-.034zm9.731-7.446a1.969 1.969 0 0 0-1.384-.572c-.537 0-1.026.22-1.382.572a1.964 1.964 0 0 0-.573 1.386c0 .537.222 1.026.573 1.382h-.002c.354.352.847.572 1.385.572a1.99 1.99 0 0 0 1.384-.572 1.96 1.96 0 0 0-.001-2.768z"/></svg>