<svg xmlns="http://www.w3.org/2000/svg" width="20.913" height="17.916" viewBox="0 0 20.913 17.916"><path opacity=".6" fill="#3082C5" d="M2.482 3.874H4.15V.486A.483.483 0 0 1 4.631 0h11.648c.267 0 .482.219.482.486v3.389h1.67c.265 0 .482.215.482.482v4.627h1.196c.444 0 .804.358.804.805v7.327c0 .441-.36.801-.804.801H.804A.803.803 0 0 1 0 17.115V9.788c0-.447.357-.805.804-.805H2V4.356c0-.267.215-.482.482-.482zm.482 5.11h1.185V4.836H2.964v4.148zm2.149 0h10.684V.968H5.113v8.016zm11.648 0h1.185V4.836h-1.185v4.148zm2.543 1.603H1.607v5.722h2.542v-1.783c0-.267.215-.486.482-.486h11.648c.267 0 .482.219.482.486v1.783h2.542v-5.722h.001zM5.113 16.309h10.684v-1.301H5.113v1.301z"/></svg>