<svg xmlns="http://www.w3.org/2000/svg" width="20.779" height="20.779" viewBox="0 0 20.7792969 20.7793236"><circle fill-rule="evenodd" clip-rule="evenodd" cx="2.562" cy="18.217" r="2.562"/><path fill-rule="evenodd" clip-rule="evenodd" d="M2.478 7.678c-.855 0-1.682.112-2.478.303v2.585a8.12 8.12 0 0 1 2.478-.388c2.247 0 4.27.907 5.744 2.38a8.092 8.092 0 0 1 2.38 5.743c0 .866-.138 1.697-.388 2.478h2.585c.19-.796.302-1.623.302-2.478 0-5.867-4.755-10.622-10.623-10.623z"/><path fill-rule="evenodd" clip-rule="evenodd" d="M2.478 0C1.636 0 .813.077 0 .187v2.526A15.82 15.82 0 0 1 2.478 2.5c4.368 0 8.31 1.767 11.173 4.628a15.746 15.746 0 0 1 4.628 11.173c0 .846-.085 1.67-.213 2.478h2.526c.11-.812.187-1.635.187-2.478C20.78 8.193 12.586.001 2.48 0z"/></svg>