<svg id="Layer_1" xmlns="http://www.w3.org/2000/svg" width="38.8" height="38.8" viewBox="0 0 38.8 38.8"><style>.st0{fill-rule:evenodd;clip-rule:evenodd}.st0,.st1{fill:#fff}</style><path class="st0" d="M21.5 23.9c1.1-.2 2.1-.7 3-1.2.7-.4.9-1.4.5-2.1-.4-.7-1.4-.9-2.1-.5-2.1 1.3-4.8 1.3-6.9 0-.7-.4-1.6-.2-2.1.5-.4.7-.2 1.6.5 2.1.9.6 1.9 1 3 1.2l-2.9 2.9c-.6.6-.6 1.5 0 2.1.3.3.7.4 1.1.4.4 0 .8-.1 1.1-.4l2.8-2.8 2.8 2.8c.3.3.7.4 1.1.4.4 0 .8-.1 1.1-.4.6-.6.6-1.5 0-2.1l-3-2.9zm-2.1-11.5c1.2 0 2.1 1 2.1 2.1s-1 2.1-2.1 2.1c-1.2 0-2.1-1-2.1-2.1s.9-2.1 2.1-2.1zm0-3c2.8 0 5.1 2.3 5.1 5.2 0 2.8-2.3 5.2-5.2 5.2-2.8 0-5.2-2.3-5.2-5.2.1-2.9 2.4-5.2 5.3-5.2z"/><path id="XMLID_8_" class="st1" d="M19.4 38.8C8.7 38.8 0 30.1 0 19.4S8.7 0 19.4 0s19.4 8.7 19.4 19.4-8.7 19.4-19.4 19.4zm0-37.8C9.2 1 1 9.2 1 19.4c0 10.1 8.2 18.4 18.4 18.4s18.4-8.2 18.4-18.4S29.5 1 19.4 1z"/></svg>