<svg id="Layer_1" xmlns="http://www.w3.org/2000/svg" width="38.8" height="38.8" viewBox="0 0 38.8 38.8"><style>.st0{fill-rule:evenodd;clip-rule:evenodd}.st0,.st1{fill:#fff}</style><path id="XMLID_14_" class="st0" d="M19.2 25.1h1.2s.4-.1.6-.3c.2-.2.2-.5.2-.5s0-1.6.7-1.9c.8-.2 1.7 1.6 2.8 2.2.8.5 1.4.4 1.4.4h2.8s1.4-.1.8-1.2c-.1-.1-.4-.8-2.1-2.3-1.7-1.6-1.5-1.3.6-4 1.3-1.6 1.8-2.6 1.6-3.1-.2-.4-1.1-.3-1.1-.3h-3.1s-.2 0-.4.1-.3.3-.3.3-.5 1.3-1.2 2.4c-1.4 2.3-1.9 2.4-2.2 2.3-.5-.3-.4-1.3-.4-2 0-2.2.3-3.1-.7-3.4-.3-.1-.6-.1-1.5-.1-1.1 0-2.1 0-2.6.3-.4.2-.6.5-.5.6.2 0 .7.1.9.4.3.4.3 1.4.3 1.4s.2 2.6-.4 2.9c-.4.2-1-.2-2.2-2.3-.6-1.1-1.1-2.2-1.1-2.2s-.1-.2-.3-.3c-.2-.1-.5-.2-.5-.2h-3s-.4 0-.6.2c-.1.2 0 .5 0 .5s2.3 5.3 5 7.9c2.5 2.3 5.3 2.2 5.3 2.2z"/><path id="XMLID_5_" class="st1" d="M19.4 38.8C8.7 38.8 0 30.1 0 19.4S8.7 0 19.4 0s19.4 8.7 19.4 19.4-8.7 19.4-19.4 19.4zm0-37.8C9.2 1 1 9.2 1 19.4c0 10.1 8.2 18.4 18.4 18.4s18.4-8.2 18.4-18.4S29.5 1 19.4 1z"/></svg>