<svg id="Layer_1" xmlns="http://www.w3.org/2000/svg" width="38.8" height="38.8" viewBox="0 0 38.8 38.8"><style>.st0{fill-rule:evenodd;clip-rule:evenodd}.st0,.st1{fill:#fff}</style><path id="XMLID_1_" class="st0" d="M18.2 11c.8-.9 2-1.3 3.2-1.3 1 0 1.9 0 2.9.1v3.1h-1.9c-1.1 0-1.6.6-1.7 1.7v2.5h3.6l-.5 3.2h-3.1v8.8h-3.6v-8.9l-3.1-.1v-3.4h3V14c.2-1 .5-2.2 1.2-3z"/><path id="XMLID_2_" class="st1" d="M19.4 38.8C8.7 38.8 0 30.1 0 19.4S8.7 0 19.4 0s19.4 8.7 19.4 19.4-8.7 19.4-19.4 19.4zm0-37.8C9.2 1 1 9.2 1 19.4c0 10.1 8.2 18.4 18.4 18.4 10.1 0 18.4-8.2 18.4-18.4S29.5 1 19.4 1z"/></svg>