<svg xmlns="http://www.w3.org/2000/svg" width="26.41" height="25.22" viewBox="0 0 26.41 25.22"><path opacity=".6" fill="#FFF" d="M13.201 4.315l-1.902 5.884a1.019 1.019 0 0 1-1.025.706l-6.124-.013 5.007 3.63c.376.266.512.742.365 1.155L7.609 21.54l4.996-3.648c.366-.267.847-.25 1.192 0l.01.005 4.985 3.643-1.923-5.884a1.027 1.027 0 0 1 .386-1.145l4.996-3.619-6.187.013a1.01 1.01 0 0 1-.962-.706l-1.901-5.884zM9.595 8.878L12.239.707c.094-.303.334-.554.648-.658a1.013 1.013 0 0 1 1.275.658l2.645 8.171 8.518-.016a1 1 0 0 1 .889.416c.334.454.23 1.089-.23 1.419l-6.95 5.032 2.665 8.166c.094.295.052.635-.146.907a1.008 1.008 0 0 1-1.411.223l-6.94-5.062-6.877 5.014a1.011 1.011 0 0 1-1.622-1.083l2.665-8.166-6.95-5.032v-.005A.984.984 0 0 1 0 9.873c0-.559.45-1.011 1.003-1.011l8.592.016z"/></svg>