<svg id="Слой_1" xmlns="http://www.w3.org/2000/svg" width="45.101" height="43.686" viewBox="0 0 45.1013489 43.6863518"><style>.st0{fill:#44bae5}</style><g id="XMLID_2_"><path id="XMLID_3_" class="st0" d="M43.219 22.944c.023-.038.027-.052.036-.059.04-.03.08-.06.12-.088 1.404-.934 1.935-2.234 1.653-3.887a3.705 3.705 0 0 0-3.672-3.083c-2.83.01-5.662.004-8.493.005-.1 0-.198-.01-.335-.017.044-.186.08-.354.125-.519.723-2.702 1.271-5.435 1.363-8.24.05-1.485-.038-2.958-.569-4.366C32.797.964 31.5.037 29.715 0c-1.839-.036-3.078.773-3.78 2.565-.295.752-.51 1.546-.668 2.34-.384 1.925-.664 3.872-1.074 5.792-1.051 4.921-3.461 9.032-7.433 12.18-.123.097-.251.187-.388.288-.6-1.592-1.945-2.523-3.766-2.493-2.981.05-5.963.007-8.945.016-2.142.006-3.66 1.538-3.66 3.682-.002 5.211 0 10.423 0 15.634 0 .2.003.402.035.599.296 1.853 1.721 3.067 3.64 3.075 2.617.011 5.236.004 7.854.002.576 0 1.154.016 1.727-.026 1.52-.111 2.762-1.166 3.142-2.648.076-.295.108-.602.152-.852.778.569 1.53 1.195 2.354 1.705 2.205 1.365 4.648 1.837 7.215 1.826 3.858-.015 7.717 0 11.575-.009a6.607 6.607 0 0 0 1.342-.119c3.114-.657 4.137-4.381 2.379-6.377-.036-.041-.057-.097-.084-.145 2.795-1.675 3.284-4.593 1.189-7.181 1.25-.753 1.876-1.864 1.987-3.281.11-1.405-.231-2.653-1.29-3.63zM12.7 42.259c-2.968.001-5.7.002-8.669 0-1.516-.001-2.134-.86-2.134-2.379v-7.702c0-2.592-.237-5.185-.236-7.777.001-1.414.758-2.294 2.18-2.297 3.018-.004 5.977-.004 8.995 0 1.458.002 2.285.884 2.285 2.356 0 5.134-.01 10.269-.007 15.403 0 1.53-.88 2.395-2.414 2.396zm30.181-14.876c-.375.955-1.128 1.433-2.12 1.57-.501.07-.746.274-.775.656-.033.418.167.641.669.807.823.272 1.353.843 1.58 1.673a3.556 3.556 0 0 1-.038 2.002c-.328 1.073-1.093 1.635-2.175 1.812-.196.032-.395.064-.582.128-.289.098-.491.33-.45.62.031.232.2.459.352.653.093.12.275.167.408.26 1.822 1.265 1.107 3.577-.165 4.245-.46.242-.75.414-1.264.425-2.229.045-4.424.019-6.424.019v-.039c-2 0-4.704.099-6.914-.023-3.199-.177-6.014-1.501-8.056-4.024-.19-.236-.343-.476-.342-.786.01-4.046-.024-8.092-.033-12.139-.001-.294.074-.47.312-.644 4.617-3.359 7.489-7.857 8.689-13.421.44-2.041.736-4.112 1.147-6.16a12.47 12.47 0 0 1 .674-2.217c.384-.947 1.169-1.359 2.175-1.375.989-.016 1.785.33 2.298 1.213.451.775.62 1.632.7 2.51.196 2.142-.07 4.255-.492 6.345-.322 1.591-.757 3.16-1.156 4.735-.161.635.117 1.03.78 1.03 3.195.002 6.39-.001 9.584.001 1.681.002 2.799 1.46 2.328 3.073-.306 1.047-1.146 1.504-2.132 1.728-.468.106-.735.31-.756.69-.02.363.202.614.646.754.795.25 1.347.761 1.6 1.559a3.406 3.406 0 0 1-.068 2.32z"/></g></svg>