<svg xmlns="http://www.w3.org/2000/svg" width="22.603" height="25.333" viewBox="0 0 22.603 25.333"><path opacity=".6" fill="#FFF" d="M0 12.814c0 .782.191 1.856.661 2.313.47.457 1.585.882 2.368.882h4.839c-.805 2-1.365 4.931.441 8.028.464.801 1.442 1.172 2.265 1.286.445.063 1.24-.195 1.505-.338.266-.142.524-.349.837-.731.473-.559.718-1.322.536-2.318-.191-1.082.1-2.262.664-3.431l.046-.069c.554-1.096 1.337-1.858 2.201-2.776.109.032.218.349.336.349h5.007c.587 0 .896-1.067.896-1.649V1.011c0-.582-.309-1.002-.896-1.002H16.7c-.477 0-.877.285-1.014.713l-1.8-.679c-.141-.069-.305-.034-.478-.034H5.889c-.787 0-1.661.204-2.163.635s-.868 1.21-.868 1.997c0 .391.172.788.326 1.139-.104.072-.159.168-.246.26l-.009.032-.017.03a2.925 2.925 0 0 0-.717 1.247l-.006.051a2.75 2.75 0 0 0-.008 1.438l.024.087c.027.09.059.177.09.264a3.053 3.053 0 0 0-1.064 1.6 2.77 2.77 0 0 0 0 1.432l.018.082.082.227c-.095.068-.279.145-.366.232C.429 11.258 0 11.968 0 12.814zm2.496-.505a.964.964 0 0 1 .655-.227c.587 0 1.065-.473 1.065-1.06 0-.418-.237-.778-.592-.95-.191-.105-.3-.237-.346-.373l-.013-.042a.736.736 0 0 1 .013-.332.84.84 0 0 1 .832-.619 1.065 1.065 0 0 0 .428-2.038.644.644 0 0 1-.305-.35l-.008-.04a.662.662 0 0 1 .009-.327l.013-.036a.8.8 0 0 1 .2-.346l.014-.009a.837.837 0 0 1 .605-.232 1.061 1.061 0 0 0 .455-2.019.796.796 0 0 1-.259-.251l-.018-.032a.758.758 0 0 1-.082-.346c0-.205.082-.361.213-.489.128-.131.314-.182.514-.182h7.313l3.089 1.265c.541.224 1.164-.18 1.387-.717.055-.136.077-.548.077-.548h2.849v12h-2.88c-.123-1-.536-1.136-1.024-1.136-.305 0-.582-.051-.773.159-1.428 1.264-2.797 2.818-3.661 4.559l-.041.038c-.755 1.546-1.133 3.166-.851 4.73.054.31.046.686-.426.887-.473.201-.811-.237-.811-.237h.005c-1.405-3-.868-4.42-.172-6.899l.009-.095.3-1.109c.155-.56-.173-.919-.737-1.083-.096-.023-.186.186-.282.186H3.029c-.205 0-.387-.318-.519-.445-.132-.132-.214-.437-.214-.632 0-.218.082-.505.2-.623z"/></svg>