<svg xmlns="http://www.w3.org/2000/svg" width="22.253" height="25.268" viewBox="0 0 22.253 25.268"><path opacity=".6" fill="#FFF" d="M22.253 12.545c0-.782-.191-1.91-.661-2.367-.47-.457-1.585-.936-2.368-.936h-4.839c.805-2 1.365-4.877-.441-7.974C13.48.467 12.502.123 11.679.009c-.445-.063-1.24.209-1.505.351-.266.143-.524.356-.837.738-.474.559-.718 1.326-.537 2.322.191 1.082-.1 2.264-.664 3.433l-.046.069c-.554 1.096-1.336 1.805-2.201 2.723-.109-.032-.218-.402-.336-.402H.546c-.587 0-.545 1.174-.545 1.757v13.349c0 .582-.042.895.545.895h5.008c.477 0 .877-.231 1.015-.659l1.8.652c.141.069.304.007.478.007h7.518c.787 0 1.661-.15 2.163-.581.502-.431.868-1.182.868-1.97 0-.391-.172-.775-.326-1.125.104-.073.159-.163.246-.254l.009-.029.017-.028a2.93 2.93 0 0 0 .717-1.247l.007-.05c.128-.464.135-.96.008-1.437l-.024-.087c-.027-.09-.059-.177-.09-.264a3.053 3.053 0 0 0 1.064-1.601 2.77 2.77 0 0 0 0-1.432l-.018-.082-.082-.227c.095-.068.279-.145.366-.232.534-.497.963-1.207.963-2.053zm-2.496.505a.964.964 0 0 1-.655.227c-.587 0-1.065.473-1.065 1.06 0 .418.236.778.591.95.191.105.3.237.346.373l.013.041c.019.1.019.223-.013.332a.84.84 0 0 1-.832.619 1.065 1.065 0 0 0-.428 2.038.644.644 0 0 1 .305.35l.009.041c.023.1.023.218-.009.327l-.013.036a.8.8 0 0 1-.2.346l-.014.01a.837.837 0 0 1-.605.232 1.061 1.061 0 0 0-.455 2.02c.1.06.196.15.259.251l.018.032a.77.77 0 0 1 .082.345c0 .205-.082.307-.213.435-.128.131-.314.129-.514.129H9.051l-3.089-1.211c-.541-.224-1.164.153-1.387.69-.055.136-.077.521-.077.521H2.001v-12H4.53c.123 1 .536 1.19 1.024 1.19.305 0 .582.078.773-.132 1.428-1.264 2.797-2.804 3.661-4.546l.041-.031c.755-1.546 1.133-3.163.85-4.727-.054-.31-.046-.738.427-.939.473-.2.811.185.811.185h-.005c1.405 3 .868 4.474.172 6.952l-.009.122-.3 1.123c-.155.56.173.872.737 1.036.096.023.186-.233.282-.233h6.231c.205 0 .387.372.519.499.132.132.214.464.214.659-.001.216-.083.53-.201.648z"/></svg>