<svg xmlns="http://www.w3.org/2000/svg" width="157.387" height="162.836" viewBox="0 0 157.387 162.836"><path d="M152.59 9.535h-31.453V4.8a4.802 4.802 0 0 0-9.602 0v4.735H83.492V4.8a4.798 4.798 0 1 0-9.597 0v4.735H47.043V4.8a4.802 4.802 0 0 0-9.602 0v4.735H4.801A4.8 4.8 0 0 0 0 14.336v108.457c0 2.648 2.148 4.8 4.801 4.8h29.461c4.718 20.168 22.843 35.243 44.433 35.243 21.586 0 39.711-15.075 44.43-35.243h29.461a4.801 4.801 0 0 0 4.801-4.8V14.336a4.799 4.799 0 0 0-4.797-4.801zM37.441 19.132v4.34a4.802 4.802 0 0 0 9.602 0v-4.34h26.852v4.34a4.801 4.801 0 0 0 4.8 4.801 4.8 4.8 0 0 0 4.797-4.801v-4.34h28.043v4.34a4.804 4.804 0 0 0 4.801 4.801 4.802 4.802 0 0 0 4.801-4.801v-4.34h26.652v19.629H9.602V19.132h27.839zm41.254 134.102c-19.875 0-36.043-16.168-36.043-36.043 0-19.871 16.168-36.043 36.043-36.043 19.872 0 36.04 16.168 36.04 36.043s-16.169 36.043-36.04 36.043zm45.621-35.242c.004-.266.02-.531.02-.801 0-25.168-20.477-45.641-45.641-45.641-25.168 0-45.644 20.473-45.644 45.641 0 .27.015.535.019.801H9.598V48.363h138.191v69.629h-23.473zm0 0"/><path d="M83.492 118.402V95.184a4.8 4.8 0 1 0-9.597 0v25.207c0 1.273.503 2.496 1.406 3.395l11.031 11.035a4.785 4.785 0 0 0 3.395 1.406 4.8 4.8 0 0 0 3.395-8.195l-9.63-9.63zm0 0"/></svg>