<svg id="Layer_1" xmlns="http://www.w3.org/2000/svg" width="18" height="17.9" viewBox="0 0 18 17.9"><style>.st0{opacity:.6;fill:#262626}</style><path class="st0" d="M6 11.9c-.6-.6-1.5-1-2.5-1s-1.8.4-2.5 1c-.6.6-1 1.5-1 2.5s.4 1.8 1 2.5c.6.6 1.5 1 2.5 1s1.8-.4 2.5-1c.6-.6 1-1.5 1-2.5s-.4-1.9-1-2.5zm-1.1 3.9c-.4.4-.9.6-1.4.6-.6 0-1.1-.2-1.4-.6-.4-.4-.6-.9-.6-1.4 0-.5.2-1 .6-1.4.4-.4.9-.6 1.4-.6.6 0 1.1.2 1.4.6.4.4.6.9.6 1.4 0 .5-.2 1-.6 1.4zm4.5-7.2C7.3 6.4 4.3 5.1.9 5.1H.7c-.4 0-.7.3-.7.7 0 .4.3.8.8.7H1c2.9 0 5.5 1.2 7.4 3.1 1.9 1.9 3.1 4.5 3.1 7.4 0 .4.3.8.8.8.4 0 .8-.3.8-.8-.1-3.2-1.5-6.2-3.7-8.4zM13 5C9.9 1.9 5.6 0 .9 0H.7C.3 0 0 .4 0 .8s.3.7.8.7H1c4.3 0 8.2 1.8 11 4.6 2.8 2.8 4.6 6.7 4.6 11 0 .4.3.8.8.8.4 0 .8-.3.8-.8-.2-4.7-2.1-9-5.2-12.1z"/></svg>